#usda 1.0
(
    framesPerSecond = 30
    metersPerUnit = 1
    timeCodesPerSecond = 30
)

def "roboticArm"
{
    def "SkelRoot"
    {
        def Scope "Rig"
        {
            def Skeleton "Armature"
            {
                uniform matrix4d[] bindTransforms = [( (1, 2.3841846541472478e-7, -4.460699659040307e-13, 0), (0, 0.0000018709538380790036, 0.9999999403953552, 0), (2.3841845120387006e-7, -0.9999999403953552, 0.0000020265579223632812, 0), (-7.450580596923828e-7, 0.000002398155629634857, 24.83290284872055, 1) ), ( (1, 9.947598300641403e-14, 3.709893178251156e-14, 0), (0, -0.00000127016744499997, 0.9999998807907104, 0), (7.105427357601002e-14, -0.9999999403953552, -0.0000011145632470288547, 0), (-7.450580596923828e-7, 0.0000938954201501474, 73.736971616745, 1) ), ( (0.000046648965508211404, 0.9999790787696838, -0.00644995691254735, 0), (-0.9999737739562988, 1.765449564317123e-9, -0.00722057931125164, 0), (-0.007220430299639702, 0.006449970416724682, 0.9999529719352722, 0), (-7.450580596923828e-7, -0.0000035623372696136357, 150.46522617340088, 1) ), ( (7.467743046163378e-8, 0.9999790787696838, -0.0064507583156228065, 0), (-0.9999997615814209, 3.637978807091713e-12, 4.656612873077393e-10, 0), (-1.862645149230957e-9, 0.00645060371607542, 0.9999790787696838, 0), (-99.23363327980042, -0.000003387140878885475, 149.74868297576904, 1) ), ( (0.000004743755653180415, 0.9999762177467346, -0.0068762716837227345, 0), (-0.9999995231628418, 4.256435204297304e-10, -0.0006789661129005253, 0), (-0.0006789522594772279, 0.00687611848115921, 0.9999759793281555, 0), (-121.03698253631592, 5.034388601779938, 149.7612714767456, 1) ), ( (0.000004743755653180415, 0.9999762177467346, -0.0068762716837227345, 0), (-0.9999995231628418, 4.256435204297304e-10, -0.0006789661711081862, 0), (-0.0006789523176848888, 0.00687611848115921, 0.9999759793281555, 0), (-121.03698253631592, -5.034395307302475, 149.7612714767456, 1) )]
                uniform token[] joints = ["mainBone", "mainBone/armBone", "mainBone/armBone/secArmBone", "mainBone/armBone/secArmBone/effectorBone", "mainBone/armBone/secArmBone/effectorBone/handleRBone", "mainBone/armBone/secArmBone/effectorBone/handleLBone"]
                uniform matrix4d[] restTransforms = [( (1, 2.3841846541472478e-7, -4.460699659040307e-13, 0), (0, 0.0000018709538380790036, 0.9999999403953552, 0), (2.3841845120387006e-7, -0.9999999403953552, 0.0000020265579223632812, 0), (-7.450580596923828e-7, 0.000002398155629634857, 24.83290284872055, 1) ), ( (1, 2.2869892160805523e-19, 2.384183801495965e-7, 0), (-7.489012665215511e-13, 1, 0.0000031411213967658114, 0), (-2.384183801495965e-7, -0.0000031411213967658114, 1, 0), (-2.4940715725313423e-14, 48.9040732383728, -8.704148513061227e-12, 1) ), ( (0.000046648965508211404, -0.006451072171330452, -0.9999791979789734, 0), (-0.9999737739562988, -0.007220580242574215, 7.405797308734918e-9, 0), (-0.007220430299639702, 0.9999530911445618, -0.006451241672039032, 0), (1.3326458694658063e-17, 76.72827243804932, 2.8776980798284058e-11, 1) ), ( (1, 0.000046578865294577554, -4.652691814044374e-7, 0), (-0.00004657429599319585, 0.9999738335609436, 0.0072204298339784145, 0), (8.009373004824738e-7, -0.0072204298339784145, 0.9999739527702332, 0), (-8.378613358672737e-8, 99.23623204231262, 0.000002166760637578591, 1) ), ( (0.9999998807907104, -0.000004669078407459892, -0.00042552268132567406, 0), (0.000004380167865747353, 0.9999997615814209, -0.0006789525505155325, 0), (0.0004255259409546852, 0.0006789506296627223, 0.9999996423721313, 0), (5.034206435084343, 21.803343296051025, 0.0450640800409019, 1) ), ( (0.9999998807907104, -0.000004669078407459892, -0.00042552268132567406, 0), (0.000004380168320494704, 0.9999997615814209, -0.0006789526087231934, 0), (0.0004255259409546852, 0.0006789506878703833, 0.9999996423721313, 0), (-5.034368857741356, 21.803343296051025, -0.019887233793269843, 1) )]
                matrix4d xformOp:transform = ( (1, 0, 0, 0), (0, 1, 0, 0), (0, 0, 1, 0), (0, 0, 0, 1) )
                uniform token[] xformOpOrder = ["xformOp:transform"]
            }
        }
    }
}

