#usda 1.0
(
    defaultPrim = "roboticArm"
    metersPerUnit = 1
    subLayers = [
        @handle_v001_binding.usda@
    ]
)

def Xform "roboticArm"
{
    def Scope "Geom"
    {
        def "render"
        {
            def Mesh "handleBox" (
                prepend apiSchemas = ["SkelBindingAPI"]
            )
            {
                int[] faceVertexCounts = [4, 4, 4, 4, 4, 4, 4, 4, 4, 4, 4, 4, 4, 4, 4, 4, 4, 4, 4, 4, 4, 4, 4, 4, 4, 4, 4, 4, 4, 4, 4, 4, 4, 4, 4, 4, 4, 4, 4, 4, 4, 4, 4, 4, 4, 4, 4, 4, 4, 4, 4, 4, 4, 4, 4, 4, 4, 4, 4, 4, 4, 4, 4, 4, 4, 4, 4, 4, 4, 4, 4, 4, 5, 4, 6, 6, 5, 4, 6, 6, 5, 5]
                int[] faceVertexIndices = [73, 24, 26, 48, 48, 26, 27, 49, 49, 27, 28, 50, 50, 28, 29, 51, 51, 29, 30, 52, 52, 30, 31, 53, 53, 31, 32, 54, 54, 32, 33, 55, 55, 33, 34, 56, 56, 34, 35, 57, 57, 35, 25, 58, 1, 25, 35, 11, 11, 35, 34, 10, 10, 34, 33, 9, 9, 33, 32, 8, 8, 32, 31, 7, 7, 31, 30, 6, 6, 30, 29, 5, 5, 29, 28, 4, 4, 28, 27, 3, 3, 27, 26, 2, 2, 26, 24, 0, 69, 70, 47, 45, 65, 66, 42, 41, 63, 64, 40, 39, 61, 62, 38, 37, 59, 60, 36, 46, 44, 45, 21, 20, 42, 43, 19, 18, 40, 41, 17, 16, 38, 39, 15, 14, 36, 37, 13, 12, 67, 68, 44, 43, 59, 1, 11, 60, 60, 11, 10, 61, 61, 10, 9, 62, 62, 9, 8, 63, 63, 8, 7, 64, 64, 7, 6, 65, 65, 6, 5, 66, 66, 5, 4, 67, 67, 4, 3, 68, 68, 3, 2, 69, 69, 2, 0, 70, 66, 67, 43, 42, 24, 73, 70, 0, 68, 69, 45, 44, 46, 36, 12, 22, 37, 38, 14, 13, 39, 40, 16, 15, 41, 42, 18, 17, 43, 44, 20, 19, 45, 47, 23, 21, 60, 61, 37, 36, 62, 63, 39, 38, 64, 65, 41, 40, 56, 57, 12, 13, 73, 48, 21, 23, 48, 49, 20, 21, 49, 50, 19, 20, 50, 51, 18, 19, 51, 52, 17, 18, 52, 53, 16, 17, 53, 54, 15, 16, 54, 55, 14, 15, 55, 56, 13, 14, 57, 58, 22, 12, 23, 47, 70, 73, 74, 77, 76, 75, 88, 87, 86, 89, 84, 83, 82, 85, 80, 79, 78, 81, 46, 75, 76, 71, 59, 87, 88, 77, 74, 86, 87, 74, 75, 46, 22, 76, 77, 88, 89, 72, 71, 1, 59, 71, 79, 80, 82, 81, 78, 85, 78, 79, 71, 72, 84, 85, 82, 83, 25, 1, 80, 81, 83, 84, 72, 58, 25, 86, 22, 58, 72, 89]
                point3f[] points = [(4.8906803, -0.5380713, -1.1271062), (1.1271062, -2.334771, -4.8906803), (4.852372, -0.79376817, -1.6627183), (4.738229, -1.04426, -2.187427), (4.5505733, -1.2844472, -2.690551), (4.2932262, -1.5094402, -3.1618476), (3.9714255, -1.7146591, -3.5917227), (3.5917227, -1.8959261, -3.9714255), (3.1618476, -2.0495512, -4.2932262), (2.690551, -2.1724067, -4.5505733), (2.187427, -2.2619917, -4.738229), (1.6627183, -2.316483, -4.852372), (1.6627183, 2.316483, 4.852391), (2.187427, 2.2619917, 4.7382483), (2.6905515, 2.1724067, 4.5505924), (3.1618476, 2.0495512, 4.2932453), (3.5917227, 1.8959261, 3.9714441), (3.9714255, 1.7146591, 3.5917416), (4.2932262, 1.5094402, 3.1618662), (4.550574, 1.2844472, 2.6905696), (4.7382293, 1.0442599, 2.1874459), (4.852372, 0.7937681, 1.6627369), (1.1271062, 2.334771, 4.890699), (4.8906803, 0.53807116, 1.1271248), (4.8906803, 0.5380713, -1.1271062), (1.1271062, 2.334771, -4.8906803), (4.852372, 0.79376817, -1.6627183), (4.738229, 1.04426, -2.1874273), (4.5505733, 1.2844472, -2.690551), (4.2932262, 1.5094402, -3.1618476), (3.9714255, 1.7146591, -3.5917227), (3.5917227, 1.8959261, -3.9714255), (3.1618476, 2.0495512, -4.2932262), (2.690551, 2.1724067, -4.5505733), (2.187427, 2.2619917, -4.738229), (1.6627183, 2.316483, -4.852372), (1.6627183, -2.3164835, 4.852391), (2.187427, -2.2619922, 4.7382483), (2.6905515, -2.1724067, 4.5505924), (3.1618476, -2.049551, 4.2932453), (3.5917227, -1.8959265, 3.9714441), (3.9714255, -1.7146595, 3.5917416), (4.2932262, -1.5094405, 3.1618662), (4.550574, -1.2844476, 2.6905696), (4.7382293, -1.0442603, 2.1874459), (4.852372, -0.79376817, 1.6627369), (1.1271062, -2.3347714, 4.890699), (4.8906803, -0.53807116, 1.1271248), (4.852372, 0.7937681, 0.000009328232), (4.7382293, 1.04426, 0.000009328232), (4.550574, 1.2844472, 0.000009328232), (4.2932262, 1.5094402, 0.000009328232), (3.9714255, 1.7146591, 0.000009328232), (3.5917227, 1.8959261, 0.000009328232), (3.1618476, 2.0495512, 0.000009328232), (2.6905515, 2.1724067, 0.000009328232), (2.187427, 2.2619917, 0.000009328232), (1.6627183, 2.316483, 0.000009328232), (1.1271062, 2.334771, 0.000009328232), (1.1271062, -2.3347712, 0.000009328232), (1.6627183, -2.3164833, 0.000009328232), (2.187427, -2.261992, 0.000009328232), (2.6905515, -2.1724067, 0.000009328232), (3.1618476, -2.049551, 0.000009328232), (3.5917227, -1.8959264, 0.000009328232), (3.9714255, -1.7146593, 0.000009328232), (4.2932262, -1.5094404, 0.000009328232), (4.550574, -1.2844473, 0.000009328232), (4.7382293, -1.0442601, 0.000009328232), (4.852372, -0.79376817, 0.000009328232), (4.8906803, -0.5380712, 0.000009328232), (-11.085651, -2.3347712, 0.000009328232), (-11.085651, 2.334771, 0.000009328232), (4.8906803, 0.5380712, 0.000009328232), (-7.5960836, -1.7476218, 4.890699), (-6.7657285, -2.3347714, 4.890699), (-11.085651, -2.3347714, 0.57077634), (-11.085651, -1.7476218, 1.4011314), (-11.085651, -1.7476212, -1.4011128), (-11.085651, -2.3347712, -0.5707577), (-6.7657285, -2.334771, -4.8906803), (-7.5960836, -1.7476212, -4.8906803), (-7.5960836, 1.7476212, -4.8906803), (-6.7657285, 2.334771, -4.8906803), (-11.085651, 2.334771, -0.5707577), (-11.085651, 1.7476212, -1.4011128), (-6.7657285, 2.334771, 4.890699), (-7.5960836, 1.7476212, 4.890699), (-11.085651, 1.7476212, 1.4011314), (-11.085651, 2.334771, 0.57077634)]
                matrix4d primvars:skel:geomBindTransform = ( (1, 0, 0, 0), (0, 1, 0, 0), (0, 0, 1, 0), (-99.99607801437378, -0.0000031709316061778736, 149.7487187385559, 1) )
                int[] primvars:skel:jointIndices = [3, 0, 0, 0, 3, 0, 0, 0, 3, 0, 0, 0, 3, 0, 0, 0, 3, 0, 0, 0, 3, 0, 0, 0, 3, 0, 0, 0, 3, 0, 0, 0, 3, 0, 0, 0, 3, 0, 0, 0, 3, 0, 0, 0, 3, 0, 0, 0, 3, 0, 0, 0, 3, 0, 0, 0, 3, 0, 0, 0, 3, 0, 0, 0, 3, 0, 0, 0, 3, 0, 0, 0, 3, 0, 0, 0, 3, 0, 0, 0, 3, 0, 0, 0, 3, 0, 0, 0, 3, 0, 0, 0, 3, 0, 0, 0, 3, 0, 0, 0, 3, 0, 0, 0, 3, 0, 0, 0, 3, 0, 0, 0, 3, 0, 0, 0, 3, 0, 0, 0, 3, 0, 0, 0, 3, 0, 0, 0, 3, 0, 0, 0, 3, 0, 0, 0, 3, 0, 0, 0, 3, 0, 0, 0, 3, 0, 0, 0, 3, 0, 0, 0, 3, 0, 0, 0, 3, 0, 0, 0, 3, 0, 0, 0, 3, 0, 0, 0, 3, 0, 0, 0, 3, 0, 0, 0, 3, 0, 0, 0, 3, 0, 0, 0, 3, 0, 0, 0, 3, 0, 0, 0, 3, 0, 0, 0, 3, 0, 0, 0, 3, 0, 0, 0, 3, 0, 0, 0, 3, 0, 0, 0, 3, 0, 0, 0, 3, 0, 0, 0, 3, 0, 0, 0, 3, 0, 0, 0, 3, 0, 0, 0, 3, 0, 0, 0, 3, 0, 0, 0, 3, 0, 0, 0, 3, 0, 0, 0, 3, 0, 0, 0, 3, 0, 0, 0, 3, 0, 0, 0, 3, 0, 0, 0, 3, 0, 0, 0, 3, 0, 0, 0, 3, 0, 0, 0, 3, 0, 0, 0, 3, 0, 0, 0, 3, 0, 0, 0, 3, 0, 0, 0, 3, 0, 0, 0, 3, 0, 0, 0, 3, 0, 0, 0, 3, 0, 0, 0, 3, 0, 0, 0, 3, 0, 0, 0, 3, 0, 0, 0, 3, 0, 0, 0, 3, 0, 0, 0, 3, 0, 0, 0, 3, 0, 0, 0, 3, 0, 0, 0, 3, 0, 0, 0, 3, 0, 0, 0, 3, 0, 0, 0, 3, 0, 0, 0, 3, 0, 0, 0] (
                    elementSize = 4
                    interpolation = "vertex"
                )
                float[] primvars:skel:jointWeights = [1, 0, 0, 0, 1, 0, 0, 0, 1, 0, 0, 0, 1, 0, 0, 0, 1, 0, 0, 0, 1, 0, 0, 0, 1, 0, 0, 0, 1, 0, 0, 0, 1, 0, 0, 0, 1, 0, 0, 0, 1, 0, 0, 0, 1, 0, 0, 0, 1, 0, 0, 0, 1, 0, 0, 0, 1, 0, 0, 0, 1, 0, 0, 0, 1, 0, 0, 0, 1, 0, 0, 0, 1, 0, 0, 0, 1, 0, 0, 0, 1, 0, 0, 0, 1, 0, 0, 0, 1, 0, 0, 0, 1, 0, 0, 0, 1, 0, 0, 0, 1, 0, 0, 0, 1, 0, 0, 0, 1, 0, 0, 0, 1, 0, 0, 0, 1, 0, 0, 0, 1, 0, 0, 0, 1, 0, 0, 0, 1, 0, 0, 0, 1, 0, 0, 0, 1, 0, 0, 0, 1, 0, 0, 0, 1, 0, 0, 0, 1, 0, 0, 0, 1, 0, 0, 0, 1, 0, 0, 0, 1, 0, 0, 0, 1, 0, 0, 0, 1, 0, 0, 0, 1, 0, 0, 0, 1, 0, 0, 0, 1, 0, 0, 0, 1, 0, 0, 0, 1, 0, 0, 0, 1, 0, 0, 0, 1, 0, 0, 0, 1, 0, 0, 0, 1, 0, 0, 0, 1, 0, 0, 0, 1, 0, 0, 0, 1, 0, 0, 0, 1, 0, 0, 0, 1, 0, 0, 0, 1, 0, 0, 0, 1, 0, 0, 0, 1, 0, 0, 0, 1, 0, 0, 0, 1, 0, 0, 0, 1, 0, 0, 0, 1, 0, 0, 0, 1, 0, 0, 0, 1, 0, 0, 0, 1, 0, 0, 0, 1, 0, 0, 0, 1, 0, 0, 0, 1, 0, 0, 0, 1, 0, 0, 0, 1, 0, 0, 0, 1, 0, 0, 0, 1, 0, 0, 0, 1, 0, 0, 0, 1, 0, 0, 0, 1, 0, 0, 0, 1, 0, 0, 0, 1, 0, 0, 0, 1, 0, 0, 0, 1, 0, 0, 0, 1, 0, 0, 0, 1, 0, 0, 0, 1, 0, 0, 0, 1, 0, 0, 0, 1, 0, 0, 0, 1, 0, 0, 0, 1, 0, 0, 0, 1, 0, 0, 0, 1, 0, 0, 0] (
                    elementSize = 4
                    interpolation = "vertex"
                )
                texCoord2f[] primvars:st = [(0.5, 0.5961925), (0.47119254, 0.5961925), (0.4575029, 0.5825029), (0.5, 0.5825029), (0.5, 0.5825029), (0.4575029, 0.5825029), (0.44409195, 0.569092), (0.5, 0.5690919), (0.5, 0.5690919), (0.44409195, 0.569092), (0.4312327, 0.5562327), (0.5, 0.5562327), (0.5, 0.5562327), (0.4312327, 0.5562327), (0.41918692, 0.54418695), (0.5, 0.54418695), (0.5, 0.54418695), (0.41918692, 0.54418695), (0.4081998, 0.5331998), (0.49999997, 0.5331998), (0.49999997, 0.5331998), (0.4081998, 0.5331998), (0.3806404, 0.5056404), (0.5, 0.5056404), (0.5, 0.5056404), (0.3806404, 0.5056404), (0.3745069, 0.49950686), (0.49999994, 0.49950686), (0.49999994, 0.49950686), (0.3745069, 0.49950686), (0.36900234, 0.49400234), (0.5, 0.49400234), (0.5, 0.49400234), (0.36900234, 0.49400234), (0.3642387, 0.48923874), (0.5, 0.48923874), (0.5, 0.48923874), (0.3642387, 0.48923874), (0.36031306, 0.4853131), (0.5, 0.48531312), (0.5, 0.48531312), (0.36031306, 0.4853131), (0.3573053, 0.48230532), (0.5, 0.48230532), (0.3573053, 0.7676947), (0.3573053, 0.48230532), (0.36031306, 0.4853131), (0.36031306, 0.76468694), (0.36031306, 0.76468694), (0.36031306, 0.4853131), (0.3642387, 0.48923874), (0.36423868, 0.76076126), (0.36423868, 0.76076126), (0.3642387, 0.48923874), (0.36900234, 0.49400234), (0.36900234, 0.7559978), (0.36900234, 0.7559978), (0.36900234, 0.49400234), (0.3745069, 0.49950686), (0.3745069, 0.75049305), (0.3745069, 0.75049305), (0.3745069, 0.49950686), (0.3806404, 0.5056404), (0.38064042, 0.74435973), (0.38064042, 0.74435973), (0.3806404, 0.5056404), (0.4081998, 0.5331998), (0.40819982, 0.7168002), (0.40819982, 0.7168002), (0.4081998, 0.5331998), (0.41918692, 0.54418695), (0.41918695, 0.70581317), (0.41918695, 0.70581317), (0.41918692, 0.54418695), (0.4312327, 0.5562327), (0.4312327, 0.6937673), (0.4312327, 0.6937673), (0.4312327, 0.5562327), (0.44409195, 0.569092), (0.44409195, 0.6809081), (0.44409195, 0.6809081), (0.44409195, 0.569092), (0.4575029, 0.5825029), (0.4575029, 0.66749716), (0.4575029, 0.66749716), (0.4575029, 0.5825029), (0.47119254, 0.5961925), (0.47119248, 0.6538075), (0.50000006, 0.6674972), (0.5, 0.6538075), (0.47119248, 0.6538075), (0.4575029, 0.66749716), (0.5, 0.7168002), (0.5, 0.70581317), (0.41918695, 0.70581317), (0.40819982, 0.7168002), (0.5, 0.75049305), (0.5, 0.7443597), (0.38064042, 0.74435973), (0.3745069, 0.75049305), (0.49999997, 0.76076126), (0.5, 0.7559978), (0.36900234, 0.7559978), (0.36423868, 0.76076126), (0.5, 0.7676948), (0.5, 0.76468694), (0.36031306, 0.76468694), (0.3573053, 0.7676947), (0.44409195, 0.6809081), (0.4575029, 0.66749716), (0.4575029, 0.5825029), (0.44409195, 0.569092), (0.41918695, 0.70581317), (0.4312327, 0.6937673), (0.4312327, 0.5562327), (0.41918692, 0.54418695), (0.38064042, 0.74435973), (0.40819982, 0.7168002), (0.4081998, 0.5331998), (0.3806404, 0.5056404), (0.36900234, 0.7559978), (0.3745069, 0.75049305), (0.3745069, 0.49950686), (0.36900234, 0.49400234), (0.36031306, 0.76468694), (0.36423868, 0.76076126), (0.3642387, 0.48923874), (0.36031306, 0.4853131), (0.5, 0.69376737), (0.5, 0.6809081), (0.44409195, 0.6809081), (0.4312327, 0.6937673), (0.5, 0.7676948), (0.3573053, 0.7676947), (0.36031306, 0.76468694), (0.5, 0.76468694), (0.5, 0.76468694), (0.36031306, 0.76468694), (0.36423868, 0.76076126), (0.49999997, 0.76076126), (0.49999997, 0.76076126), (0.36423868, 0.76076126), (0.36900234, 0.7559978), (0.5, 0.7559978), (0.5, 0.7559978), (0.36900234, 0.7559978), (0.3745069, 0.75049305), (0.5, 0.75049305), (0.5, 0.75049305), (0.3745069, 0.75049305), (0.38064042, 0.74435973), (0.5, 0.7443597), (0.5, 0.7443597), (0.38064042, 0.74435973), (0.40819982, 0.7168002), (0.5, 0.7168002), (0.5, 0.7168002), (0.40819982, 0.7168002), (0.41918695, 0.70581317), (0.5, 0.70581317), (0.5, 0.70581317), (0.41918695, 0.70581317), (0.4312327, 0.6937673), (0.5, 0.69376737), (0.5, 0.69376737), (0.4312327, 0.6937673), (0.44409195, 0.6809081), (0.5, 0.6809081), (0.5, 0.6809081), (0.44409195, 0.6809081), (0.4575029, 0.66749716), (0.50000006, 0.6674972), (0.50000006, 0.6674972), (0.4575029, 0.66749716), (0.47119248, 0.6538075), (0.5, 0.6538075), (0.5, 0.70581317), (0.5, 0.69376737), (0.4312327, 0.6937673), (0.41918695, 0.70581317), (0.47119254, 0.5961925), (0.5, 0.5961925), (0.5, 0.6538075), (0.47119248, 0.6538075), (0.5, 0.6809081), (0.50000006, 0.6674972), (0.4575029, 0.66749716), (0.44409195, 0.6809081), (0.3573053, 0.7676947), (0.36031306, 0.76468694), (0.36031306, 0.4853131), (0.3573053, 0.48230532), (0.36423868, 0.76076126), (0.36900234, 0.7559978), (0.36900234, 0.49400234), (0.3642387, 0.48923874), (0.3745069, 0.75049305), (0.38064042, 0.74435973), (0.3806404, 0.5056404), (0.3745069, 0.49950686), (0.40819982, 0.7168002), (0.41918695, 0.70581317), (0.41918692, 0.54418695), (0.4081998, 0.5331998), (0.4312327, 0.6937673), (0.44409195, 0.6809081), (0.44409195, 0.569092), (0.4312327, 0.5562327), (0.4575029, 0.66749716), (0.47119248, 0.6538075), (0.47119254, 0.5961925), (0.4575029, 0.5825029), (0.5, 0.76468694), (0.49999997, 0.76076126), (0.36423868, 0.76076126), (0.36031306, 0.76468694), (0.5, 0.7559978), (0.5, 0.75049305), (0.3745069, 0.75049305), (0.36900234, 0.7559978), (0.5, 0.7443597), (0.5, 0.7168002), (0.40819982, 0.7168002), (0.38064042, 0.74435973), (0.5, 0.48923874), (0.5, 0.48531312), (0.36031306, 0.4853131), (0.3642387, 0.48923874), (0.5, 0.5961925), (0.5, 0.5825029), (0.4575029, 0.5825029), (0.47119254, 0.5961925), (0.5, 0.5825029), (0.5, 0.5690919), (0.44409195, 0.569092), (0.4575029, 0.5825029), (0.5, 0.5690919), (0.5, 0.5562327), (0.4312327, 0.5562327), (0.44409195, 0.569092), (0.5, 0.5562327), (0.5, 0.54418695), (0.41918692, 0.54418695), (0.4312327, 0.5562327), (0.5, 0.54418695), (0.49999997, 0.5331998), (0.4081998, 0.5331998), (0.41918692, 0.54418695), (0.49999997, 0.5331998), (0.5, 0.5056404), (0.3806404, 0.5056404), (0.4081998, 0.5331998), (0.5, 0.5056404), (0.49999994, 0.49950686), (0.3745069, 0.49950686), (0.3806404, 0.5056404), (0.49999994, 0.49950686), (0.5, 0.49400234), (0.36900234, 0.49400234), (0.3745069, 0.49950686), (0.5, 0.49400234), (0.5, 0.48923874), (0.3642387, 0.48923874), (0.36900234, 0.49400234), (0.5, 0.48531312), (0.5, 0.48230532), (0.3573053, 0.48230532), (0.36031306, 0.4853131), (0.47119254, 0.5961925), (0.47119248, 0.6538075), (0.5, 0.6538075), (0.5, 0.5961925), (0.3725935, 0.9684064), (0.46418923, 1), (0.485412, 1), (0.37113822, 0.9493007), (0.46418923, 0.23428246), (0.3725935, 0.28159362), (0.37113824, 0.30069926), (0.485412, 0.25), (0.125, 0.5), (0.16614643, 0.49686587), (0.15659362, 0.52963376), (0.125, 0.5314351), (0.16614643, 0.75313413), (0.125, 0.75), (0.125, 0.71856487), (0.15659362, 0.7203662), (0.3573053, 0.7676947), (0.37113822, 0.9493007), (0.485412, 1), (0.50000006, 1), (0.5, 0.7676948), (0.15659362, 0.52963376), (0.125, 0.5314351), (0.125, 0.7185649), (0.15659362, 0.72036624), (0.17569925, 0.49613824), (0.15659362, 0.52963376), (0.15659362, 0.72036624), (0.17569925, 0.7538618), (0.3573053, 0.7676947), (0.3573053, 0.48230532), (0.485412, 0), (0.46418923, 0.031435076), (0.46418923, 0.23428246), (0.485412, 0.25), (0.50000006, 0.25), (0.50000006, 0), (0.3573053, 0.7676947), (0.5, 0.7676948), (0.50000006, 1), (0.485412, 1), (0.37113824, 0.94930077), (0.15659362, 0.52963376), (0.15659362, 0.7203662), (0.125, 0.71856487), (0.125, 0.5314351), (0.46418923, 0.031435102), (0.485412, 0), (0.50000006, 0), (0.50000006, 0.25), (0.485412, 0.25), (0.46418926, 0.21856493), (0.15659362, 0.52963376), (0.16614643, 0.49686587), (0.3573053, 0.48230532), (0.3573053, 0.7676947), (0.16614643, 0.75313413), (0.15659362, 0.7203662), (0.37113822, 0.30069926), (0.485412, 0.25), (0.50000006, 0.25), (0.5, 0.48230532), (0.3573053, 0.48230532), (0.37113824, 0.30069926), (0.3573053, 0.48230532), (0.5, 0.48230532), (0.50000006, 0.25), (0.485412, 0.25)] (
                    interpolation = "faceVarying"
                )
                rel skel:skeleton = </roboticArm/Rig/Armature>
                matrix4d xformOp:transform = ( (1, 0, 0, 0), (0, 1, 0, 0), (0, 0, 1, 0), (-99.99607801437378, -0.0000031709316061778736, 149.7487187385559, 1) )
                uniform token[] xformOpOrder = ["xformOp:transform"]
            }

            def Mesh "handleEnd" (
                prepend apiSchemas = ["SkelBindingAPI"]
            )
            {
                int[] faceVertexCounts = [4, 4, 4, 4, 4, 4, 4, 4, 4, 4, 4, 4, 4, 4, 4, 4, 4, 4, 4, 4, 4, 4, 4, 4, 4, 4, 4, 4, 4, 32, 4, 4, 4, 32, 4, 4, 4, 4, 4, 4, 4, 4, 4, 4, 4, 4, 4, 4, 4, 4, 4, 4, 4, 4, 4, 4, 4, 4, 4, 4, 4, 4, 4, 4, 4, 4, 4, 4, 4, 4, 4, 4, 4, 4, 4, 4, 4, 4, 4, 4, 4, 4, 4, 4, 4, 4, 4, 4, 4, 4, 4, 4, 4, 4, 4, 4, 4, 4, 4, 4, 4, 4, 4, 4, 4, 4, 4, 4, 4, 4, 4, 4, 69, 4, 4, 4, 69]
                int[] faceVertexIndices = [48, 17, 23, 50, 50, 23, 22, 51, 51, 22, 21, 52, 52, 21, 20, 53, 53, 20, 19, 54, 54, 19, 18, 55, 55, 18, 16, 49, 24, 57, 63, 26, 26, 63, 62, 27, 27, 62, 61, 28, 28, 61, 60, 29, 29, 60, 59, 30, 30, 59, 58, 31, 31, 58, 56, 25, 0, 33, 39, 2, 2, 39, 38, 3, 3, 38, 37, 4, 4, 37, 36, 5, 5, 36, 35, 6, 6, 35, 34, 7, 7, 34, 32, 1, 40, 9, 15, 42, 42, 15, 14, 43, 43, 14, 13, 44, 44, 13, 12, 45, 45, 12, 11, 46, 46, 11, 10, 47, 47, 10, 8, 41, 17, 48, 33, 0, 0, 2, 3, 4, 5, 6, 7, 1, 8, 10, 11, 12, 13, 14, 15, 9, 24, 26, 27, 28, 29, 30, 31, 25, 16, 18, 19, 20, 21, 22, 23, 17, 32, 41, 8, 1, 57, 24, 9, 40, 16, 25, 56, 49, 48, 50, 51, 52, 53, 54, 55, 49, 56, 58, 59, 60, 61, 62, 63, 57, 40, 42, 43, 44, 45, 46, 47, 41, 32, 34, 35, 36, 37, 38, 39, 33, 66, 67, 71, 70, 138, 139, 69, 68, 68, 69, 65, 64, 136, 138, 68, 64, 139, 137, 65, 69, 136, 64, 75, 140, 137, 67, 73, 141, 64, 65, 74, 75, 67, 66, 72, 73, 91, 107, 120, 93, 93, 120, 119, 94, 94, 119, 118, 95, 95, 118, 117, 96, 96, 117, 116, 97, 97, 116, 115, 98, 98, 115, 114, 99, 99, 114, 113, 100, 100, 113, 112, 101, 101, 112, 111, 102, 102, 111, 110, 103, 103, 110, 109, 104, 104, 109, 108, 105, 105, 108, 106, 92, 121, 77, 90, 123, 123, 90, 89, 124, 124, 89, 88, 125, 125, 88, 87, 126, 126, 87, 86, 127, 127, 86, 85, 128, 128, 85, 84, 129, 129, 84, 83, 130, 130, 83, 82, 131, 131, 82, 81, 132, 132, 81, 80, 133, 133, 80, 79, 134, 134, 79, 78, 135, 135, 78, 76, 122, 73, 72, 77, 121, 75, 74, 107, 91, 65, 137, 141, 74, 66, 136, 140, 72, 71, 67, 137, 139, 66, 70, 138, 136, 70, 71, 139, 138, 160, 152, 159, 162, 162, 159, 158, 163, 163, 158, 157, 164, 164, 157, 156, 165, 165, 156, 155, 166, 166, 155, 154, 167, 167, 154, 153, 168, 168, 153, 151, 161, 142, 170, 177, 144, 144, 177, 176, 145, 145, 176, 175, 146, 146, 175, 174, 147, 147, 174, 173, 148, 148, 173, 172, 149, 149, 172, 171, 150, 150, 171, 169, 143, 92, 106, 170, 142, 152, 160, 122, 76, 178, 206, 213, 180, 180, 213, 212, 181, 181, 212, 211, 182, 182, 211, 210, 183, 183, 210, 209, 184, 184, 209, 208, 185, 185, 208, 207, 186, 186, 207, 205, 179, 196, 188, 195, 198, 198, 195, 194, 199, 199, 194, 193, 200, 200, 193, 192, 201, 201, 192, 191, 202, 202, 191, 190, 203, 203, 190, 189, 204, 204, 189, 187, 197, 72, 140, 75, 91, 93, 94, 95, 96, 97, 98, 99, 100, 101, 102, 103, 104, 105, 92, 142, 144, 145, 146, 147, 148, 149, 150, 143, 178, 180, 181, 182, 183, 184, 185, 186, 179, 187, 189, 190, 191, 192, 193, 194, 195, 188, 151, 153, 154, 155, 156, 157, 158, 159, 152, 76, 78, 79, 80, 81, 82, 83, 84, 85, 86, 87, 88, 89, 90, 77, 179, 205, 197, 187, 206, 178, 143, 169, 161, 151, 188, 196, 74, 141, 73, 121, 123, 124, 125, 126, 127, 128, 129, 130, 131, 132, 133, 134, 135, 122, 160, 162, 163, 164, 165, 166, 167, 168, 161, 196, 198, 199, 200, 201, 202, 203, 204, 197, 205, 207, 208, 209, 210, 211, 212, 213, 206, 169, 171, 172, 173, 174, 175, 176, 177, 170, 106, 108, 109, 110, 111, 112, 113, 114, 115, 116, 117, 118, 119, 120, 107]
                point3f[] points = [(-0.9917369, -0.3526699, -0.99173486), (-0.9917369, -0.9481789, -0.368869), (-0.9917369, -0.48518312, -0.97611827), (-0.9917369, -0.6110516, -0.9300517), (-0.9917369, -0.72396374, -0.8558451), (-0.9917369, -0.8182576, -0.7572195), (-0.9917369, -0.889205, -0.63912034), (-0.9917369, -0.93324816, -0.50746965), (-0.9917369, -0.9481789, 0.36887312), (-0.9917369, -0.3526699, 0.991739), (-0.9917369, -0.93324816, 0.5074738), (-0.9917369, -0.889205, 0.63912445), (-0.9917369, -0.8182576, 0.75722367), (-0.9917369, -0.72396374, 0.8558493), (-0.9917369, -0.6110516, 0.9300558), (-0.9917369, -0.48518312, 0.9761224), (-0.9917369, 0.9481789, -0.368869), (-0.9917369, 0.3526699, -0.99173486), (-0.9917369, 0.93324816, -0.50746965), (-0.9917369, 0.889205, -0.63912034), (-0.9917369, 0.8182576, -0.7572195), (-0.9917369, 0.72396374, -0.8558451), (-0.9917369, 0.6110516, -0.9300517), (-0.9917369, 0.48518312, -0.97611827), (-0.9917369, 0.3526699, 0.991739), (-0.9917369, 0.9481789, 0.36887312), (-0.9917369, 0.48518312, 0.9761224), (-0.9917369, 0.6110516, 0.9300558), (-0.9917369, 0.72396374, 0.8558493), (-0.9917369, 0.8182576, 0.75722367), (-0.9917369, 0.889205, 0.63912445), (-0.9917369, 0.93324816, 0.5074738), (0.9917369, -0.9481789, -0.368869), (0.9917369, -0.3526699, -0.99173486), (0.9917369, -0.93324816, -0.50746965), (0.9917369, -0.889205, -0.63912034), (0.9917369, -0.8182576, -0.7572195), (0.9917369, -0.72396374, -0.8558451), (0.9917369, -0.6110516, -0.9300517), (0.9917369, -0.48518312, -0.97611827), (0.9917369, -0.3526699, 0.991739), (0.9917369, -0.9481789, 0.36887312), (0.9917369, -0.48518312, 0.9761224), (0.9917369, -0.6110516, 0.9300558), (0.9917369, -0.72396374, 0.8558493), (0.9917369, -0.8182576, 0.75722367), (0.9917369, -0.889205, 0.63912445), (0.9917369, -0.93324816, 0.5074738), (0.9917369, 0.3526699, -0.99173486), (0.9917369, 0.9481789, -0.368869), (0.9917369, 0.48518312, -0.97611827), (0.9917369, 0.6110516, -0.9300517), (0.9917369, 0.72396374, -0.8558451), (0.9917369, 0.8182576, -0.7572195), (0.9917369, 0.889205, -0.63912034), (0.9917369, 0.93324816, -0.50746965), (0.9917369, 0.9481789, 0.36887312), (0.9917369, 0.3526699, 0.991739), (0.9917369, 0.93324816, 0.5074738), (0.9917369, 0.889205, 0.63912445), (0.9917369, 0.8182576, 0.75722367), (0.9917369, 0.72396374, 0.8558493), (0.9917369, 0.6110516, 0.9300558), (0.9917369, 0.48518312, 0.9761224), (-3.0569313, -2.2868016, -1.2658828), (-3.0569313, -2.2868016, 1.2658631), (-3.0569313, 2.2868016, -1.2658828), (-3.0569313, 2.2868016, 1.2658631), (-0.5251854, -2.2868016, -1.2658828), (-0.5251854, -2.2868016, 1.2658631), (-0.5251854, 2.2868016, -1.2658828), (-0.5251854, 2.2868016, 1.2658631), (-7.5829244, 7.3917294, -1.2658828), (-7.5829244, 7.3917294, 1.2658631), (-7.5829244, -7.3917294, 1.2658631), (-7.5829244, -7.3917294, -1.2658828), (-11.935195, 5.318467, -1.2658828), (-9.861932, 7.3917294, -1.2658828), (-11.922157, 5.5505986, -1.2658828), (-11.883213, 5.779811, -1.2658828), (-11.81885, 6.003222, -1.2658828), (-11.729876, 6.218022, -1.2658828), (-11.617413, 6.421509, -1.2658828), (-11.482873, 6.611125, -1.2658828), (-11.327949, 6.7844844, -1.2658828), (-11.154589, 6.939409, -1.2658828), (-10.964974, 7.073948, -1.2658828), (-10.761486, 7.1864114, -1.2658828), (-10.546686, 7.275385, -1.2658828), (-10.323276, 7.3397474, -1.2658828), (-10.094063, 7.378692, -1.2658828), (-9.861932, -7.3917294, -1.2658828), (-11.935195, -5.3184667, -1.2658828), (-10.094063, -7.378693, -1.2658828), (-10.323276, -7.339748, -1.2658828), (-10.546686, -7.2753854, -1.2658828), (-10.761486, -7.1864114, -1.2658828), (-10.964974, -7.0739484, -1.2658828), (-11.154589, -6.939409, -1.2658828), (-11.327949, -6.7844853, -1.2658828), (-11.482873, -6.611126, -1.2658828), (-11.617413, -6.4215093, -1.2658828), (-11.729876, -6.2180223, -1.2658828), (-11.81885, -6.0032225, -1.2658828), (-11.883213, -5.779812, -1.2658828), (-11.922157, -5.5505996, -1.2658828), (-11.935195, -5.3184667, 1.2658631), (-9.861932, -7.3917294, 1.2658631), (-11.922157, -5.5505996, 1.2658631), (-11.883213, -5.779812, 1.2658631), (-11.81885, -6.0032225, 1.2658631), (-11.729876, -6.2180223, 1.2658631), (-11.617413, -6.4215093, 1.2658631), (-11.482873, -6.611126, 1.2658631), (-11.327949, -6.7844853, 1.2658631), (-11.154589, -6.939409, 1.2658631), (-10.964974, -7.0739484, 1.2658631), (-10.761486, -7.1864114, 1.2658631), (-10.546686, -7.2753854, 1.2658631), (-10.323276, -7.339748, 1.2658631), (-10.094063, -7.378693, 1.2658631), (-9.861932, 7.3917294, 1.2658631), (-11.935195, 5.318467, 1.2658631), (-10.094063, 7.378692, 1.2658631), (-10.323276, 7.3397474, 1.2658631), (-10.546686, 7.275385, 1.2658631), (-10.761486, 7.1864114, 1.2658631), (-10.964974, 7.073948, 1.2658631), (-11.154589, 6.939409, 1.2658631), (-11.327949, 6.7844844, 1.2658631), (-11.482873, 6.611125, 1.2658631), (-11.617413, 6.421509, 1.2658631), (-11.729876, 6.218022, 1.2658631), (-11.81885, 6.003222, 1.2658631), (-11.883213, 5.779811, 1.2658631), (-11.922157, 5.5505986, 1.2658631), (-3.0569313, 7.761133e-9, -1.2658828), (-3.0569313, 7.761133e-9, 1.2658631), (-0.5251854, 7.761133e-9, -1.2658828), (-0.5251854, 7.761133e-9, 1.2658631), (-7.5829244, 7.761133e-9, -1.2658828), (-7.5829244, 7.5281923e-7, 1.2658631), (-11.935195, -4.4127045, -1.2658828), (-11.417704, -3.4142003, -1.2658828), (-11.925249, -4.2821274, -1.2658828), (-11.8958025, -4.1425357, -1.2658828), (-11.847981, -3.9992943, -1.2658828), (-11.783625, -3.8579066, -1.2658828), (-11.705206, -3.7238076, -1.2658828), (-11.615739, -3.602149, -1.2658828), (-11.5186615, -3.4976072, -1.2658828), (-11.417704, 3.414201, -1.2658828), (-11.935195, 4.4127054, -1.2658828), (-11.5186615, 3.4976091, -1.2658828), (-11.615739, 3.6021504, -1.2658828), (-11.705206, 3.7238083, -1.2658828), (-11.783625, 3.8579078, -1.2658828), (-11.847981, 3.999295, -1.2658828), (-11.8958025, 4.142537, -1.2658828), (-11.925249, 4.282129, -1.2658828), (-11.935195, 4.4127054, 1.2658631), (-11.417704, 3.4142005, 1.2658631), (-11.925249, 4.2821283, 1.2658631), (-11.8958025, 4.1425366, 1.2658631), (-11.847981, 3.9992948, 1.2658631), (-11.783625, 3.8579073, 1.2658631), (-11.705206, 3.7238083, 1.2658631), (-11.615739, 3.6021497, 1.2658631), (-11.5186615, 3.4976084, 1.2658631), (-11.417704, -3.4142005, 1.2658631), (-11.935195, -4.4127045, 1.2658631), (-11.5186615, -3.4976084, 1.2658631), (-11.615739, -3.6021497, 1.2658631), (-11.705206, -3.723808, 1.2658631), (-11.783625, -3.8579068, 1.2658631), (-11.847981, -3.9992943, 1.2658631), (-11.8958025, -4.142536, 1.2658631), (-11.925249, -4.282128, 1.2658631), (-10.101551, -2.4854922, -1.2658828), (-9.65919, -1.6319549, -1.2658828), (-10.015251, -2.4141943, -1.2658828), (-9.932267, -2.3248305, -1.2658828), (-9.855789, -2.2208354, -1.2658828), (-9.788755, -2.1062047, -1.2658828), (-9.733743, -1.9853446, -1.2658828), (-9.692864, -1.8628992, -1.2658828), (-9.667691, -1.7435743, -1.2658828), (-9.65919, 1.6319559, -1.2658828), (-10.101551, 2.4854932, -1.2658828), (-9.667691, 1.7435749, -1.2658828), (-9.692864, 1.8629, -1.2658828), (-9.733743, 1.9853456, -1.2658828), (-9.788755, 2.1062055, -1.2658828), (-9.855789, 2.220836, -1.2658828), (-9.932267, 2.324831, -1.2658828), (-10.015251, 2.4141948, -1.2658828), (-10.101551, 2.4854932, 1.2658631), (-9.65919, 1.6319559, 1.2658631), (-10.015251, 2.4141948, 1.2658631), (-9.932267, 2.324831, 1.2658631), (-9.855789, 2.220836, 1.2658631), (-9.788755, 2.1062055, 1.2658631), (-9.733743, 1.9853456, 1.2658631), (-9.692864, 1.8629, 1.2658631), (-9.667691, 1.7435749, 1.2658631), (-9.65919, -1.6319549, 1.2658631), (-10.101551, -2.4854922, 1.2658631), (-9.667691, -1.7435743, 1.2658631), (-9.692864, -1.8628992, 1.2658631), (-9.733743, -1.9853446, 1.2658631), (-9.788755, -2.1062047, 1.2658631), (-9.855789, -2.2208354, 1.2658631), (-9.932267, -2.3248305, 1.2658631), (-10.015251, -2.4141943, 1.2658631)]
                matrix4d primvars:skel:geomBindTransform = ( (1, 0, 0, 0), (0, 1, 0, 0), (0, 0, 1, 0), (-111.08174324035645, -0.0000032906733338222693, 149.74873065948486, 1) )
                int[] primvars:skel:jointIndices = [3, 0, 0, 0, 3, 0, 0, 0, 3, 0, 0, 0, 3, 0, 0, 0, 3, 0, 0, 0, 3, 0, 0, 0, 3, 0, 0, 0, 3, 0, 0, 0, 3, 0, 0, 0, 3, 0, 0, 0, 3, 0, 0, 0, 3, 0, 0, 0, 3, 0, 0, 0, 3, 0, 0, 0, 3, 0, 0, 0, 3, 0, 0, 0, 3, 0, 0, 0, 3, 0, 0, 0, 3, 0, 0, 0, 3, 0, 0, 0, 3, 0, 0, 0, 3, 0, 0, 0, 3, 0, 0, 0, 3, 0, 0, 0, 3, 0, 0, 0, 3, 0, 0, 0, 3, 0, 0, 0, 3, 0, 0, 0, 3, 0, 0, 0, 3, 0, 0, 0, 3, 0, 0, 0, 3, 0, 0, 0, 3, 0, 0, 0, 3, 0, 0, 0, 3, 0, 0, 0, 3, 0, 0, 0, 3, 0, 0, 0, 3, 0, 0, 0, 3, 0, 0, 0, 3, 0, 0, 0, 3, 0, 0, 0, 3, 0, 0, 0, 3, 0, 0, 0, 3, 0, 0, 0, 3, 0, 0, 0, 3, 0, 0, 0, 3, 0, 0, 0, 3, 0, 0, 0, 3, 0, 0, 0, 3, 0, 0, 0, 3, 0, 0, 0, 3, 0, 0, 0, 3, 0, 0, 0, 3, 0, 0, 0, 3, 0, 0, 0, 3, 0, 0, 0, 3, 0, 0, 0, 3, 0, 0, 0, 3, 0, 0, 0, 3, 0, 0, 0, 3, 0, 0, 0, 3, 0, 0, 0, 3, 0, 0, 0, 3, 0, 0, 0, 3, 0, 0, 0, 3, 0, 0, 0, 3, 0, 0, 0, 3, 0, 0, 0, 3, 0, 0, 0, 3, 0, 0, 0, 3, 0, 0, 0, 3, 0, 0, 0, 3, 0, 0, 0, 3, 0, 0, 0, 3, 0, 0, 0, 3, 0, 0, 0, 3, 0, 0, 0, 3, 0, 0, 0, 3, 0, 0, 0, 3, 0, 0, 0, 3, 0, 0, 0, 3, 0, 0, 0, 3, 0, 0, 0, 3, 0, 0, 0, 3, 0, 0, 0, 3, 0, 0, 0, 3, 0, 0, 0, 3, 0, 0, 0, 3, 0, 0, 0, 3, 0, 0, 0, 3, 0, 0, 0, 3, 0, 0, 0, 3, 0, 0, 0, 3, 0, 0, 0, 3, 0, 0, 0, 3, 0, 0, 0, 3, 0, 0, 0, 3, 0, 0, 0, 3, 0, 0, 0, 3, 0, 0, 0, 3, 0, 0, 0, 3, 0, 0, 0, 3, 0, 0, 0, 3, 0, 0, 0, 3, 0, 0, 0, 3, 0, 0, 0, 3, 0, 0, 0, 3, 0, 0, 0, 3, 0, 0, 0, 3, 0, 0, 0, 3, 0, 0, 0, 3, 0, 0, 0, 3, 0, 0, 0, 3, 0, 0, 0, 3, 0, 0, 0, 3, 0, 0, 0, 3, 0, 0, 0, 3, 0, 0, 0, 3, 0, 0, 0, 3, 0, 0, 0, 3, 0, 0, 0, 3, 0, 0, 0, 3, 0, 0, 0, 3, 0, 0, 0, 3, 0, 0, 0, 3, 0, 0, 0, 3, 0, 0, 0, 3, 0, 0, 0, 3, 0, 0, 0, 3, 0, 0, 0, 3, 0, 0, 0, 3, 0, 0, 0, 3, 0, 0, 0, 3, 0, 0, 0, 3, 0, 0, 0, 3, 0, 0, 0, 3, 0, 0, 0, 3, 0, 0, 0, 3, 0, 0, 0, 3, 0, 0, 0, 3, 0, 0, 0, 3, 0, 0, 0, 3, 0, 0, 0, 3, 0, 0, 0, 3, 0, 0, 0, 3, 0, 0, 0, 3, 0, 0, 0, 3, 0, 0, 0, 3, 0, 0, 0, 3, 0, 0, 0, 3, 0, 0, 0, 3, 0, 0, 0, 3, 0, 0, 0, 3, 0, 0, 0, 3, 0, 0, 0, 3, 0, 0, 0, 3, 0, 0, 0, 3, 0, 0, 0, 3, 0, 0, 0, 3, 0, 0, 0, 3, 0, 0, 0, 3, 0, 0, 0, 3, 0, 0, 0, 3, 0, 0, 0, 3, 0, 0, 0, 3, 0, 0, 0, 3, 0, 0, 0, 3, 0, 0, 0, 3, 0, 0, 0, 3, 0, 0, 0, 3, 0, 0, 0, 3, 0, 0, 0, 3, 0, 0, 0, 3, 0, 0, 0, 3, 0, 0, 0, 3, 0, 0, 0, 3, 0, 0, 0, 3, 0, 0, 0, 3, 0, 0, 0, 3, 0, 0, 0, 3, 0, 0, 0, 3, 0, 0, 0, 3, 0, 0, 0, 3, 0, 0, 0, 3, 0, 0, 0, 3, 0, 0, 0, 3, 0, 0, 0, 3, 0, 0, 0, 3, 0, 0, 0, 3, 0, 0, 0, 3, 0, 0, 0, 3, 0, 0, 0, 3, 0, 0, 0, 3, 0, 0, 0, 3, 0, 0, 0, 3, 0, 0, 0, 3, 0, 0, 0, 3, 0, 0, 0, 3, 0, 0, 0, 3, 0, 0, 0, 3, 0, 0, 0, 3, 0, 0, 0, 3, 0, 0, 0, 3, 0, 0, 0, 3, 0, 0, 0, 3, 0, 0, 0, 3, 0, 0, 0, 3, 0, 0, 0, 3, 0, 0, 0, 3, 0, 0, 0, 3, 0, 0, 0, 3, 0, 0, 0, 3, 0, 0, 0, 3, 0, 0, 0] (
                    elementSize = 4
                    interpolation = "vertex"
                )
                float[] primvars:skel:jointWeights = [1, 0, 0, 0, 1, 0, 0, 0, 1, 0, 0, 0, 1, 0, 0, 0, 1, 0, 0, 0, 1, 0, 0, 0, 1, 0, 0, 0, 1, 0, 0, 0, 1, 0, 0, 0, 1, 0, 0, 0, 1, 0, 0, 0, 1, 0, 0, 0, 1, 0, 0, 0, 1, 0, 0, 0, 1, 0, 0, 0, 1, 0, 0, 0, 1, 0, 0, 0, 1, 0, 0, 0, 1, 0, 0, 0, 1, 0, 0, 0, 1, 0, 0, 0, 1, 0, 0, 0, 1, 0, 0, 0, 1, 0, 0, 0, 1, 0, 0, 0, 1, 0, 0, 0, 1, 0, 0, 0, 1, 0, 0, 0, 1, 0, 0, 0, 1, 0, 0, 0, 1, 0, 0, 0, 1, 0, 0, 0, 1, 0, 0, 0, 1, 0, 0, 0, 1, 0, 0, 0, 1, 0, 0, 0, 1, 0, 0, 0, 1, 0, 0, 0, 1, 0, 0, 0, 1, 0, 0, 0, 1, 0, 0, 0, 1, 0, 0, 0, 1, 0, 0, 0, 1, 0, 0, 0, 1, 0, 0, 0, 1, 0, 0, 0, 1, 0, 0, 0, 1, 0, 0, 0, 1, 0, 0, 0, 1, 0, 0, 0, 1, 0, 0, 0, 1, 0, 0, 0, 1, 0, 0, 0, 1, 0, 0, 0, 1, 0, 0, 0, 1, 0, 0, 0, 1, 0, 0, 0, 1, 0, 0, 0, 1, 0, 0, 0, 1, 0, 0, 0, 1, 0, 0, 0, 1, 0, 0, 0, 1, 0, 0, 0, 1, 0, 0, 0, 1, 0, 0, 0, 1, 0, 0, 0, 1, 0, 0, 0, 1, 0, 0, 0, 1, 0, 0, 0, 1, 0, 0, 0, 1, 0, 0, 0, 1, 0, 0, 0, 1, 0, 0, 0, 1, 0, 0, 0, 1, 0, 0, 0, 1, 0, 0, 0, 1, 0, 0, 0, 1, 0, 0, 0, 1, 0, 0, 0, 1, 0, 0, 0, 1, 0, 0, 0, 1, 0, 0, 0, 1, 0, 0, 0, 1, 0, 0, 0, 1, 0, 0, 0, 1, 0, 0, 0, 1, 0, 0, 0, 1, 0, 0, 0, 1, 0, 0, 0, 1, 0, 0, 0, 1, 0, 0, 0, 1, 0, 0, 0, 1, 0, 0, 0, 1, 0, 0, 0, 1, 0, 0, 0, 1, 0, 0, 0, 1, 0, 0, 0, 1, 0, 0, 0, 1, 0, 0, 0, 1, 0, 0, 0, 1, 0, 0, 0, 1, 0, 0, 0, 1, 0, 0, 0, 1, 0, 0, 0, 1, 0, 0, 0, 1, 0, 0, 0, 1, 0, 0, 0, 1, 0, 0, 0, 1, 0, 0, 0, 1, 0, 0, 0, 1, 0, 0, 0, 1, 0, 0, 0, 1, 0, 0, 0, 1, 0, 0, 0, 1, 0, 0, 0, 1, 0, 0, 0, 1, 0, 0, 0, 1, 0, 0, 0, 1, 0, 0, 0, 1, 0, 0, 0, 1, 0, 0, 0, 1, 0, 0, 0, 1, 0, 0, 0, 1, 0, 0, 0, 1, 0, 0, 0, 1, 0, 0, 0, 1, 0, 0, 0, 1, 0, 0, 0, 1, 0, 0, 0, 1, 0, 0, 0, 1, 0, 0, 0, 1, 0, 0, 0, 1, 0, 0, 0, 1, 0, 0, 0, 1, 0, 0, 0, 1, 0, 0, 0, 1, 0, 0, 0, 1, 0, 0, 0, 1, 0, 0, 0, 1, 0, 0, 0, 1, 0, 0, 0, 1, 0, 0, 0, 1, 0, 0, 0, 1, 0, 0, 0, 1, 0, 0, 0, 1, 0, 0, 0, 1, 0, 0, 0, 1, 0, 0, 0, 1, 0, 0, 0, 1, 0, 0, 0, 1, 0, 0, 0, 1, 0, 0, 0, 1, 0, 0, 0, 1, 0, 0, 0, 1, 0, 0, 0, 1, 0, 0, 0, 1, 0, 0, 0, 1, 0, 0, 0, 1, 0, 0, 0, 1, 0, 0, 0, 1, 0, 0, 0, 1, 0, 0, 0, 1, 0, 0, 0, 1, 0, 0, 0, 1, 0, 0, 0, 1, 0, 0, 0, 1, 0, 0, 0, 1, 0, 0, 0, 1, 0, 0, 0, 1, 0, 0, 0, 1, 0, 0, 0, 1, 0, 0, 0, 1, 0, 0, 0, 1, 0, 0, 0, 1, 0, 0, 0, 1, 0, 0, 0, 1, 0, 0, 0, 1, 0, 0, 0, 1, 0, 0, 0, 1, 0, 0, 0, 1, 0, 0, 0, 1, 0, 0, 0, 1, 0, 0, 0, 1, 0, 0, 0, 1, 0, 0, 0, 1, 0, 0, 0, 1, 0, 0, 0, 1, 0, 0, 0, 1, 0, 0, 0, 1, 0, 0, 0, 1, 0, 0, 0, 1, 0, 0, 0, 1, 0, 0, 0, 1, 0, 0, 0, 1, 0, 0, 0, 1, 0, 0, 0, 1, 0, 0, 0, 1, 0, 0, 0, 1, 0, 0, 0, 1, 0, 0, 0, 1, 0, 0, 0, 1, 0, 0, 0, 1, 0, 0, 0, 1, 0, 0, 0, 1, 0, 0, 0, 1, 0, 0, 0, 1, 0, 0, 0, 1, 0, 0, 0, 1, 0, 0, 0, 1, 0, 0, 0, 1, 0, 0, 0, 1, 0, 0, 0, 1, 0, 0, 0, 1, 0, 0, 0] (
                    elementSize = 4
                    interpolation = "vertex"
                )
                texCoord2f[] primvars:st = [(0.375, 0.57850695), (0.125, 0.57850695), (0.125, 0.5610375), (0.37565613, 0.5610375), (0.37565613, 0.5610375), (0.125, 0.5610375), (0.125, 0.5444441), (0.37759158, 0.5444441), (0.37759158, 0.5444441), (0.125, 0.5444441), (0.125, 0.52955866), (0.38070926, 0.52955866), (0.38070926, 0.52955866), (0.125, 0.52955866), (0.125, 0.5), (0.3848529, 0.5057093), (0.3848529, 0.5057093), (0.38977933, 0.24143612), (0.41944408, 0.24740848), (0.41944405, 0.50259155), (0.41944405, 0.50259155), (0.41944408, 0.24740848), (0.4360375, 0.2493439), (0.43603748, 0.5006561), (0.43603748, 0.5006561), (0.4360375, 0.2493439), (0.45350695, 0.25), (0.45350695, 0.5), (0.875, 0.57850695), (0.625, 0.57850695), (0.6243439, 0.5610375), (0.875, 0.5610375), (0.875, 0.5610375), (0.6243439, 0.5610375), (0.6224085, 0.5444441), (0.875, 0.5444441), (0.875, 0.5444441), (0.6224085, 0.5444441), (0.61929077, 0.5098529), (0.875, 0.5), (0.6164361, 0.23522067), (0.61929077, 0.5098529), (0.59544134, 0.5057093), (0.59544134, 0.24429075), (0.59544134, 0.24429075), (0.59544134, 0.5057093), (0.5805559, 0.50259155), (0.58055604, 0.24740848), (0.58055604, 0.24740848), (0.5805559, 0.50259155), (0.56396246, 0.5006561), (0.5639626, 0.2493439), (0.5639626, 0.2493439), (0.56396246, 0.5006561), (0.54649305, 0.5), (0.54649305, 0.25), (0.125, 0.67149305), (0.375, 0.67149305), (0.37565613, 0.68896246), (0.125, 0.6889625), (0.125, 0.6889625), (0.37565613, 0.68896246), (0.37759155, 0.7055559), (0.125, 0.705556), (0.125, 0.705556), (0.37759155, 0.7055559), (0.38070926, 0.72044134), (0.125, 0.72044134), (0.125, 0.72044134), (0.38070926, 0.72044134), (0.3848529, 0.74429077), (0.125, 0.75), (0.375, 1), (0.3848529, 0.74429077), (0.41944408, 0.7474085), (0.41944402, 1), (0.41944402, 1), (0.41944408, 0.7474085), (0.4360375, 0.7493439), (0.43603748, 1), (0.43603748, 1), (0.4360375, 0.7493439), (0.45350695, 0.75), (0.45350695, 1), (0.625, 0.67149305), (0.875, 0.67149305), (0.875, 0.68896246), (0.6243439, 0.68896246), (0.6243439, 0.68896246), (0.875, 0.68896246), (0.875, 0.705556), (0.6224085, 0.7055559), (0.6224085, 0.7055559), (0.875, 0.705556), (0.875, 0.75), (0.61929077, 0.7401471), (0.61929077, 0.7401471), (0.625, 1), (0.59544134, 1), (0.59544134, 0.74429077), (0.59544134, 0.74429077), (0.59544134, 1), (0.5805559, 1), (0.58055604, 0.7474085), (0.58055604, 0.7474085), (0.5805559, 1), (0.56396246, 1), (0.5639626, 0.7493439), (0.5639626, 0.7493439), (0.56396246, 1), (0.54649305, 1), (0.54649305, 0.75), (0.125, 0.57850695), (0.375, 0.57850695), (0.375, 0.67149305), (0.125, 0.67149305), (0.375, 0.07850695), (0.37696832, 0.061037507), (0.38277465, 0.04444405), (0.39212778, 0.029558662), (0.40455866, 0.017127743), (0.41944408, 0.007774627), (0.4360375, 0.001968333), (0.45350695, 0), (0.54649305, 0), (0.56396246, 0.001968333), (0.580556, 0.007774627), (0.59544134, 0.017127743), (0.6078723, 0.029558662), (0.61722535, 0.044444054), (0.6230316, 0.061037507), (0.625, 0.07850695), (0.625, 0.17149305), (0.6230317, 0.18896249), (0.6172254, 0.20555595), (0.6164361, 0.23522067), (0.59544134, 0.24429075), (0.58055604, 0.24740848), (0.5639626, 0.2493439), (0.54649305, 0.25), (0.45350695, 0.25), (0.4360375, 0.2493439), (0.41944408, 0.24740848), (0.38977933, 0.24143612), (0.39212775, 0.22044136), (0.38277462, 0.20555593), (0.37696832, 0.18896249), (0.375, 0.17149305), (0.45350695, 0.75), (0.54649305, 0.75), (0.54649305, 1), (0.45350695, 1), (0.625, 0.57850695), (0.875, 0.57850695), (0.875, 0.67149305), (0.625, 0.67149305), (0.45350695, 0.25), (0.54649305, 0.25), (0.54649305, 0.5), (0.45350695, 0.5), (0.375, 0.57850695), (0.37565613, 0.5610375), (0.37759158, 0.5444441), (0.38070926, 0.52955866), (0.3848529, 0.5057093), (0.41944405, 0.50259155), (0.43603748, 0.5006561), (0.45350695, 0.5), (0.54649305, 0.5), (0.56396246, 0.5006561), (0.5805559, 0.50259155), (0.59544134, 0.5057093), (0.61929077, 0.5098529), (0.6224085, 0.5444441), (0.6243439, 0.5610375), (0.625, 0.57850695), (0.625, 0.67149305), (0.6243439, 0.68896246), (0.6224085, 0.7055559), (0.61929077, 0.7401471), (0.59544134, 0.74429077), (0.58055604, 0.7474085), (0.5639626, 0.7493439), (0.54649305, 0.75), (0.45350695, 0.75), (0.4360375, 0.7493439), (0.41944408, 0.7474085), (0.3848529, 0.74429077), (0.38070926, 0.72044134), (0.37759155, 0.7055559), (0.37565613, 0.68896246), (0.375, 0.67149305), (0.375, 0.25), (0.625, 0.25), (0.625, 0.5), (0.375, 0.5), (0.375, 0.625), (0.625, 0.625), (0.625, 0.75), (0.375, 0.75), (0.375, 0.75), (0.625, 0.75), (0.625, 1), (0.375, 1), (0.125, 0.625), (0.375, 0.625), (0.375, 0.75), (0.125, 0.75), (0.625, 0.625), (0.87500006, 0.625), (0.875, 0.75), (0.625, 0.75), (0.125, 0.625), (0.125, 0.75), (0.125, 0.75), (0.125, 0.625), (0.87500006, 0.625), (0.875, 0.5), (0.875, 0.5), (0.875, 0.625), (0.375, 1), (0.625, 1), (0.625, 1), (0.375, 1), (0.625, 0.25), (0.375, 0.25), (0.375, 0.25), (0.625, 0.25), (0.375, 1), (0.625, 1), (0.625, 1), (0.375, 1), (0.375, 1), (0.625, 1), (0.625, 1), (0.375, 1), (0.375, 1), (0.625, 1), (0.625, 1), (0.375, 1), (0.375, 1), (0.625, 1), (0.625, 1), (0.375, 1), (0.375, 1), (0.625, 1), (0.625, 1), (0.375, 1), (0.375, 1), (0.625, 1), (0.625, 1), (0.375, 1), (0.375, 1), (0.625, 1), (0.625, 1), (0.375, 1), (0.375, 0), (0.625, 0), (0.625, 0.013200621), (0.375, 0.013200626), (0.375, 0.013200626), (0.625, 0.013200621), (0.625, 0.016407175), (0.375, 0.016407147), (0.375, 0.016407147), (0.625, 0.016407175), (0.625, 0.019848306), (0.375, 0.019848287), (0.375, 0.019848287), (0.625, 0.019848306), (0.625, 0.023480743), (0.375, 0.023480728), (0.375, 0.023480728), (0.625, 0.023480743), (0.625, 0.027258798), (0.375, 0.027258784), (0.375, 0.027258784), (0.625, 0.027258798), (0.625, 0.03113496), (0.375, 0.031134933), (0.375, 0.031134933), (0.625, 0.03113496), (0.625, 0.035060506), (0.375, 0.035060495), (0.625, 0.25), (0.375, 0.25), (0.375, 0.25), (0.625, 0.25), (0.625, 0.25), (0.375, 0.25), (0.375, 0.25), (0.625, 0.25), (0.625, 0.25), (0.375, 0.25), (0.375, 0.25), (0.625, 0.25), (0.625, 0.25), (0.375, 0.25), (0.375, 0.25), (0.625, 0.25), (0.625, 0.25), (0.375, 0.25), (0.375, 0.25), (0.625, 0.25), (0.625, 0.25), (0.375, 0.25), (0.375, 0.25), (0.625, 0.25), (0.625, 0.25), (0.375, 0.25), (0.375, 0.25), (0.625, 0.25), (0.625, 0.25), (0.375, 0.25), (0.375, 0.23679936), (0.625, 0.23679937), (0.625, 0.23679937), (0.375, 0.23679936), (0.375, 0.2335928), (0.625, 0.2335928), (0.625, 0.2335928), (0.375, 0.2335928), (0.375, 0.23015167), (0.625, 0.23015168), (0.625, 0.23015168), (0.375, 0.23015167), (0.375, 0.22651923), (0.625, 0.22651926), (0.625, 0.22651926), (0.375, 0.22651923), (0.375, 0.22274117), (0.625, 0.22274117), (0.625, 0.22274117), (0.375, 0.22274117), (0.37499997, 0.218865), (0.625, 0.21886502), (0.625, 0.21886502), (0.37499997, 0.218865), (0.375, 0.21493949), (0.625, 0.2149395), (0.625, 0.25), (0.375, 0.25), (0.375, 0.25), (0.625, 0.25), (0.375, 1), (0.625, 1), (0.625, 1), (0.375, 1), (0.875, 0.75), (0.87500006, 0.625), (0.875, 0.625), (0.875, 0.75), (0.125, 0.5), (0.125, 0.625), (0.125, 0.625), (0.125, 0.5), (0.625, 0.5), (0.875, 0.5), (0.87500006, 0.625), (0.625, 0.625), (0.125, 0.5), (0.375, 0.5), (0.375, 0.625), (0.125, 0.625), (0.375, 0.5), (0.625, 0.5), (0.625, 0.625), (0.375, 0.625), (0.625, 0.19962235), (0.375, 0.19962233), (0.375, 0.19741419), (0.625, 0.19741419), (0.625, 0.19741419), (0.375, 0.19741419), (0.375, 0.19505356), (0.625, 0.19505359), (0.625, 0.19505359), (0.375, 0.19505356), (0.375, 0.19263123), (0.625, 0.19263126), (0.625, 0.19263126), (0.375, 0.19263123), (0.375, 0.18891186), (0.625, 0.18891189), (0.625, 0.18891189), (0.375, 0.18891186), (0.375, 0.1877813), (0.625, 0.18778132), (0.625, 0.18778132), (0.375, 0.1877813), (0.375, 0.18704501), (0.625, 0.18704502), (0.625, 0.18704502), (0.375, 0.18704501), (0.37499997, 0.18632744), (0.625, 0.18632749), (0.625, 0.18632749), (0.37499997, 0.18632744), (0.375, 0.18565625), (0.625, 0.18565628), (0.375, 0.050377652), (0.625, 0.05037766), (0.625, 0.052585818), (0.375, 0.05258581), (0.375, 0.05258581), (0.625, 0.052585818), (0.625, 0.054946415), (0.375, 0.054946415), (0.375, 0.054946415), (0.625, 0.054946415), (0.625, 0.05736875), (0.375, 0.057368744), (0.375, 0.057368744), (0.625, 0.05736875), (0.625, 0.06108813), (0.375, 0.06108812), (0.375, 0.06108812), (0.625, 0.06108813), (0.625, 0.062218685), (0.375, 0.062218677), (0.375, 0.062218677), (0.625, 0.062218685), (0.625, 0.062954985), (0.375, 0.06295498), (0.375, 0.06295498), (0.625, 0.062954985), (0.625, 0.06367253), (0.375, 0.06367252), (0.375, 0.06367252), (0.625, 0.06367253), (0.625, 0.064343736), (0.375, 0.06434372), (0.375, 0.035060495), (0.625, 0.035060506), (0.625, 0.05037766), (0.375, 0.050377652), (0.375, 0.19962233), (0.625, 0.19962235), (0.625, 0.2149395), (0.375, 0.21493949), (0.375, 0.07262382), (0.625, 0.072623834), (0.625, 0.07319759), (0.375, 0.07319757), (0.375, 0.07319757), (0.625, 0.07319759), (0.625, 0.07381095), (0.375, 0.073810935), (0.375, 0.073810935), (0.625, 0.07381095), (0.625, 0.07444035), (0.375, 0.07444033), (0.375, 0.07444033), (0.625, 0.07444035), (0.625, 0.075406775), (0.375, 0.07540676), (0.375, 0.07540676), (0.625, 0.075406775), (0.625, 0.0796969), (0.375, 0.07969688), (0.375, 0.07969688), (0.625, 0.0796969), (0.62500006, 0.08249095), (0.375, 0.082490936), (0.375, 0.082490936), (0.62500006, 0.08249095), (0.625, 0.08521381), (0.375, 0.085213795), (0.375, 0.085213795), (0.625, 0.08521381), (0.625, 0.08776081), (0.375, 0.087760806), (0.625, 0.17737618), (0.375, 0.17737615), (0.375, 0.1768024), (0.62500006, 0.17680243), (0.62500006, 0.17680243), (0.375, 0.1768024), (0.375, 0.17618904), (0.625, 0.17618906), (0.625, 0.17618906), (0.375, 0.17618904), (0.375, 0.17555964), (0.625, 0.17555967), (0.625, 0.17555967), (0.375, 0.17555964), (0.375, 0.17459321), (0.625, 0.17459324), (0.625, 0.17459324), (0.375, 0.17459321), (0.375, 0.17030309), (0.625, 0.17030312), (0.625, 0.17030312), (0.375, 0.17030309), (0.375, 0.16750905), (0.625, 0.16750905), (0.625, 0.16750905), (0.375, 0.16750905), (0.37499997, 0.16478619), (0.625, 0.16478622), (0.625, 0.16478622), (0.37499997, 0.16478619), (0.375, 0.16223916), (0.625, 0.1622392), (0.125, 0.5), (0.125, 0.625), (0.125, 0.75), (0.125, 0.75), (0.125, 0.7497795), (0.12499999, 0.74912095), (0.125, 0.7480325), (0.125, 0.74652785), (0.125, 0.74462605), (0.125, 0.742351), (0.125, 0.739731), (0.12499999, 0.7367993), (0.125, 0.73359287), (0.125, 0.73015165), (0.125, 0.7265193), (0.125, 0.7227412), (0.125, 0.71886504), (0.125, 0.7149395), (0.125, 0.6996223), (0.124999985, 0.697422), (0.12500003, 0.6950906), (0.12499999, 0.69274354), (0.12500001, 0.69058996), (0.12500003, 0.6888784), (0.125, 0.6875204), (0.124999985, 0.6864445), (0.125, 0.6856562), (0.125, 0.6773761), (0.12499997, 0.6767325), (0.124999985, 0.6759139), (0.12500001, 0.67489535), (0.12499993, 0.6733295), (0.12499997, 0.670718), (0.12499997, 0.66772014), (0.12499997, 0.6648383), (0.125, 0.66223913), (0.125, 0.58776087), (0.124999985, 0.58516157), (0.12499995, 0.5822796), (0.124999985, 0.57928205), (0.12499999, 0.57667005), (0.125, 0.5751045), (0.12499997, 0.57408565), (0.12499999, 0.5732675), (0.125, 0.57262385), (0.125, 0.56434375), (0.124999985, 0.5635552), (0.124999985, 0.5624793), (0.12499996, 0.5611216), (0.12499998, 0.5594099), (0.12500001, 0.55725646), (0.125, 0.5549096), (0.12500003, 0.55257785), (0.125, 0.55037767), (0.125, 0.5350605), (0.125, 0.53113496), (0.125, 0.5272588), (0.12499999, 0.5234807), (0.125, 0.51984835), (0.125, 0.5164072), (0.12499999, 0.51320064), (0.125, 0.510269), (0.125, 0.5076491), (0.125, 0.50537395), (0.12499999, 0.5034721), (0.125, 0.50196755), (0.125, 0.50087905), (0.125, 0.5002205), (0.125, 0.5), (0.375, 0.087760806), (0.625, 0.08776081), (0.625, 0.1622392), (0.375, 0.16223916), (0.625, 0.072623834), (0.375, 0.07262382), (0.375, 0.06434372), (0.625, 0.064343736), (0.625, 0.18565628), (0.375, 0.18565625), (0.375, 0.17737615), (0.625, 0.17737618), (0.875, 0.75), (0.875, 0.625), (0.875, 0.5), (0.875, 0.5), (0.87499994, 0.5002205), (0.875, 0.50087905), (0.875, 0.50196755), (0.87500006, 0.5034721), (0.875, 0.50537395), (0.875, 0.5076491), (0.875, 0.51026905), (0.87499994, 0.51320064), (0.875, 0.5164072), (0.875, 0.51984835), (0.875, 0.5234808), (0.875, 0.5272588), (0.87499994, 0.53113496), (0.875, 0.5350605), (0.875, 0.55037767), (0.87499976, 0.5525778), (0.8750002, 0.5549096), (0.8749999, 0.5572564), (0.8750001, 0.55941015), (0.87500024, 0.5611217), (0.8750001, 0.5624793), (0.8749998, 0.5635552), (0.875, 0.56434375), (0.875, 0.57262385), (0.8749999, 0.57326746), (0.8749999, 0.5740857), (0.875, 0.5751044), (0.8749997, 0.5766701), (0.8749997, 0.5792818), (0.8749999, 0.5822796), (0.8749998, 0.58516127), (0.875, 0.5877608), (0.875, 0.6622392), (0.87499994, 0.6648385), (0.875, 0.6677204), (0.875, 0.67071795), (0.8749999, 0.67332965), (0.87500006, 0.6748954), (0.8749999, 0.67591417), (0.87500024, 0.67673266), (0.875, 0.6773762), (0.875, 0.6856563), (0.8749997, 0.6864447), (0.87499994, 0.6875207), (0.8749999, 0.6888783), (0.87499976, 0.69058996), (0.87500006, 0.69274384), (0.87500006, 0.69509053), (0.875, 0.6974223), (0.875, 0.6996224), (0.875, 0.71493953), (0.875, 0.71886504), (0.875, 0.7227412), (0.875, 0.7265192), (0.875, 0.73015165), (0.87500006, 0.73359287), (0.87499994, 0.7367993), (0.87500006, 0.7397311), (0.8750001, 0.742351), (0.875, 0.74462605), (0.875, 0.7465279), (0.875, 0.74803257), (0.875, 0.74912095), (0.8749999, 0.74977946), (0.875, 0.75)] (
                    interpolation = "faceVarying"
                )
                rel skel:skeleton = </roboticArm/Rig/Armature>
                matrix4d xformOp:transform = ( (1, 0, 0, 0), (0, 1, 0, 0), (0, 0, 1, 0), (-111.08174324035645, -0.0000032906733338222693, 149.74873065948486, 1) )
                uniform token[] xformOpOrder = ["xformOp:transform"]
            }

            def Mesh "handleL" (
                prepend apiSchemas = ["SkelBindingAPI"]
            )
            {
                int[] faceVertexCounts = [4, 4, 4, 4, 4, 4, 4, 4, 4, 4, 4, 4, 4, 4, 4, 4, 4, 4, 4, 4, 20, 4, 4, 20, 4, 4, 4, 4, 4, 4, 4, 4, 4, 4, 10, 4, 4, 10, 3, 3, 3, 3, 3, 3, 3, 3, 3, 3, 3, 3, 3, 3, 4, 4, 4, 4, 4, 4, 4, 5, 5, 4, 4, 5, 5]
                int[] faceVertexIndices = [3, 4, 5, 2, 2, 5, 7, 0, 1, 6, 4, 3, 0, 7, 6, 1, 35, 37, 34, 27, 37, 38, 33, 34, 38, 39, 32, 33, 39, 40, 31, 32, 40, 41, 30, 31, 41, 42, 29, 30, 42, 43, 28, 29, 43, 36, 26, 28, 17, 19, 16, 9, 19, 20, 15, 16, 20, 21, 14, 15, 21, 22, 13, 14, 22, 23, 12, 13, 23, 24, 11, 12, 24, 25, 10, 11, 25, 18, 8, 10, 2, 0, 9, 16, 15, 14, 13, 12, 11, 10, 8, 27, 34, 33, 32, 31, 30, 29, 28, 26, 27, 8, 18, 35, 9, 0, 1, 17, 35, 18, 25, 24, 23, 22, 21, 20, 19, 17, 1, 3, 36, 43, 42, 41, 40, 39, 38, 37, 2, 26, 36, 3, 50, 44, 45, 51, 4, 47, 46, 5, 47, 50, 51, 46, 59, 61, 58, 53, 61, 62, 57, 58, 62, 63, 56, 57, 63, 64, 55, 56, 64, 65, 54, 55, 65, 60, 52, 54, 49, 53, 58, 57, 56, 55, 54, 52, 44, 50, 60, 45, 44, 52, 48, 59, 53, 49, 51, 45, 60, 65, 64, 63, 62, 61, 59, 48, 66, 68, 69, 69, 68, 70, 70, 68, 71, 71, 68, 72, 72, 68, 73, 73, 68, 74, 74, 68, 67, 75, 77, 78, 78, 77, 79, 79, 77, 80, 80, 77, 81, 81, 77, 82, 82, 77, 83, 83, 77, 76, 75, 78, 74, 67, 78, 79, 73, 74, 79, 80, 72, 73, 80, 81, 71, 72, 81, 82, 70, 71, 82, 83, 69, 70, 83, 76, 66, 69, 5, 46, 68, 66, 7, 46, 51, 48, 67, 68, 7, 66, 76, 6, 67, 48, 49, 75, 6, 76, 77, 47, 4, 75, 49, 50, 47, 77]
                point3f[] points = [(1.4443398, 1.4443331, 1.0815501), (1.4443398, 1.4443331, -1.081574), (1.4443398, -1.4443331, 1.0815501), (1.4443398, -1.4443331, -1.081574), (4.741895, -0.7070735, -1.081574), (4.741895, -0.7070735, 1.0815501), (4.741895, 1.4443331, -1.081574), (4.741895, 1.4443331, 1.0815501), (-1.4443159, 0.45273042, 1.0815501), (-0.4527134, 1.4443331, 1.0815501), (-1.4252625, 0.64618254, 1.0815501), (-1.3688345, 0.83220035, 1.0815501), (-1.2772006, 1.0036353, 1.0815501), (-1.1538823, 1.1538993, 1.0815501), (-1.0036181, 1.2772179, 1.0815501), (-0.8321831, 1.3688518, 1.0815501), (-0.6461653, 1.4252796, 1.0815501), (-0.4527135, 1.4443331, -1.081574), (-1.4443159, 0.45273042, -1.081574), (-0.64616555, 1.4252796, -1.081574), (-0.8321833, 1.3688518, -1.081574), (-1.0036184, 1.2772179, -1.081574), (-1.1538823, 1.1538993, -1.081574), (-1.2772008, 1.0036353, -1.081574), (-1.3688346, 0.83220035, -1.081574), (-1.4252626, 0.64618254, -1.081574), (-0.4527135, -1.4443331, 1.0815501), (-1.4443159, -0.45273042, 1.0815501), (-0.64616555, -1.4252796, 1.0815501), (-0.8321833, -1.3688518, 1.0815501), (-1.0036184, -1.2772179, 1.0815501), (-1.1538823, -1.1538993, 1.0815501), (-1.2772008, -1.0036353, 1.0815501), (-1.3688346, -0.83220035, 1.0815501), (-1.4252626, -0.64618254, 1.0815501), (-1.4443159, -0.45273042, -1.081574), (-0.4527134, -1.4443331, -1.081574), (-1.4252625, -0.64618254, -1.081574), (-1.3688345, -0.83220035, -1.081574), (-1.2772006, -1.0036353, -1.081574), (-1.1538823, -1.1538993, -1.081574), (-1.0036181, -1.2772179, -1.081574), (-0.8321831, -1.3688518, -1.081574), (-0.6461653, -1.4252796, -1.081574), (21.445894, 4.8424544, -1.081574), (21.445894, 4.8424544, 1.0815501), (11.44238, -3.058947, 1.0815501), (11.44238, -3.058947, -1.081574), (14.211517, 3.7117906, 1.0815501), (14.211517, 3.7117906, -1.081574), (17.654867, 3.336053, -1.081574), (17.654867, 3.336053, 1.0815501), (16.400316, 4.8424544, -1.081574), (14.734334, 4.1927304, -1.081574), (16.127865, 4.8203154, -1.081574), (15.825849, 4.755408, -1.081574), (15.514846, 4.652155, -1.081574), (15.216056, 4.5175924, -1.081574), (14.949838, 4.3608913, -1.081574), (14.734334, 4.1927304, 1.0815501), (16.400316, 4.8424544, 1.0815501), (14.949838, 4.3608913, 1.0815501), (15.216056, 4.5175924, 1.0815501), (15.514846, 4.652155, 1.0815501), (15.825849, 4.755408, 1.0815501), (16.127865, 4.8203154, 1.0815501), (8.530388, 0.4459488, 1.0815501), (11.447474, 1.1691381, 1.0815501), (10.918331, -1.5394604, 1.0815501), (8.930581, 0.3778916, 1.0815501), (9.373922, 0.37139934, 1.0815501), (9.838181, 0.42679766, 1.0815501), (10.3000765, 0.5413087, 1.0815501), (10.736449, 0.7091903, 1.0815501), (11.125417, 0.92202425, 1.0815501), (11.447474, 1.1691382, -1.081574), (8.530388, 0.44594878, -1.081574), (10.918331, -1.5394604, -1.081574), (11.125417, 0.92202425, -1.081574), (10.736449, 0.70919025, -1.081574), (10.3000765, 0.54130864, -1.081574), (9.838181, 0.42679757, -1.081574), (9.373922, 0.37139925, -1.081574), (8.930581, 0.37789148, -1.081574)]
                matrix4d primvars:skel:geomBindTransform = ( (-1, 0, -8.742277657347586e-8, 0), (0, 1, 0, 0), (8.742277657347586e-8, 0, -1, 0), (-121.03700637817383, -5.034394562244415, 149.76130723953247, 1) )
                int[] primvars:skel:jointIndices = [5, 0, 0, 0, 5, 0, 0, 0, 5, 0, 0, 0, 5, 0, 0, 0, 5, 0, 0, 0, 5, 0, 0, 0, 5, 0, 0, 0, 5, 0, 0, 0, 5, 0, 0, 0, 5, 0, 0, 0, 5, 0, 0, 0, 5, 0, 0, 0, 5, 0, 0, 0, 5, 0, 0, 0, 5, 0, 0, 0, 5, 0, 0, 0, 5, 0, 0, 0, 5, 0, 0, 0, 5, 0, 0, 0, 5, 0, 0, 0, 5, 0, 0, 0, 5, 0, 0, 0, 5, 0, 0, 0, 5, 0, 0, 0, 5, 0, 0, 0, 5, 0, 0, 0, 5, 0, 0, 0, 5, 0, 0, 0, 5, 0, 0, 0, 5, 0, 0, 0, 5, 0, 0, 0, 5, 0, 0, 0, 5, 0, 0, 0, 5, 0, 0, 0, 5, 0, 0, 0, 5, 0, 0, 0, 5, 0, 0, 0, 5, 0, 0, 0, 5, 0, 0, 0, 5, 0, 0, 0, 5, 0, 0, 0, 5, 0, 0, 0, 5, 0, 0, 0, 5, 0, 0, 0, 5, 0, 0, 0, 5, 0, 0, 0, 5, 0, 0, 0, 5, 0, 0, 0, 5, 0, 0, 0, 5, 0, 0, 0, 5, 0, 0, 0, 5, 0, 0, 0, 5, 0, 0, 0, 5, 0, 0, 0, 5, 0, 0, 0, 5, 0, 0, 0, 5, 0, 0, 0, 5, 0, 0, 0, 5, 0, 0, 0, 5, 0, 0, 0, 5, 0, 0, 0, 5, 0, 0, 0, 5, 0, 0, 0, 5, 0, 0, 0, 5, 0, 0, 0, 5, 0, 0, 0, 5, 0, 0, 0, 5, 0, 0, 0, 5, 0, 0, 0, 5, 0, 0, 0, 5, 0, 0, 0, 5, 0, 0, 0, 5, 0, 0, 0, 5, 0, 0, 0, 5, 0, 0, 0, 5, 0, 0, 0, 5, 0, 0, 0, 5, 0, 0, 0, 5, 0, 0, 0, 5, 0, 0, 0, 5, 0, 0, 0, 5, 0, 0, 0, 5, 0, 0, 0, 5, 0, 0, 0] (
                    elementSize = 4
                    interpolation = "vertex"
                )
                float[] primvars:skel:jointWeights = [1, 0, 0, 0, 1, 0, 0, 0, 1, 0, 0, 0, 1, 0, 0, 0, 1, 0, 0, 0, 1, 0, 0, 0, 1, 0, 0, 0, 1, 0, 0, 0, 1, 0, 0, 0, 1, 0, 0, 0, 1, 0, 0, 0, 1, 0, 0, 0, 1, 0, 0, 0, 1, 0, 0, 0, 1, 0, 0, 0, 1, 0, 0, 0, 1, 0, 0, 0, 1, 0, 0, 0, 1, 0, 0, 0, 1, 0, 0, 0, 1, 0, 0, 0, 1, 0, 0, 0, 1, 0, 0, 0, 1, 0, 0, 0, 1, 0, 0, 0, 1, 0, 0, 0, 1, 0, 0, 0, 1, 0, 0, 0, 1, 0, 0, 0, 1, 0, 0, 0, 1, 0, 0, 0, 1, 0, 0, 0, 1, 0, 0, 0, 1, 0, 0, 0, 1, 0, 0, 0, 1, 0, 0, 0, 1, 0, 0, 0, 1, 0, 0, 0, 1, 0, 0, 0, 1, 0, 0, 0, 1, 0, 0, 0, 1, 0, 0, 0, 1, 0, 0, 0, 1, 0, 0, 0, 1, 0, 0, 0, 1, 0, 0, 0, 1, 0, 0, 0, 1, 0, 0, 0, 1, 0, 0, 0, 1, 0, 0, 0, 1, 0, 0, 0, 1, 0, 0, 0, 1, 0, 0, 0, 1, 0, 0, 0, 1, 0, 0, 0, 1, 0, 0, 0, 1, 0, 0, 0, 1, 0, 0, 0, 1, 0, 0, 0, 1, 0, 0, 0, 1, 0, 0, 0, 1, 0, 0, 0, 1, 0, 0, 0, 1, 0, 0, 0, 1, 0, 0, 0, 1, 0, 0, 0, 1, 0, 0, 0, 1, 0, 0, 0, 1, 0, 0, 0, 1, 0, 0, 0, 1, 0, 0, 0, 1, 0, 0, 0, 1, 0, 0, 0, 1, 0, 0, 0, 1, 0, 0, 0, 1, 0, 0, 0, 1, 0, 0, 0, 1, 0, 0, 0, 1, 0, 0, 0, 1, 0, 0, 0, 1, 0, 0, 0, 1, 0, 0, 0, 1, 0, 0, 0, 1, 0, 0, 0] (
                    elementSize = 4
                    interpolation = "vertex"
                )
                texCoord2f[] primvars:st = [(0.625, 0.25), (0.625, 0.25), (0.375, 0.25), (0.375, 0.25), (0.125, 0.5), (0.125, 0.5), (0.125, 0.75), (0.125, 0.75), (0.875, 0.75), (0.875, 0.75), (0.875, 0.5), (0.875, 0.5), (0.375, 1), (0.375, 1), (0.625, 1), (0.625, 1), (0.625, 0.5858184), (0.6255497, 0.56907606), (0.3744504, 0.56907606), (0.375, 0.5858184), (0.6255497, 0.56907606), (0.62717754, 0.5529771), (0.3728225, 0.5529771), (0.3744504, 0.56907606), (0.62717754, 0.5529771), (0.62982106, 0.53814024), (0.370179, 0.53814024), (0.3728225, 0.5529771), (0.62982106, 0.53814024), (0.6333786, 0.5083785), (0.36662143, 0.50837857), (0.370179, 0.53814024), (0.6333786, 0.5083785), (0.6377135, 0.47939414), (0.36228657, 0.47939414), (0.36662143, 0.50837857), (0.6377135, 0.47939414), (0.6426591, 0.46685934), (0.3573409, 0.4668593), (0.36228657, 0.47939414), (0.6426591, 0.46685934), (0.64802545, 0.45449877), (0.3519746, 0.45449883), (0.3573409, 0.4668593), (0.64802545, 0.45449877), (0.6536063, 0.44278753), (0.3463938, 0.4427876), (0.3519746, 0.45449883), (0.6536063, 0.8072125), (0.64802545, 0.79550123), (0.35197458, 0.79550123), (0.3463938, 0.80721253), (0.64802545, 0.79550123), (0.6426591, 0.78314066), (0.3573409, 0.7831408), (0.35197458, 0.79550123), (0.6426591, 0.78314066), (0.63771343, 0.7706059), (0.36228654, 0.7706059), (0.3573409, 0.7831408), (0.63771343, 0.7706059), (0.63337857, 0.74162143), (0.36662143, 0.7416215), (0.36228654, 0.7706059), (0.63337857, 0.74162143), (0.62982106, 0.7118597), (0.370179, 0.7118598), (0.36662143, 0.7416215), (0.62982106, 0.7118597), (0.62717754, 0.6970229), (0.37282246, 0.6970229), (0.370179, 0.7118598), (0.62717754, 0.6970229), (0.6255497, 0.68092394), (0.37445033, 0.68092394), (0.37282246, 0.6970229), (0.6255497, 0.68092394), (0.625, 0.6641816), (0.375, 0.66418165), (0.37445033, 0.68092394), (0.125, 0.5), (0.125, 0.75), (0.3463938, 0.80721253), (0.35197458, 0.79550123), (0.3573409, 0.7831408), (0.36228654, 0.7706059), (0.36662143, 0.7416215), (0.370179, 0.7118598), (0.37282246, 0.6970229), (0.37445033, 0.68092394), (0.375, 0.66418165), (0.375, 0.5858184), (0.3744504, 0.56907606), (0.3728225, 0.5529771), (0.370179, 0.53814024), (0.36662143, 0.50837857), (0.36228657, 0.47939414), (0.3573409, 0.4668593), (0.3519746, 0.45449883), (0.3463938, 0.4427876), (0.375, 0.5858184), (0.375, 0.66418165), (0.625, 0.6641816), (0.625, 0.5858184), (0.3463938, 0.80721253), (0.375, 1), (0.625, 1), (0.6536063, 0.8072125), (0.625, 0.5858184), (0.625, 0.6641816), (0.6255497, 0.68092394), (0.62717754, 0.6970229), (0.62982106, 0.7118597), (0.63337857, 0.74162143), (0.63771343, 0.7706059), (0.6426591, 0.78314066), (0.64802545, 0.79550123), (0.6536063, 0.8072125), (0.875, 0.75), (0.875, 0.5), (0.6536063, 0.44278753), (0.64802545, 0.45449877), (0.6426591, 0.46685934), (0.6377135, 0.47939414), (0.6333786, 0.5083785), (0.62982106, 0.53814024), (0.62717754, 0.5529771), (0.6255497, 0.56907606), (0.375, 0.25), (0.3463938, 0.4427876), (0.6536063, 0.44278753), (0.625, 0.25), (0.625, 0.25), (0.625, 0.25), (0.375, 0.25), (0.375, 0.25), (0.625, 0.25), (0.625, 0.25), (0.375, 0.25), (0.375, 0.25), (0.625, 0.25), (0.625, 0.25), (0.375, 0.25), (0.375, 0.25), (0.375, 1), (0.375, 1), (0.625, 1), (0.625, 1), (0.375, 1), (0.375, 1), (0.625, 1), (0.625, 1), (0.375, 1), (0.375, 1), (0.625, 1), (0.625, 1), (0.375, 0), (0.375, 0.016036645), (0.625, 0.016036656), (0.625, 0), (0.375, 0.016036645), (0.375, 0.028609648), (0.625, 0.028609658), (0.625, 0.016036656), (0.375, 0.028609648), (0.375, 0.039951846), (0.625, 0.039951846), (0.625, 0.028609658), (0.875, 0.7499838), (0.875, 0.7499907), (0.875, 0.7480061), (0.875, 0.7422979), (0.8749999, 0.7342806), (0.875, 0.72735286), (0.87500006, 0.7195999), (0.875, 0.7100482), (0.875, 0.5), (0.875, 0.5000117), (0.375, 0.039951846), (0.375, 0.25), (0.625, 0.25), (0.625, 0.039951846), (0.375, 1), (0.375, 1), (0.625, 1), (0.625, 1), (0.125, 0.50001174), (0.125, 0.5), (0.125, 0.7100482), (0.125, 0.7195999), (0.125, 0.7273529), (0.125, 0.73428065), (0.125, 0.7422979), (0.12499999, 0.7480061), (0.125, 0.7499907), (0.125, 0.7499838), (0.125, 0.75), (0.125, 0.6619035), (0.12500001, 0.83094317), (0.12500001, 0.83094317), (0.125, 0.6619035), (0.124999985, 0.807747), (0.124999985, 0.807747), (0.125, 0.6619035), (0.125, 0.74999994), (0.125, 0.74999994), (0.125, 0.6619035), (0.125, 0.74999875), (0.125, 0.74999875), (0.125, 0.6619035), (0.125, 0.7499974), (0.125, 0.7499974), (0.125, 0.6619035), (0.125, 0.7499961), (0.125, 0.7499961), (0.125, 0.6619035), (0.125, 0.74999493), (0.87500006, 0.749995), (0.875, 0.6619035), (0.87500006, 0.752335), (0.87500006, 0.752335), (0.87500006, 0.6619035), (0.8750001, 0.75913906), (0.8750001, 0.75913906), (0.87500006, 0.6619035), (0.87500006, 0.7499987), (0.87500006, 0.7499987), (0.87500006, 0.6619035), (0.875, 0.75), (0.875, 0.75), (0.87500006, 0.6619035), (0.87500006, 0.75000006), (0.87500006, 0.75000006), (0.87500006, 0.6619035), (0.87500006, 0.75000006), (0.87500006, 0.75000006), (0.87500006, 0.6619035), (0.87500006, 0.75000006), (0.625, 1), (0.625, 1), (0.375, 1), (0.375, 1), (0.625, 1), (0.625, 1), (0.375, 1), (0.375, 1), (0.625, 1), (0.625, 1), (0.375, 1), (0.375, 1), (0.625, 1), (0.625, 1), (0.375, 1), (0.375, 1), (0.625, 1), (0.625, 1), (0.375, 1), (0.375, 1), (0.625, 1), (0.625, 1), (0.37500003, 1), (0.375, 1), (0.625, 1), (0.625, 1), (0.375, 1), (0.37500003, 1), (0.125, 0.5), (0.125, 0.5), (0.125, 0.6619035), (0.125, 0.75), (0.125, 0.75), (0.125, 0.5), (0.125, 0.50001174), (0.125, 0.7499838), (0.125, 0.74999493), (0.125, 0.6619035), (0.375, 1), (0.375, 1), (0.625, 1), (0.625, 1), (0.375, 1), (0.375, 1), (0.625, 1), (0.625, 1), (0.875, 0.75), (0.875, 0.75000006), (0.875, 0.6619035), (0.875, 0.5), (0.875, 0.5), (0.87500006, 0.749995), (0.875, 0.7499838), (0.875, 0.5000117), (0.875, 0.5), (0.875, 0.6619035)] (
                    interpolation = "faceVarying"
                )
                rel skel:skeleton = </roboticArm/Rig/Armature>
                matrix4d xformOp:transform = ( (-1, 0, -8.742277657347586e-8, 0), (0, 1, 0, 0), (8.742277657347586e-8, 0, -1, 0), (-121.03700637817383, -5.034394562244415, 149.76130723953247, 1) )
                uniform token[] xformOpOrder = ["xformOp:transform"]
            }

            def Mesh "handleR" (
                prepend apiSchemas = ["SkelBindingAPI"]
            )
            {
                int[] faceVertexCounts = [4, 4, 4, 4, 4, 4, 4, 4, 4, 4, 4, 4, 4, 4, 4, 4, 4, 4, 4, 4, 20, 4, 4, 20, 4, 4, 4, 4, 4, 4, 4, 4, 4, 4, 10, 4, 4, 10, 3, 3, 3, 3, 3, 3, 3, 3, 3, 3, 3, 3, 3, 3, 4, 4, 4, 4, 4, 4, 4, 5, 5, 4, 4, 5, 5]
                int[] faceVertexIndices = [3, 2, 5, 4, 2, 0, 7, 5, 1, 3, 4, 6, 0, 1, 6, 7, 35, 27, 34, 37, 37, 34, 33, 38, 38, 33, 32, 39, 39, 32, 31, 40, 40, 31, 30, 41, 41, 30, 29, 42, 42, 29, 28, 43, 43, 28, 26, 36, 17, 9, 16, 19, 19, 16, 15, 20, 20, 15, 14, 21, 21, 14, 13, 22, 22, 13, 12, 23, 23, 12, 11, 24, 24, 11, 10, 25, 25, 10, 8, 18, 2, 26, 28, 29, 30, 31, 32, 33, 34, 27, 8, 10, 11, 12, 13, 14, 15, 16, 9, 0, 27, 35, 18, 8, 9, 17, 1, 0, 35, 37, 38, 39, 40, 41, 42, 43, 36, 3, 1, 17, 19, 20, 21, 22, 23, 24, 25, 18, 2, 3, 36, 26, 50, 51, 45, 44, 4, 5, 46, 47, 47, 46, 51, 50, 59, 53, 58, 61, 61, 58, 57, 62, 62, 57, 56, 63, 63, 56, 55, 64, 64, 55, 54, 65, 65, 54, 52, 60, 49, 50, 44, 52, 54, 55, 56, 57, 58, 53, 60, 52, 44, 45, 48, 49, 53, 59, 51, 48, 59, 61, 62, 63, 64, 65, 60, 45, 66, 69, 68, 69, 70, 68, 70, 71, 68, 71, 72, 68, 72, 73, 68, 73, 74, 68, 74, 67, 68, 75, 78, 77, 78, 79, 77, 79, 80, 77, 80, 81, 77, 81, 82, 77, 82, 83, 77, 83, 76, 77, 75, 67, 74, 78, 78, 74, 73, 79, 79, 73, 72, 80, 80, 72, 71, 81, 81, 71, 70, 82, 82, 70, 69, 83, 83, 69, 66, 76, 5, 7, 66, 68, 46, 46, 68, 67, 48, 51, 7, 6, 76, 66, 67, 75, 49, 48, 6, 4, 47, 77, 76, 75, 77, 47, 50, 49]
                point3f[] points = [(-1.4443398, -1.4443331, -1.0815501), (-1.4443398, -1.4443331, 1.081574), (-1.4443398, 1.4443331, -1.0815501), (-1.4443398, 1.4443331, 1.081574), (-4.741895, 0.7070735, 1.081574), (-4.741895, 0.7070735, -1.0815501), (-4.741895, -1.4443331, 1.081574), (-4.741895, -1.4443331, -1.0815501), (1.4443159, -0.45273042, -1.0815501), (0.4527134, -1.4443331, -1.0815501), (1.4252625, -0.64618254, -1.0815501), (1.3688345, -0.83220035, -1.0815501), (1.2772006, -1.0036353, -1.0815501), (1.1538823, -1.1538993, -1.0815501), (1.0036181, -1.2772179, -1.0815501), (0.8321831, -1.3688518, -1.0815501), (0.6461653, -1.4252796, -1.0815501), (0.4527135, -1.4443331, 1.081574), (1.4443159, -0.45273042, 1.081574), (0.64616555, -1.4252796, 1.081574), (0.8321833, -1.3688518, 1.081574), (1.0036184, -1.2772179, 1.081574), (1.1538823, -1.1538993, 1.081574), (1.2772008, -1.0036353, 1.081574), (1.3688346, -0.83220035, 1.081574), (1.4252626, -0.64618254, 1.081574), (0.4527135, 1.4443331, -1.0815501), (1.4443159, 0.45273042, -1.0815501), (0.64616555, 1.4252796, -1.0815501), (0.8321833, 1.3688518, -1.0815501), (1.0036184, 1.2772179, -1.0815501), (1.1538823, 1.1538993, -1.0815501), (1.2772008, 1.0036353, -1.0815501), (1.3688346, 0.83220035, -1.0815501), (1.4252626, 0.64618254, -1.0815501), (1.4443159, 0.45273042, 1.081574), (0.4527134, 1.4443331, 1.081574), (1.4252625, 0.64618254, 1.081574), (1.3688345, 0.83220035, 1.081574), (1.2772006, 1.0036353, 1.081574), (1.1538823, 1.1538993, 1.081574), (1.0036181, 1.2772179, 1.081574), (0.8321831, 1.3688518, 1.081574), (0.6461653, 1.4252796, 1.081574), (-21.445894, -4.8424544, 1.081574), (-21.445894, -4.8424544, -1.0815501), (-11.44238, 3.058947, -1.0815501), (-11.44238, 3.058947, 1.081574), (-14.211517, -3.7117906, -1.0815501), (-14.211517, -3.7117906, 1.081574), (-17.654867, -3.336053, 1.081574), (-17.654867, -3.336053, -1.0815501), (-16.400316, -4.8424544, 1.081574), (-14.734334, -4.1927304, 1.081574), (-16.127865, -4.8203154, 1.081574), (-15.825849, -4.755408, 1.081574), (-15.514846, -4.652155, 1.081574), (-15.216056, -4.5175924, 1.081574), (-14.949838, -4.3608913, 1.081574), (-14.734334, -4.1927304, -1.0815501), (-16.400316, -4.8424544, -1.0815501), (-14.949838, -4.3608913, -1.0815501), (-15.216056, -4.5175924, -1.0815501), (-15.514846, -4.652155, -1.0815501), (-15.825849, -4.755408, -1.0815501), (-16.127865, -4.8203154, -1.0815501), (-8.530388, -0.4459488, -1.0815501), (-11.447474, -1.1691381, -1.0815501), (-10.918331, 1.5394604, -1.0815501), (-8.930581, -0.3778916, -1.0815501), (-9.373922, -0.37139934, -1.0815501), (-9.838181, -0.42679766, -1.0815501), (-10.3000765, -0.5413087, -1.0815501), (-10.736449, -0.7091903, -1.0815501), (-11.125417, -0.92202425, -1.0815501), (-11.447474, -1.1691382, 1.081574), (-8.530388, -0.44594878, 1.081574), (-10.918331, 1.5394604, 1.081574), (-11.125417, -0.92202425, 1.081574), (-10.736449, -0.70919025, 1.081574), (-10.3000765, -0.54130864, 1.081574), (-9.838181, -0.42679757, 1.081574), (-9.373922, -0.37139925, 1.081574), (-8.930581, -0.37789148, 1.081574)]
                matrix4d primvars:skel:geomBindTransform = ( (1, 0, 0, 0), (0, 1, 0, 0), (0, 0, 1, 0), (-121.03700637817383, 5.034389346837997, 149.76130723953247, 1) )
                int[] primvars:skel:jointIndices = [4, 0, 0, 0, 4, 0, 0, 0, 4, 0, 0, 0, 4, 0, 0, 0, 4, 0, 0, 0, 4, 0, 0, 0, 4, 0, 0, 0, 4, 0, 0, 0, 4, 0, 0, 0, 4, 0, 0, 0, 4, 0, 0, 0, 4, 0, 0, 0, 4, 0, 0, 0, 4, 0, 0, 0, 4, 0, 0, 0, 4, 0, 0, 0, 4, 0, 0, 0, 4, 0, 0, 0, 4, 0, 0, 0, 4, 0, 0, 0, 4, 0, 0, 0, 4, 0, 0, 0, 4, 0, 0, 0, 4, 0, 0, 0, 4, 0, 0, 0, 4, 0, 0, 0, 4, 0, 0, 0, 4, 0, 0, 0, 4, 0, 0, 0, 4, 0, 0, 0, 4, 0, 0, 0, 4, 0, 0, 0, 4, 0, 0, 0, 4, 0, 0, 0, 4, 0, 0, 0, 4, 0, 0, 0, 4, 0, 0, 0, 4, 0, 0, 0, 4, 0, 0, 0, 4, 0, 0, 0, 4, 0, 0, 0, 4, 0, 0, 0, 4, 0, 0, 0, 4, 0, 0, 0, 4, 0, 0, 0, 4, 0, 0, 0, 4, 0, 0, 0, 4, 0, 0, 0, 4, 0, 0, 0, 4, 0, 0, 0, 4, 0, 0, 0, 4, 0, 0, 0, 4, 0, 0, 0, 4, 0, 0, 0, 4, 0, 0, 0, 4, 0, 0, 0, 4, 0, 0, 0, 4, 0, 0, 0, 4, 0, 0, 0, 4, 0, 0, 0, 4, 0, 0, 0, 4, 0, 0, 0, 4, 0, 0, 0, 4, 0, 0, 0, 4, 0, 0, 0, 4, 0, 0, 0, 4, 0, 0, 0, 4, 0, 0, 0, 4, 0, 0, 0, 4, 0, 0, 0, 4, 0, 0, 0, 4, 0, 0, 0, 4, 0, 0, 0, 4, 0, 0, 0, 4, 0, 0, 0, 4, 0, 0, 0, 4, 0, 0, 0, 4, 0, 0, 0, 4, 0, 0, 0, 4, 0, 0, 0, 4, 0, 0, 0, 4, 0, 0, 0, 4, 0, 0, 0, 4, 0, 0, 0] (
                    elementSize = 4
                    interpolation = "vertex"
                )
                float[] primvars:skel:jointWeights = [1, 0, 0, 0, 1, 0, 0, 0, 1, 0, 0, 0, 1, 0, 0, 0, 1, 0, 0, 0, 1, 0, 0, 0, 1, 0, 0, 0, 1, 0, 0, 0, 1, 0, 0, 0, 1, 0, 0, 0, 1, 0, 0, 0, 1, 0, 0, 0, 1, 0, 0, 0, 1, 0, 0, 0, 1, 0, 0, 0, 1, 0, 0, 0, 1, 0, 0, 0, 1, 0, 0, 0, 1, 0, 0, 0, 1, 0, 0, 0, 1, 0, 0, 0, 1, 0, 0, 0, 1, 0, 0, 0, 1, 0, 0, 0, 1, 0, 0, 0, 1, 0, 0, 0, 1, 0, 0, 0, 1, 0, 0, 0, 1, 0, 0, 0, 1, 0, 0, 0, 1, 0, 0, 0, 1, 0, 0, 0, 1, 0, 0, 0, 1, 0, 0, 0, 1, 0, 0, 0, 1, 0, 0, 0, 1, 0, 0, 0, 1, 0, 0, 0, 1, 0, 0, 0, 1, 0, 0, 0, 1, 0, 0, 0, 1, 0, 0, 0, 1, 0, 0, 0, 1, 0, 0, 0, 1, 0, 0, 0, 1, 0, 0, 0, 1, 0, 0, 0, 1, 0, 0, 0, 1, 0, 0, 0, 1, 0, 0, 0, 1, 0, 0, 0, 1, 0, 0, 0, 1, 0, 0, 0, 1, 0, 0, 0, 1, 0, 0, 0, 1, 0, 0, 0, 1, 0, 0, 0, 1, 0, 0, 0, 1, 0, 0, 0, 1, 0, 0, 0, 1, 0, 0, 0, 1, 0, 0, 0, 1, 0, 0, 0, 1, 0, 0, 0, 1, 0, 0, 0, 1, 0, 0, 0, 1, 0, 0, 0, 1, 0, 0, 0, 1, 0, 0, 0, 1, 0, 0, 0, 1, 0, 0, 0, 1, 0, 0, 0, 1, 0, 0, 0, 1, 0, 0, 0, 1, 0, 0, 0, 1, 0, 0, 0, 1, 0, 0, 0, 1, 0, 0, 0, 1, 0, 0, 0, 1, 0, 0, 0, 1, 0, 0, 0, 1, 0, 0, 0, 1, 0, 0, 0, 1, 0, 0, 0] (
                    elementSize = 4
                    interpolation = "vertex"
                )
                texCoord2f[] primvars:st = [(0.625, 0.25), (0.375, 0.25), (0.375, 0.25), (0.625, 0.25), (0.125, 0.5), (0.125, 0.75), (0.125, 0.75), (0.125, 0.5), (0.875, 0.75), (0.875, 0.5), (0.875, 0.5), (0.875, 0.75), (0.375, 1), (0.625, 1), (0.625, 1), (0.375, 1), (0.625, 0.5858184), (0.375, 0.5858184), (0.3744504, 0.56907606), (0.6255497, 0.56907606), (0.6255497, 0.56907606), (0.3744504, 0.56907606), (0.3728225, 0.5529771), (0.62717754, 0.5529771), (0.62717754, 0.5529771), (0.3728225, 0.5529771), (0.370179, 0.53814024), (0.62982106, 0.53814024), (0.62982106, 0.53814024), (0.370179, 0.53814024), (0.36662143, 0.50837857), (0.6333786, 0.5083785), (0.6333786, 0.5083785), (0.36662143, 0.50837857), (0.36228657, 0.47939414), (0.6377135, 0.47939414), (0.6377135, 0.47939414), (0.36228657, 0.47939414), (0.3573409, 0.4668593), (0.6426591, 0.46685934), (0.6426591, 0.46685934), (0.3573409, 0.4668593), (0.3519746, 0.45449883), (0.64802545, 0.45449877), (0.64802545, 0.45449877), (0.3519746, 0.45449883), (0.3463938, 0.4427876), (0.6536063, 0.44278753), (0.6536063, 0.8072125), (0.3463938, 0.80721253), (0.35197458, 0.79550123), (0.64802545, 0.79550123), (0.64802545, 0.79550123), (0.35197458, 0.79550123), (0.3573409, 0.7831408), (0.6426591, 0.78314066), (0.6426591, 0.78314066), (0.3573409, 0.7831408), (0.36228654, 0.7706059), (0.63771343, 0.7706059), (0.63771343, 0.7706059), (0.36228654, 0.7706059), (0.36662143, 0.7416215), (0.63337857, 0.74162143), (0.63337857, 0.74162143), (0.36662143, 0.7416215), (0.370179, 0.7118598), (0.62982106, 0.7118597), (0.62982106, 0.7118597), (0.370179, 0.7118598), (0.37282246, 0.6970229), (0.62717754, 0.6970229), (0.62717754, 0.6970229), (0.37282246, 0.6970229), (0.37445033, 0.68092394), (0.6255497, 0.68092394), (0.6255497, 0.68092394), (0.37445033, 0.68092394), (0.375, 0.66418165), (0.625, 0.6641816), (0.125, 0.5), (0.3463938, 0.4427876), (0.3519746, 0.45449883), (0.3573409, 0.4668593), (0.36228657, 0.47939414), (0.36662143, 0.50837857), (0.370179, 0.53814024), (0.3728225, 0.5529771), (0.3744504, 0.56907606), (0.375, 0.5858184), (0.375, 0.66418165), (0.37445033, 0.68092394), (0.37282246, 0.6970229), (0.370179, 0.7118598), (0.36662143, 0.7416215), (0.36228654, 0.7706059), (0.3573409, 0.7831408), (0.35197458, 0.79550123), (0.3463938, 0.80721253), (0.125, 0.75), (0.375, 0.5858184), (0.625, 0.5858184), (0.625, 0.6641816), (0.375, 0.66418165), (0.3463938, 0.80721253), (0.6536063, 0.8072125), (0.625, 1), (0.375, 1), (0.625, 0.5858184), (0.6255497, 0.56907606), (0.62717754, 0.5529771), (0.62982106, 0.53814024), (0.6333786, 0.5083785), (0.6377135, 0.47939414), (0.6426591, 0.46685934), (0.64802545, 0.45449877), (0.6536063, 0.44278753), (0.875, 0.5), (0.875, 0.75), (0.6536063, 0.8072125), (0.64802545, 0.79550123), (0.6426591, 0.78314066), (0.63771343, 0.7706059), (0.63337857, 0.74162143), (0.62982106, 0.7118597), (0.62717754, 0.6970229), (0.6255497, 0.68092394), (0.625, 0.6641816), (0.375, 0.25), (0.625, 0.25), (0.6536063, 0.44278753), (0.3463938, 0.4427876), (0.625, 0.25), (0.375, 0.25), (0.375, 0.25), (0.625, 0.25), (0.625, 0.25), (0.375, 0.25), (0.375, 0.25), (0.625, 0.25), (0.625, 0.25), (0.375, 0.25), (0.375, 0.25), (0.625, 0.25), (0.375, 1), (0.625, 1), (0.625, 1), (0.375, 1), (0.375, 1), (0.625, 1), (0.625, 1), (0.375, 1), (0.375, 1), (0.625, 1), (0.625, 1), (0.375, 1), (0.375, 0), (0.625, 0), (0.625, 0.016036656), (0.375, 0.016036645), (0.375, 0.016036645), (0.625, 0.016036656), (0.625, 0.028609658), (0.375, 0.028609648), (0.375, 0.028609648), (0.625, 0.028609658), (0.625, 0.039951846), (0.375, 0.039951846), (0.875, 0.7499838), (0.875, 0.5000117), (0.875, 0.5), (0.875, 0.7100482), (0.87500006, 0.7195999), (0.875, 0.72735286), (0.8749999, 0.7342806), (0.875, 0.7422979), (0.875, 0.7480061), (0.875, 0.7499907), (0.375, 0.039951846), (0.625, 0.039951846), (0.625, 0.25), (0.375, 0.25), (0.375, 1), (0.625, 1), (0.625, 1), (0.375, 1), (0.125, 0.50001174), (0.125, 0.7499838), (0.125, 0.7499907), (0.12499999, 0.7480061), (0.125, 0.7422979), (0.125, 0.73428065), (0.125, 0.7273529), (0.125, 0.7195999), (0.125, 0.7100482), (0.125, 0.5), (0.125, 0.75), (0.12500001, 0.83094317), (0.125, 0.6619035), (0.12500001, 0.83094317), (0.124999985, 0.807747), (0.125, 0.6619035), (0.124999985, 0.807747), (0.125, 0.74999994), (0.125, 0.6619035), (0.125, 0.74999994), (0.125, 0.74999875), (0.125, 0.6619035), (0.125, 0.74999875), (0.125, 0.7499974), (0.125, 0.6619035), (0.125, 0.7499974), (0.125, 0.7499961), (0.125, 0.6619035), (0.125, 0.7499961), (0.125, 0.74999493), (0.125, 0.6619035), (0.87500006, 0.749995), (0.87500006, 0.752335), (0.875, 0.6619035), (0.87500006, 0.752335), (0.8750001, 0.75913906), (0.87500006, 0.6619035), (0.8750001, 0.75913906), (0.87500006, 0.7499987), (0.87500006, 0.6619035), (0.87500006, 0.7499987), (0.875, 0.75), (0.87500006, 0.6619035), (0.875, 0.75), (0.87500006, 0.75000006), (0.87500006, 0.6619035), (0.87500006, 0.75000006), (0.87500006, 0.75000006), (0.87500006, 0.6619035), (0.87500006, 0.75000006), (0.87500006, 0.75000006), (0.87500006, 0.6619035), (0.625, 1), (0.375, 1), (0.375, 1), (0.625, 1), (0.625, 1), (0.375, 1), (0.375, 1), (0.625, 1), (0.625, 1), (0.375, 1), (0.375, 1), (0.625, 1), (0.625, 1), (0.375, 1), (0.375, 1), (0.625, 1), (0.625, 1), (0.375, 1), (0.375, 1), (0.625, 1), (0.625, 1), (0.375, 1), (0.37500003, 1), (0.625, 1), (0.625, 1), (0.37500003, 1), (0.375, 1), (0.625, 1), (0.125, 0.5), (0.125, 0.75), (0.125, 0.75), (0.125, 0.6619035), (0.125, 0.5), (0.125, 0.5), (0.125, 0.6619035), (0.125, 0.74999493), (0.125, 0.7499838), (0.125, 0.50001174), (0.375, 1), (0.625, 1), (0.625, 1), (0.375, 1), (0.375, 1), (0.625, 1), (0.625, 1), (0.375, 1), (0.875, 0.75), (0.875, 0.5), (0.875, 0.5), (0.875, 0.6619035), (0.875, 0.75000006), (0.87500006, 0.749995), (0.875, 0.6619035), (0.875, 0.5), (0.875, 0.5000117), (0.875, 0.7499838)] (
                    interpolation = "faceVarying"
                )
                rel skel:skeleton = </roboticArm/Rig/Armature>
                matrix4d xformOp:transform = ( (1, 0, 0, 0), (0, 1, 0, 0), (0, 0, 1, 0), (-121.03700637817383, 5.034389346837997, 149.76130723953247, 1) )
                uniform token[] xformOpOrder = ["xformOp:transform"]
            }
        }
    }
}

