#usda 1.0
(
    defaultPrim = "roboticArm"
    subLayers = [
        @handle_binding.usda@
    ]
)

def SkelRoot "roboticArm"
{
    def Scope "Geom"
    {
        def "render"
        {
            def Mesh "handleBox" (
                prepend apiSchemas = ["SkelBindingAPI"]
            )
            {
                int[] faceVertexCounts = [4, 4, 4, 4, 4, 4, 4, 4, 4, 4, 4, 4, 4, 4, 4, 4, 4, 4, 4, 4, 4, 4, 4, 4, 4, 4, 4, 4, 4, 4, 4, 4, 4, 4, 4, 4, 4, 4, 4, 4, 4, 4, 4, 4, 4, 4, 4, 4, 4, 4, 4, 4, 4, 4, 4, 4, 4, 4, 4, 4, 4, 4, 4, 4, 4, 4, 4, 4, 4, 4, 4, 4, 5, 4, 6, 6, 5, 4, 6, 6, 5, 5]
                int[] faceVertexIndices = [73, 24, 26, 48, 48, 26, 27, 49, 49, 27, 28, 50, 50, 28, 29, 51, 51, 29, 30, 52, 52, 30, 31, 53, 53, 31, 32, 54, 54, 32, 33, 55, 55, 33, 34, 56, 56, 34, 35, 57, 57, 35, 25, 58, 1, 25, 35, 11, 11, 35, 34, 10, 10, 34, 33, 9, 9, 33, 32, 8, 8, 32, 31, 7, 7, 31, 30, 6, 6, 30, 29, 5, 5, 29, 28, 4, 4, 28, 27, 3, 3, 27, 26, 2, 2, 26, 24, 0, 69, 70, 47, 45, 65, 66, 42, 41, 63, 64, 40, 39, 61, 62, 38, 37, 59, 60, 36, 46, 44, 45, 21, 20, 42, 43, 19, 18, 40, 41, 17, 16, 38, 39, 15, 14, 36, 37, 13, 12, 67, 68, 44, 43, 59, 1, 11, 60, 60, 11, 10, 61, 61, 10, 9, 62, 62, 9, 8, 63, 63, 8, 7, 64, 64, 7, 6, 65, 65, 6, 5, 66, 66, 5, 4, 67, 67, 4, 3, 68, 68, 3, 2, 69, 69, 2, 0, 70, 66, 67, 43, 42, 24, 73, 70, 0, 68, 69, 45, 44, 46, 36, 12, 22, 37, 38, 14, 13, 39, 40, 16, 15, 41, 42, 18, 17, 43, 44, 20, 19, 45, 47, 23, 21, 60, 61, 37, 36, 62, 63, 39, 38, 64, 65, 41, 40, 56, 57, 12, 13, 73, 48, 21, 23, 48, 49, 20, 21, 49, 50, 19, 20, 50, 51, 18, 19, 51, 52, 17, 18, 52, 53, 16, 17, 53, 54, 15, 16, 54, 55, 14, 15, 55, 56, 13, 14, 57, 58, 22, 12, 23, 47, 70, 73, 74, 77, 76, 75, 88, 87, 86, 89, 84, 83, 82, 85, 80, 79, 78, 81, 46, 75, 76, 71, 59, 87, 88, 77, 74, 86, 87, 74, 75, 46, 22, 76, 77, 88, 89, 72, 71, 1, 59, 71, 79, 80, 82, 81, 78, 85, 78, 79, 71, 72, 84, 85, 82, 83, 25, 1, 80, 81, 83, 84, 72, 58, 25, 86, 22, 58, 72, 89]
                point3f[] points = [(0.048906803, -0.005380713, -0.011271061), (0.011271061, -0.02334771, -0.048906803), (0.04852372, -0.007937682, -0.016627183), (0.047382288, -0.0104426, -0.021874271), (0.045505732, -0.012844472, -0.02690551), (0.04293226, -0.015094402, -0.031618476), (0.039714254, -0.017146591, -0.035917226), (0.035917226, -0.018959261, -0.039714254), (0.031618476, -0.020495512, -0.04293226), (0.02690551, -0.021724066, -0.045505732), (0.021874271, -0.022619918, -0.047382288), (0.016627183, -0.02316483, -0.04852372), (0.016627183, 0.02316483, 0.048523907), (0.021874271, 0.022619918, 0.04738248), (0.026905514, 0.021724066, 0.045505926), (0.031618476, 0.020495512, 0.04293245), (0.035917226, 0.018959261, 0.03971444), (0.039714254, 0.017146591, 0.035917416), (0.04293226, 0.015094402, 0.031618662), (0.045505736, 0.012844472, 0.026905697), (0.04738229, 0.010442599, 0.02187446), (0.04852372, 0.007937681, 0.01662737), (0.011271061, 0.02334771, 0.04890699), (0.048906803, 0.0053807115, 0.011271248), (0.048906803, 0.005380713, -0.011271061), (0.011271061, 0.02334771, -0.048906803), (0.04852372, 0.007937682, -0.016627183), (0.047382288, 0.0104426, -0.021874273), (0.045505732, 0.012844472, -0.02690551), (0.04293226, 0.015094402, -0.031618476), (0.039714254, 0.017146591, -0.035917226), (0.035917226, 0.018959261, -0.039714254), (0.031618476, 0.020495512, -0.04293226), (0.02690551, 0.021724066, -0.045505732), (0.021874271, 0.022619918, -0.047382288), (0.016627183, 0.02316483, -0.04852372), (0.016627183, -0.023164835, 0.048523907), (0.021874271, -0.022619922, 0.04738248), (0.026905514, -0.021724068, 0.045505926), (0.031618476, -0.02049551, 0.04293245), (0.035917226, -0.018959265, 0.03971444), (0.039714254, -0.017146595, 0.035917416), (0.04293226, -0.015094405, 0.031618662), (0.045505736, -0.012844476, 0.026905697), (0.04738229, -0.010442602, 0.02187446), (0.04852372, -0.007937682, 0.01662737), (0.011271061, -0.023347715, 0.04890699), (0.048906803, -0.0053807115, 0.011271248), (0.04852372, 0.007937681, 9.3282324e-8), (0.04738229, 0.0104426, 9.3282324e-8), (0.045505736, 0.012844472, 9.3282324e-8), (0.04293226, 0.015094402, 9.3282324e-8), (0.039714254, 0.017146591, 9.3282324e-8), (0.035917226, 0.018959261, 9.3282324e-8), (0.031618476, 0.020495512, 9.3282324e-8), (0.026905514, 0.021724066, 9.3282324e-8), (0.021874271, 0.022619918, 9.3282324e-8), (0.016627183, 0.02316483, 9.3282324e-8), (0.011271061, 0.02334771, 9.3282324e-8), (0.011271061, -0.023347711, 9.3282324e-8), (0.016627183, -0.023164833, 9.3282324e-8), (0.021874271, -0.02261992, 9.3282324e-8), (0.026905514, -0.021724068, 9.3282324e-8), (0.031618476, -0.02049551, 9.3282324e-8), (0.035917226, -0.018959263, 9.3282324e-8), (0.039714254, -0.017146593, 9.3282324e-8), (0.04293226, -0.015094404, 9.3282324e-8), (0.045505736, -0.012844473, 9.3282324e-8), (0.04738229, -0.0104426015, 9.3282324e-8), (0.04852372, -0.007937682, 9.3282324e-8), (0.048906803, -0.005380712, 9.3282324e-8), (-0.11085652, -0.023347711, 9.3282324e-8), (-0.11085652, 0.02334771, 9.3282324e-8), (0.048906803, 0.005380712, 9.3282324e-8), (-0.07596084, -0.017476218, 0.04890699), (-0.067657284, -0.023347715, 0.04890699), (-0.11085652, -0.023347713, 0.005707763), (-0.11085652, -0.017476218, 0.014011314), (-0.11085652, -0.017476212, -0.014011128), (-0.11085652, -0.023347711, -0.005707577), (-0.067657284, -0.02334771, -0.048906803), (-0.07596084, -0.017476212, -0.048906803), (-0.07596084, 0.017476212, -0.048906803), (-0.067657284, 0.02334771, -0.048906803), (-0.11085652, 0.02334771, -0.005707577), (-0.11085652, 0.017476212, -0.014011128), (-0.067657284, 0.02334771, 0.04890699), (-0.07596084, 0.017476212, 0.04890699), (-0.11085652, 0.017476212, 0.014011314), (-0.11085652, 0.02334771, 0.005707763)]
                matrix4d primvars:skel:geomBindTransform = ( (1, 0, 0, 0), (0, 1, 0, 0), (0, 0, 1, 0), (-0.9999607801437378, -3.1709316061778736e-8, 1.497487187385559, 1) )
                int[] primvars:skel:jointIndices = [3, 0, 0, 0, 3, 0, 0, 0, 3, 0, 0, 0, 3, 0, 0, 0, 3, 0, 0, 0, 3, 0, 0, 0, 3, 0, 0, 0, 3, 0, 0, 0, 3, 0, 0, 0, 3, 0, 0, 0, 3, 0, 0, 0, 3, 0, 0, 0, 3, 0, 0, 0, 3, 0, 0, 0, 3, 0, 0, 0, 3, 0, 0, 0, 3, 0, 0, 0, 3, 0, 0, 0, 3, 0, 0, 0, 3, 0, 0, 0, 3, 0, 0, 0, 3, 0, 0, 0, 3, 0, 0, 0, 3, 0, 0, 0, 3, 0, 0, 0, 3, 0, 0, 0, 3, 0, 0, 0, 3, 0, 0, 0, 3, 0, 0, 0, 3, 0, 0, 0, 3, 0, 0, 0, 3, 0, 0, 0, 3, 0, 0, 0, 3, 0, 0, 0, 3, 0, 0, 0, 3, 0, 0, 0, 3, 0, 0, 0, 3, 0, 0, 0, 3, 0, 0, 0, 3, 0, 0, 0, 3, 0, 0, 0, 3, 0, 0, 0, 3, 0, 0, 0, 3, 0, 0, 0, 3, 0, 0, 0, 3, 0, 0, 0, 3, 0, 0, 0, 3, 0, 0, 0, 3, 0, 0, 0, 3, 0, 0, 0, 3, 0, 0, 0, 3, 0, 0, 0, 3, 0, 0, 0, 3, 0, 0, 0, 3, 0, 0, 0, 3, 0, 0, 0, 3, 0, 0, 0, 3, 0, 0, 0, 3, 0, 0, 0, 3, 0, 0, 0, 3, 0, 0, 0, 3, 0, 0, 0, 3, 0, 0, 0, 3, 0, 0, 0, 3, 0, 0, 0, 3, 0, 0, 0, 3, 0, 0, 0, 3, 0, 0, 0, 3, 0, 0, 0, 3, 0, 0, 0, 3, 0, 0, 0, 3, 0, 0, 0, 3, 0, 0, 0, 3, 0, 0, 0, 3, 0, 0, 0, 3, 0, 0, 0, 3, 0, 0, 0, 3, 0, 0, 0, 3, 0, 0, 0, 3, 0, 0, 0, 3, 0, 0, 0, 3, 0, 0, 0, 3, 0, 0, 0, 3, 0, 0, 0, 3, 0, 0, 0, 3, 0, 0, 0, 3, 0, 0, 0, 3, 0, 0, 0, 3, 0, 0, 0, 3, 0, 0, 0] (
                    elementSize = 4
                    interpolation = "vertex"
                )
                float[] primvars:skel:jointWeights = [1, 0, 0, 0, 1, 0, 0, 0, 1, 0, 0, 0, 1, 0, 0, 0, 1, 0, 0, 0, 1, 0, 0, 0, 1, 0, 0, 0, 1, 0, 0, 0, 1, 0, 0, 0, 1, 0, 0, 0, 1, 0, 0, 0, 1, 0, 0, 0, 1, 0, 0, 0, 1, 0, 0, 0, 1, 0, 0, 0, 1, 0, 0, 0, 1, 0, 0, 0, 1, 0, 0, 0, 1, 0, 0, 0, 1, 0, 0, 0, 1, 0, 0, 0, 1, 0, 0, 0, 1, 0, 0, 0, 1, 0, 0, 0, 1, 0, 0, 0, 1, 0, 0, 0, 1, 0, 0, 0, 1, 0, 0, 0, 1, 0, 0, 0, 1, 0, 0, 0, 1, 0, 0, 0, 1, 0, 0, 0, 1, 0, 0, 0, 1, 0, 0, 0, 1, 0, 0, 0, 1, 0, 0, 0, 1, 0, 0, 0, 1, 0, 0, 0, 1, 0, 0, 0, 1, 0, 0, 0, 1, 0, 0, 0, 1, 0, 0, 0, 1, 0, 0, 0, 1, 0, 0, 0, 1, 0, 0, 0, 1, 0, 0, 0, 1, 0, 0, 0, 1, 0, 0, 0, 1, 0, 0, 0, 1, 0, 0, 0, 1, 0, 0, 0, 1, 0, 0, 0, 1, 0, 0, 0, 1, 0, 0, 0, 1, 0, 0, 0, 1, 0, 0, 0, 1, 0, 0, 0, 1, 0, 0, 0, 1, 0, 0, 0, 1, 0, 0, 0, 1, 0, 0, 0, 1, 0, 0, 0, 1, 0, 0, 0, 1, 0, 0, 0, 1, 0, 0, 0, 1, 0, 0, 0, 1, 0, 0, 0, 1, 0, 0, 0, 1, 0, 0, 0, 1, 0, 0, 0, 1, 0, 0, 0, 1, 0, 0, 0, 1, 0, 0, 0, 1, 0, 0, 0, 1, 0, 0, 0, 1, 0, 0, 0, 1, 0, 0, 0, 1, 0, 0, 0, 1, 0, 0, 0, 1, 0, 0, 0, 1, 0, 0, 0, 1, 0, 0, 0, 1, 0, 0, 0, 1, 0, 0, 0, 1, 0, 0, 0, 1, 0, 0, 0, 1, 0, 0, 0, 1, 0, 0, 0, 1, 0, 0, 0, 1, 0, 0, 0] (
                    elementSize = 4
                    interpolation = "vertex"
                )
                texCoord2f[] primvars:st = [(0.5, 0.5961925), (0.47119254, 0.5961925), (0.4575029, 0.5825029), (0.5, 0.5825029), (0.5, 0.5825029), (0.4575029, 0.5825029), (0.44409195, 0.569092), (0.5, 0.5690919), (0.5, 0.5690919), (0.44409195, 0.569092), (0.4312327, 0.5562327), (0.5, 0.5562327), (0.5, 0.5562327), (0.4312327, 0.5562327), (0.41918692, 0.54418695), (0.5, 0.54418695), (0.5, 0.54418695), (0.41918692, 0.54418695), (0.4081998, 0.5331998), (0.49999997, 0.5331998), (0.49999997, 0.5331998), (0.4081998, 0.5331998), (0.3806404, 0.5056404), (0.5, 0.5056404), (0.5, 0.5056404), (0.3806404, 0.5056404), (0.3745069, 0.49950686), (0.49999994, 0.49950686), (0.49999994, 0.49950686), (0.3745069, 0.49950686), (0.36900234, 0.49400234), (0.5, 0.49400234), (0.5, 0.49400234), (0.36900234, 0.49400234), (0.3642387, 0.48923874), (0.5, 0.48923874), (0.5, 0.48923874), (0.3642387, 0.48923874), (0.36031306, 0.4853131), (0.5, 0.48531312), (0.5, 0.48531312), (0.36031306, 0.4853131), (0.3573053, 0.48230532), (0.5, 0.48230532), (0.3573053, 0.7676947), (0.3573053, 0.48230532), (0.36031306, 0.4853131), (0.36031306, 0.76468694), (0.36031306, 0.76468694), (0.36031306, 0.4853131), (0.3642387, 0.48923874), (0.36423868, 0.76076126), (0.36423868, 0.76076126), (0.3642387, 0.48923874), (0.36900234, 0.49400234), (0.36900234, 0.7559978), (0.36900234, 0.7559978), (0.36900234, 0.49400234), (0.3745069, 0.49950686), (0.3745069, 0.75049305), (0.3745069, 0.75049305), (0.3745069, 0.49950686), (0.3806404, 0.5056404), (0.38064042, 0.74435973), (0.38064042, 0.74435973), (0.3806404, 0.5056404), (0.4081998, 0.5331998), (0.40819982, 0.7168002), (0.40819982, 0.7168002), (0.4081998, 0.5331998), (0.41918692, 0.54418695), (0.41918695, 0.70581317), (0.41918695, 0.70581317), (0.41918692, 0.54418695), (0.4312327, 0.5562327), (0.4312327, 0.6937673), (0.4312327, 0.6937673), (0.4312327, 0.5562327), (0.44409195, 0.569092), (0.44409195, 0.6809081), (0.44409195, 0.6809081), (0.44409195, 0.569092), (0.4575029, 0.5825029), (0.4575029, 0.66749716), (0.4575029, 0.66749716), (0.4575029, 0.5825029), (0.47119254, 0.5961925), (0.47119248, 0.6538075), (0.50000006, 0.6674972), (0.5, 0.6538075), (0.47119248, 0.6538075), (0.4575029, 0.66749716), (0.5, 0.7168002), (0.5, 0.70581317), (0.41918695, 0.70581317), (0.40819982, 0.7168002), (0.5, 0.75049305), (0.5, 0.7443597), (0.38064042, 0.74435973), (0.3745069, 0.75049305), (0.49999997, 0.76076126), (0.5, 0.7559978), (0.36900234, 0.7559978), (0.36423868, 0.76076126), (0.5, 0.7676948), (0.5, 0.76468694), (0.36031306, 0.76468694), (0.3573053, 0.7676947), (0.44409195, 0.6809081), (0.4575029, 0.66749716), (0.4575029, 0.5825029), (0.44409195, 0.569092), (0.41918695, 0.70581317), (0.4312327, 0.6937673), (0.4312327, 0.5562327), (0.41918692, 0.54418695), (0.38064042, 0.74435973), (0.40819982, 0.7168002), (0.4081998, 0.5331998), (0.3806404, 0.5056404), (0.36900234, 0.7559978), (0.3745069, 0.75049305), (0.3745069, 0.49950686), (0.36900234, 0.49400234), (0.36031306, 0.76468694), (0.36423868, 0.76076126), (0.3642387, 0.48923874), (0.36031306, 0.4853131), (0.5, 0.69376737), (0.5, 0.6809081), (0.44409195, 0.6809081), (0.4312327, 0.6937673), (0.5, 0.7676948), (0.3573053, 0.7676947), (0.36031306, 0.76468694), (0.5, 0.76468694), (0.5, 0.76468694), (0.36031306, 0.76468694), (0.36423868, 0.76076126), (0.49999997, 0.76076126), (0.49999997, 0.76076126), (0.36423868, 0.76076126), (0.36900234, 0.7559978), (0.5, 0.7559978), (0.5, 0.7559978), (0.36900234, 0.7559978), (0.3745069, 0.75049305), (0.5, 0.75049305), (0.5, 0.75049305), (0.3745069, 0.75049305), (0.38064042, 0.74435973), (0.5, 0.7443597), (0.5, 0.7443597), (0.38064042, 0.74435973), (0.40819982, 0.7168002), (0.5, 0.7168002), (0.5, 0.7168002), (0.40819982, 0.7168002), (0.41918695, 0.70581317), (0.5, 0.70581317), (0.5, 0.70581317), (0.41918695, 0.70581317), (0.4312327, 0.6937673), (0.5, 0.69376737), (0.5, 0.69376737), (0.4312327, 0.6937673), (0.44409195, 0.6809081), (0.5, 0.6809081), (0.5, 0.6809081), (0.44409195, 0.6809081), (0.4575029, 0.66749716), (0.50000006, 0.6674972), (0.50000006, 0.6674972), (0.4575029, 0.66749716), (0.47119248, 0.6538075), (0.5, 0.6538075), (0.5, 0.70581317), (0.5, 0.69376737), (0.4312327, 0.6937673), (0.41918695, 0.70581317), (0.47119254, 0.5961925), (0.5, 0.5961925), (0.5, 0.6538075), (0.47119248, 0.6538075), (0.5, 0.6809081), (0.50000006, 0.6674972), (0.4575029, 0.66749716), (0.44409195, 0.6809081), (0.3573053, 0.7676947), (0.36031306, 0.76468694), (0.36031306, 0.4853131), (0.3573053, 0.48230532), (0.36423868, 0.76076126), (0.36900234, 0.7559978), (0.36900234, 0.49400234), (0.3642387, 0.48923874), (0.3745069, 0.75049305), (0.38064042, 0.74435973), (0.3806404, 0.5056404), (0.3745069, 0.49950686), (0.40819982, 0.7168002), (0.41918695, 0.70581317), (0.41918692, 0.54418695), (0.4081998, 0.5331998), (0.4312327, 0.6937673), (0.44409195, 0.6809081), (0.44409195, 0.569092), (0.4312327, 0.5562327), (0.4575029, 0.66749716), (0.47119248, 0.6538075), (0.47119254, 0.5961925), (0.4575029, 0.5825029), (0.5, 0.76468694), (0.49999997, 0.76076126), (0.36423868, 0.76076126), (0.36031306, 0.76468694), (0.5, 0.7559978), (0.5, 0.75049305), (0.3745069, 0.75049305), (0.36900234, 0.7559978), (0.5, 0.7443597), (0.5, 0.7168002), (0.40819982, 0.7168002), (0.38064042, 0.74435973), (0.5, 0.48923874), (0.5, 0.48531312), (0.36031306, 0.4853131), (0.3642387, 0.48923874), (0.5, 0.5961925), (0.5, 0.5825029), (0.4575029, 0.5825029), (0.47119254, 0.5961925), (0.5, 0.5825029), (0.5, 0.5690919), (0.44409195, 0.569092), (0.4575029, 0.5825029), (0.5, 0.5690919), (0.5, 0.5562327), (0.4312327, 0.5562327), (0.44409195, 0.569092), (0.5, 0.5562327), (0.5, 0.54418695), (0.41918692, 0.54418695), (0.4312327, 0.5562327), (0.5, 0.54418695), (0.49999997, 0.5331998), (0.4081998, 0.5331998), (0.41918692, 0.54418695), (0.49999997, 0.5331998), (0.5, 0.5056404), (0.3806404, 0.5056404), (0.4081998, 0.5331998), (0.5, 0.5056404), (0.49999994, 0.49950686), (0.3745069, 0.49950686), (0.3806404, 0.5056404), (0.49999994, 0.49950686), (0.5, 0.49400234), (0.36900234, 0.49400234), (0.3745069, 0.49950686), (0.5, 0.49400234), (0.5, 0.48923874), (0.3642387, 0.48923874), (0.36900234, 0.49400234), (0.5, 0.48531312), (0.5, 0.48230532), (0.3573053, 0.48230532), (0.36031306, 0.4853131), (0.47119254, 0.5961925), (0.47119248, 0.6538075), (0.5, 0.6538075), (0.5, 0.5961925), (0.3725935, 0.9684064), (0.46418923, 1), (0.485412, 1), (0.37113822, 0.9493007), (0.46418923, 0.23428246), (0.3725935, 0.28159362), (0.37113824, 0.30069926), (0.485412, 0.25), (0.125, 0.5), (0.16614643, 0.49686587), (0.15659362, 0.52963376), (0.125, 0.5314351), (0.16614643, 0.75313413), (0.125, 0.75), (0.125, 0.71856487), (0.15659362, 0.7203662), (0.3573053, 0.7676947), (0.37113822, 0.9493007), (0.485412, 1), (0.50000006, 1), (0.5, 0.7676948), (0.15659362, 0.52963376), (0.125, 0.5314351), (0.125, 0.7185649), (0.15659362, 0.72036624), (0.17569925, 0.49613824), (0.15659362, 0.52963376), (0.15659362, 0.72036624), (0.17569925, 0.7538618), (0.3573053, 0.7676947), (0.3573053, 0.48230532), (0.485412, 0), (0.46418923, 0.031435076), (0.46418923, 0.23428246), (0.485412, 0.25), (0.50000006, 0.25), (0.50000006, 0), (0.3573053, 0.7676947), (0.5, 0.7676948), (0.50000006, 1), (0.485412, 1), (0.37113824, 0.94930077), (0.15659362, 0.52963376), (0.15659362, 0.7203662), (0.125, 0.71856487), (0.125, 0.5314351), (0.46418923, 0.031435102), (0.485412, 0), (0.50000006, 0), (0.50000006, 0.25), (0.485412, 0.25), (0.46418926, 0.21856493), (0.15659362, 0.52963376), (0.16614643, 0.49686587), (0.3573053, 0.48230532), (0.3573053, 0.7676947), (0.16614643, 0.75313413), (0.15659362, 0.7203662), (0.37113822, 0.30069926), (0.485412, 0.25), (0.50000006, 0.25), (0.5, 0.48230532), (0.3573053, 0.48230532), (0.37113824, 0.30069926), (0.3573053, 0.48230532), (0.5, 0.48230532), (0.50000006, 0.25), (0.485412, 0.25)] (
                    interpolation = "faceVarying"
                )
                rel skel:skeleton = </roboticArm/Rig/Armature_render>
                matrix4d xformOp:transform = ( (1, 0, 0, 0), (0, 1, 0, 0), (0, 0, 1, 0), (-0.9999607801437378, -3.1709316061778736e-8, 1.497487187385559, 1) )
                uniform token[] xformOpOrder = ["xformOp:transform"]
            }

            def Mesh "handleEnd" (
                prepend apiSchemas = ["SkelBindingAPI"]
            )
            {
                int[] faceVertexCounts = [4, 4, 4, 4, 4, 4, 4, 4, 4, 4, 4, 4, 4, 4, 4, 4, 4, 4, 4, 4, 4, 4, 4, 4, 4, 4, 4, 4, 4, 32, 4, 4, 4, 32, 4, 4, 4, 4, 4, 4, 4, 4, 4, 4, 4, 4, 4, 4, 4, 4, 4, 4, 4, 4, 4, 4, 4, 4, 4, 4, 4, 4, 4, 4, 4, 4, 4, 4, 4, 4, 4, 4, 4, 4, 4, 4, 4, 4, 4, 4, 4, 4, 4, 4, 4, 4, 4, 4, 4, 4, 4, 4, 4, 4, 4, 4, 4, 4, 4, 4, 4, 4, 4, 4, 4, 4, 4, 4, 4, 4, 4, 4, 69, 4, 4, 4, 69]
                int[] faceVertexIndices = [48, 17, 23, 50, 50, 23, 22, 51, 51, 22, 21, 52, 52, 21, 20, 53, 53, 20, 19, 54, 54, 19, 18, 55, 55, 18, 16, 49, 24, 57, 63, 26, 26, 63, 62, 27, 27, 62, 61, 28, 28, 61, 60, 29, 29, 60, 59, 30, 30, 59, 58, 31, 31, 58, 56, 25, 0, 33, 39, 2, 2, 39, 38, 3, 3, 38, 37, 4, 4, 37, 36, 5, 5, 36, 35, 6, 6, 35, 34, 7, 7, 34, 32, 1, 40, 9, 15, 42, 42, 15, 14, 43, 43, 14, 13, 44, 44, 13, 12, 45, 45, 12, 11, 46, 46, 11, 10, 47, 47, 10, 8, 41, 17, 48, 33, 0, 0, 2, 3, 4, 5, 6, 7, 1, 8, 10, 11, 12, 13, 14, 15, 9, 24, 26, 27, 28, 29, 30, 31, 25, 16, 18, 19, 20, 21, 22, 23, 17, 32, 41, 8, 1, 57, 24, 9, 40, 16, 25, 56, 49, 48, 50, 51, 52, 53, 54, 55, 49, 56, 58, 59, 60, 61, 62, 63, 57, 40, 42, 43, 44, 45, 46, 47, 41, 32, 34, 35, 36, 37, 38, 39, 33, 66, 67, 71, 70, 138, 139, 69, 68, 68, 69, 65, 64, 136, 138, 68, 64, 139, 137, 65, 69, 136, 64, 75, 140, 137, 67, 73, 141, 64, 65, 74, 75, 67, 66, 72, 73, 91, 107, 120, 93, 93, 120, 119, 94, 94, 119, 118, 95, 95, 118, 117, 96, 96, 117, 116, 97, 97, 116, 115, 98, 98, 115, 114, 99, 99, 114, 113, 100, 100, 113, 112, 101, 101, 112, 111, 102, 102, 111, 110, 103, 103, 110, 109, 104, 104, 109, 108, 105, 105, 108, 106, 92, 121, 77, 90, 123, 123, 90, 89, 124, 124, 89, 88, 125, 125, 88, 87, 126, 126, 87, 86, 127, 127, 86, 85, 128, 128, 85, 84, 129, 129, 84, 83, 130, 130, 83, 82, 131, 131, 82, 81, 132, 132, 81, 80, 133, 133, 80, 79, 134, 134, 79, 78, 135, 135, 78, 76, 122, 73, 72, 77, 121, 75, 74, 107, 91, 65, 137, 141, 74, 66, 136, 140, 72, 71, 67, 137, 139, 66, 70, 138, 136, 70, 71, 139, 138, 160, 152, 159, 162, 162, 159, 158, 163, 163, 158, 157, 164, 164, 157, 156, 165, 165, 156, 155, 166, 166, 155, 154, 167, 167, 154, 153, 168, 168, 153, 151, 161, 142, 170, 177, 144, 144, 177, 176, 145, 145, 176, 175, 146, 146, 175, 174, 147, 147, 174, 173, 148, 148, 173, 172, 149, 149, 172, 171, 150, 150, 171, 169, 143, 92, 106, 170, 142, 152, 160, 122, 76, 178, 206, 213, 180, 180, 213, 212, 181, 181, 212, 211, 182, 182, 211, 210, 183, 183, 210, 209, 184, 184, 209, 208, 185, 185, 208, 207, 186, 186, 207, 205, 179, 196, 188, 195, 198, 198, 195, 194, 199, 199, 194, 193, 200, 200, 193, 192, 201, 201, 192, 191, 202, 202, 191, 190, 203, 203, 190, 189, 204, 204, 189, 187, 197, 72, 140, 75, 91, 93, 94, 95, 96, 97, 98, 99, 100, 101, 102, 103, 104, 105, 92, 142, 144, 145, 146, 147, 148, 149, 150, 143, 178, 180, 181, 182, 183, 184, 185, 186, 179, 187, 189, 190, 191, 192, 193, 194, 195, 188, 151, 153, 154, 155, 156, 157, 158, 159, 152, 76, 78, 79, 80, 81, 82, 83, 84, 85, 86, 87, 88, 89, 90, 77, 179, 205, 197, 187, 206, 178, 143, 169, 161, 151, 188, 196, 74, 141, 73, 121, 123, 124, 125, 126, 127, 128, 129, 130, 131, 132, 133, 134, 135, 122, 160, 162, 163, 164, 165, 166, 167, 168, 161, 196, 198, 199, 200, 201, 202, 203, 204, 197, 205, 207, 208, 209, 210, 211, 212, 213, 206, 169, 171, 172, 173, 174, 175, 176, 177, 170, 106, 108, 109, 110, 111, 112, 113, 114, 115, 116, 117, 118, 119, 120, 107]
                point3f[] points = [(-0.011878741, -0.0077241226, -0.011878716), (-0.011878741, -0.02076687, -0.0044182073), (-0.011878741, -0.010626406, -0.011691665), (-0.011878741, -0.0133831585, -0.011139893), (-0.011878741, -0.015856143, -0.010251068), (-0.011878741, -0.017921353, -0.0090697585), (-0.011878741, -0.019475233, -0.0076552005), (-0.011878741, -0.02043986, -0.0060783266), (-0.011878741, -0.02076687, 0.0044182567), (-0.011878741, -0.0077241226, 0.011878765), (-0.011878741, -0.02043986, 0.006078376), (-0.011878741, -0.019475233, 0.00765525), (-0.011878741, -0.017921353, 0.009069808), (-0.011878741, -0.015856143, 0.010251118), (-0.011878741, -0.0133831585, 0.011139942), (-0.011878741, -0.010626406, 0.011691715), (-0.011878741, 0.02076687, -0.0044182073), (-0.011878741, 0.0077241217, -0.011878716), (-0.011878741, 0.02043986, -0.0060783266), (-0.011878741, 0.019475233, -0.0076552005), (-0.011878741, 0.017921353, -0.0090697585), (-0.011878741, 0.015856143, -0.010251068), (-0.011878741, 0.0133831585, -0.011139893), (-0.011878741, 0.010626406, -0.011691665), (-0.011878741, 0.0077241217, 0.011878765), (-0.011878741, 0.02076687, 0.0044182567), (-0.011878741, 0.010626406, 0.011691715), (-0.011878741, 0.0133831585, 0.011139942), (-0.011878741, 0.015856143, 0.010251118), (-0.011878741, 0.017921353, 0.009069808), (-0.011878741, 0.019475233, 0.00765525), (-0.011878741, 0.02043986, 0.006078376), (0.011878741, -0.02076687, -0.0044182073), (0.011878741, -0.0077241226, -0.011878716), (0.011878741, -0.02043986, -0.0060783266), (0.011878741, -0.019475233, -0.0076552005), (0.011878741, -0.017921353, -0.0090697585), (0.011878741, -0.015856143, -0.010251068), (0.011878741, -0.0133831585, -0.011139893), (0.011878741, -0.010626406, -0.011691665), (0.011878741, -0.0077241226, 0.011878765), (0.011878741, -0.02076687, 0.0044182567), (0.011878741, -0.010626406, 0.011691715), (0.011878741, -0.0133831585, 0.011139942), (0.011878741, -0.015856143, 0.010251118), (0.011878741, -0.017921353, 0.009069808), (0.011878741, -0.019475233, 0.00765525), (0.011878741, -0.02043986, 0.006078376), (0.011878741, 0.0077241217, -0.011878716), (0.011878741, 0.02076687, -0.0044182073), (0.011878741, 0.010626406, -0.011691665), (0.011878741, 0.0133831585, -0.011139893), (0.011878741, 0.015856143, -0.010251068), (0.011878741, 0.017921353, -0.0090697585), (0.011878741, 0.019475233, -0.0076552005), (0.011878741, 0.02043986, -0.0060783266), (0.011878741, 0.02076687, 0.0044182567), (0.011878741, 0.0077241217, 0.011878765), (0.011878741, 0.02043986, 0.006078376), (0.011878741, 0.019475233, 0.00765525), (0.011878741, 0.017921353, 0.009069808), (0.011878741, 0.015856143, 0.010251118), (0.011878741, 0.0133831585, 0.011139942), (0.011878741, 0.010626406, 0.011691715), (-0.036615048, -0.050085183, -0.015162383), (-0.036615048, -0.050085183, 0.015162145), (-0.036615048, 0.050085183, -0.015162383), (-0.036615048, 0.050085183, 0.015162145), (-0.0062905205, -0.050085183, -0.015162383), (-0.0062905205, -0.050085183, 0.015162145), (-0.0062905205, 0.050085183, -0.015162383), (-0.0062905205, 0.050085183, 0.015162145), (-0.0908261, 0.16189253, -0.015162383), (-0.0908261, 0.16189253, 0.015162145), (-0.0908261, -0.16189252, 0.015162145), (-0.0908261, -0.16189252, -0.015162383), (-0.14295635, 0.11648426, -0.015162383), (-0.1181234, 0.16189253, -0.015162383), (-0.14280018, 0.12156837, -0.015162383), (-0.14233372, 0.12658854, -0.015162383), (-0.14156279, 0.13148165, -0.015162383), (-0.14049709, 0.13618617, -0.015162383), (-0.13915004, 0.14064291, -0.015162383), (-0.13753857, 0.14479585, -0.015162383), (-0.13568293, 0.14859274, -0.015162383), (-0.13360648, 0.15198587, -0.015162383), (-0.13133532, 0.15493253, -0.015162383), (-0.128898, 0.15739569, -0.015162383), (-0.12632519, 0.15934436, -0.015162383), (-0.12364924, 0.16075402, -0.015162383), (-0.1209038, 0.161607, -0.015162383), (-0.1181234, -0.16189252, -0.015162383), (-0.14295635, -0.11648425, -0.015162383), (-0.1209038, -0.16160701, -0.015162383), (-0.12364924, -0.16075404, -0.015162383), (-0.12632519, -0.15934438, -0.015162383), (-0.128898, -0.15739569, -0.015162383), (-0.13133532, -0.15493254, -0.015162383), (-0.13360648, -0.15198588, -0.015162383), (-0.13568293, -0.14859276, -0.015162383), (-0.13753857, -0.14479586, -0.015162383), (-0.13915004, -0.14064293, -0.015162383), (-0.14049709, -0.13618618, -0.015162383), (-0.14156279, -0.13148166, -0.015162383), (-0.14233372, -0.12658855, -0.015162383), (-0.14280018, -0.12156838, -0.015162383), (-0.14295635, -0.11648425, 0.015162145), (-0.1181234, -0.16189252, 0.015162145), (-0.14280018, -0.12156838, 0.015162145), (-0.14233372, -0.12658855, 0.015162145), (-0.14156279, -0.13148166, 0.015162145), (-0.14049709, -0.13618618, 0.015162145), (-0.13915004, -0.14064293, 0.015162145), (-0.13753857, -0.14479586, 0.015162145), (-0.13568293, -0.14859276, 0.015162145), (-0.13360648, -0.15198588, 0.015162145), (-0.13133532, -0.15493254, 0.015162145), (-0.128898, -0.15739569, 0.015162145), (-0.12632519, -0.15934438, 0.015162145), (-0.12364924, -0.16075404, 0.015162145), (-0.1209038, -0.16160701, 0.015162145), (-0.1181234, 0.16189253, 0.015162145), (-0.14295635, 0.11648426, 0.015162145), (-0.1209038, 0.161607, 0.015162145), (-0.12364924, 0.16075402, 0.015162145), (-0.12632519, 0.15934436, 0.015162145), (-0.128898, 0.15739569, 0.015162145), (-0.13133532, 0.15493253, 0.015162145), (-0.13360648, 0.15198587, 0.015162145), (-0.13568293, 0.14859274, 0.015162145), (-0.13753857, 0.14479585, 0.015162145), (-0.13915004, 0.14064291, 0.015162145), (-0.14049709, 0.13618617, 0.015162145), (-0.14156279, 0.13148165, 0.015162145), (-0.14233372, 0.12658854, 0.015162145), (-0.14280018, 0.12156837, 0.015162145), (-0.036615048, 1.6998314e-10, -0.015162383), (-0.036615048, 1.6998314e-10, 0.015162145), (-0.0062905205, 1.6998314e-10, -0.015162383), (-0.0062905205, 1.6998314e-10, 0.015162145), (-0.0908261, 1.6998314e-10, -0.015162383), (-0.0908261, 1.6488132e-8, 0.015162145), (-0.14295635, -0.09664638, -0.015162383), (-0.13675798, -0.07477729, -0.015162383), (-0.14283723, -0.0937865, -0.015162383), (-0.14248452, -0.09072919, -0.015162383), (-0.14191173, -0.08759193, -0.015162383), (-0.14114088, -0.08449528, -0.015162383), (-0.1402016, -0.081558265, -0.015162383), (-0.13913, -0.07889372, -0.015162383), (-0.13796723, -0.07660406, -0.015162383), (-0.13675798, 0.07477731, -0.015162383), (-0.14295635, 0.0966464, -0.015162383), (-0.13796723, 0.0766041, -0.015162383), (-0.13913, 0.07889375, -0.015162383), (-0.1402016, 0.08155829, -0.015162383), (-0.14114088, 0.084495306, -0.015162383), (-0.14191173, 0.08759195, -0.015162383), (-0.14248452, 0.090729214, -0.015162383), (-0.14283723, 0.09378653, -0.015162383), (-0.14295635, 0.0966464, 0.015162145), (-0.13675798, 0.074777305, 0.015162145), (-0.14283723, 0.09378652, 0.015162145), (-0.14248452, 0.09072921, 0.015162145), (-0.14191173, 0.087591946, 0.015162145), (-0.14114088, 0.0844953, 0.015162145), (-0.1402016, 0.08155828, 0.015162145), (-0.13913, 0.078893736, 0.015162145), (-0.13796723, 0.07660408, 0.015162145), (-0.13675798, -0.0747773, 0.015162145), (-0.14295635, -0.09664638, 0.015162145), (-0.13796723, -0.07660408, 0.015162145), (-0.13913, -0.078893736, 0.015162145), (-0.1402016, -0.08155827, 0.015162145), (-0.14114088, -0.08449529, 0.015162145), (-0.14191173, -0.08759194, 0.015162145), (-0.14248452, -0.0907292, 0.015162145), (-0.14283723, -0.09378651, 0.015162145), (-0.12099348, -0.054436874, -0.015162383), (-0.11569502, -0.035742827, -0.015162383), (-0.11995981, -0.052875314, -0.015162383), (-0.11896585, -0.050918084, -0.015162383), (-0.11804982, -0.048640396, -0.015162383), (-0.11724691, -0.046129778, -0.015162383), (-0.11658798, -0.043482717, -0.015162383), (-0.11609835, -0.040800937, -0.015162383), (-0.115796834, -0.038187496, -0.015162383), (-0.11569502, 0.035742845, -0.015162383), (-0.12099348, 0.054436892, -0.015162383), (-0.115796834, 0.03818751, -0.015162383), (-0.11609835, 0.04080095, -0.015162383), (-0.11658798, 0.043482736, -0.015162383), (-0.11724691, 0.046129793, -0.015162383), (-0.11804982, 0.04864041, -0.015162383), (-0.11896585, 0.0509181, -0.015162383), (-0.11995981, 0.05287533, -0.015162383), (-0.12099348, 0.054436892, 0.015162145), (-0.11569502, 0.035742845, 0.015162145), (-0.11995981, 0.05287533, 0.015162145), (-0.11896585, 0.0509181, 0.015162145), (-0.11804982, 0.04864041, 0.015162145), (-0.11724691, 0.046129793, 0.015162145), (-0.11658798, 0.043482736, 0.015162145), (-0.11609835, 0.04080095, 0.015162145), (-0.115796834, 0.03818751, 0.015162145), (-0.11569502, -0.035742827, 0.015162145), (-0.12099348, -0.054436874, 0.015162145), (-0.115796834, -0.038187496, 0.015162145), (-0.11609835, -0.040800937, 0.015162145), (-0.11658798, -0.043482717, 0.015162145), (-0.11724691, -0.046129778, 0.015162145), (-0.11804982, -0.048640396, 0.015162145), (-0.11896585, -0.050918084, 0.015162145), (-0.11995981, -0.052875314, 0.015162145)]
                matrix4d primvars:skel:geomBindTransform = ( (0.8348838686943054, 0, 0, 0), (0, 0.4565824866294861, 0, 0), (0, 0, 0.8348838686943054, 0), (-1.1108174324035645, -3.2906733338222693e-8, 1.4974873065948486, 1) )
                int[] primvars:skel:jointIndices = [3, 0, 0, 0, 3, 0, 0, 0, 3, 0, 0, 0, 3, 0, 0, 0, 3, 0, 0, 0, 3, 0, 0, 0, 3, 0, 0, 0, 3, 0, 0, 0, 3, 0, 0, 0, 3, 0, 0, 0, 3, 0, 0, 0, 3, 0, 0, 0, 3, 0, 0, 0, 3, 0, 0, 0, 3, 0, 0, 0, 3, 0, 0, 0, 3, 0, 0, 0, 3, 0, 0, 0, 3, 0, 0, 0, 3, 0, 0, 0, 3, 0, 0, 0, 3, 0, 0, 0, 3, 0, 0, 0, 3, 0, 0, 0, 3, 0, 0, 0, 3, 0, 0, 0, 3, 0, 0, 0, 3, 0, 0, 0, 3, 0, 0, 0, 3, 0, 0, 0, 3, 0, 0, 0, 3, 0, 0, 0, 3, 0, 0, 0, 3, 0, 0, 0, 3, 0, 0, 0, 3, 0, 0, 0, 3, 0, 0, 0, 3, 0, 0, 0, 3, 0, 0, 0, 3, 0, 0, 0, 3, 0, 0, 0, 3, 0, 0, 0, 3, 0, 0, 0, 3, 0, 0, 0, 3, 0, 0, 0, 3, 0, 0, 0, 3, 0, 0, 0, 3, 0, 0, 0, 3, 0, 0, 0, 3, 0, 0, 0, 3, 0, 0, 0, 3, 0, 0, 0, 3, 0, 0, 0, 3, 0, 0, 0, 3, 0, 0, 0, 3, 0, 0, 0, 3, 0, 0, 0, 3, 0, 0, 0, 3, 0, 0, 0, 3, 0, 0, 0, 3, 0, 0, 0, 3, 0, 0, 0, 3, 0, 0, 0, 3, 0, 0, 0, 3, 0, 0, 0, 3, 0, 0, 0, 3, 0, 0, 0, 3, 0, 0, 0, 3, 0, 0, 0, 3, 0, 0, 0, 3, 0, 0, 0, 3, 0, 0, 0, 3, 0, 0, 0, 3, 0, 0, 0, 3, 0, 0, 0, 3, 0, 0, 0, 3, 0, 0, 0, 3, 0, 0, 0, 3, 0, 0, 0, 3, 0, 0, 0, 3, 0, 0, 0, 3, 0, 0, 0, 3, 0, 0, 0, 3, 0, 0, 0, 3, 0, 0, 0, 3, 0, 0, 0, 3, 0, 0, 0, 3, 0, 0, 0, 3, 0, 0, 0, 3, 0, 0, 0, 3, 0, 0, 0, 3, 0, 0, 0, 3, 0, 0, 0, 3, 0, 0, 0, 3, 0, 0, 0, 3, 0, 0, 0, 3, 0, 0, 0, 3, 0, 0, 0, 3, 0, 0, 0, 3, 0, 0, 0, 3, 0, 0, 0, 3, 0, 0, 0, 3, 0, 0, 0, 3, 0, 0, 0, 3, 0, 0, 0, 3, 0, 0, 0, 3, 0, 0, 0, 3, 0, 0, 0, 3, 0, 0, 0, 3, 0, 0, 0, 3, 0, 0, 0, 3, 0, 0, 0, 3, 0, 0, 0, 3, 0, 0, 0, 3, 0, 0, 0, 3, 0, 0, 0, 3, 0, 0, 0, 3, 0, 0, 0, 3, 0, 0, 0, 3, 0, 0, 0, 3, 0, 0, 0, 3, 0, 0, 0, 3, 0, 0, 0, 3, 0, 0, 0, 3, 0, 0, 0, 3, 0, 0, 0, 3, 0, 0, 0, 3, 0, 0, 0, 3, 0, 0, 0, 3, 0, 0, 0, 3, 0, 0, 0, 3, 0, 0, 0, 3, 0, 0, 0, 3, 0, 0, 0, 3, 0, 0, 0, 3, 0, 0, 0, 3, 0, 0, 0, 3, 0, 0, 0, 3, 0, 0, 0, 3, 0, 0, 0, 3, 0, 0, 0, 3, 0, 0, 0, 3, 0, 0, 0, 3, 0, 0, 0, 3, 0, 0, 0, 3, 0, 0, 0, 3, 0, 0, 0, 3, 0, 0, 0, 3, 0, 0, 0, 3, 0, 0, 0, 3, 0, 0, 0, 3, 0, 0, 0, 3, 0, 0, 0, 3, 0, 0, 0, 3, 0, 0, 0, 3, 0, 0, 0, 3, 0, 0, 0, 3, 0, 0, 0, 3, 0, 0, 0, 3, 0, 0, 0, 3, 0, 0, 0, 3, 0, 0, 0, 3, 0, 0, 0, 3, 0, 0, 0, 3, 0, 0, 0, 3, 0, 0, 0, 3, 0, 0, 0, 3, 0, 0, 0, 3, 0, 0, 0, 3, 0, 0, 0, 3, 0, 0, 0, 3, 0, 0, 0, 3, 0, 0, 0, 3, 0, 0, 0, 3, 0, 0, 0, 3, 0, 0, 0, 3, 0, 0, 0, 3, 0, 0, 0, 3, 0, 0, 0, 3, 0, 0, 0, 3, 0, 0, 0, 3, 0, 0, 0, 3, 0, 0, 0, 3, 0, 0, 0, 3, 0, 0, 0, 3, 0, 0, 0, 3, 0, 0, 0, 3, 0, 0, 0, 3, 0, 0, 0, 3, 0, 0, 0, 3, 0, 0, 0, 3, 0, 0, 0, 3, 0, 0, 0, 3, 0, 0, 0, 3, 0, 0, 0, 3, 0, 0, 0, 3, 0, 0, 0, 3, 0, 0, 0, 3, 0, 0, 0, 3, 0, 0, 0, 3, 0, 0, 0, 3, 0, 0, 0, 3, 0, 0, 0, 3, 0, 0, 0, 3, 0, 0, 0, 3, 0, 0, 0, 3, 0, 0, 0, 3, 0, 0, 0, 3, 0, 0, 0, 3, 0, 0, 0, 3, 0, 0, 0, 3, 0, 0, 0, 3, 0, 0, 0, 3, 0, 0, 0] (
                    elementSize = 4
                    interpolation = "vertex"
                )
                float[] primvars:skel:jointWeights = [1, 0, 0, 0, 1, 0, 0, 0, 1, 0, 0, 0, 1, 0, 0, 0, 1, 0, 0, 0, 1, 0, 0, 0, 1, 0, 0, 0, 1, 0, 0, 0, 1, 0, 0, 0, 1, 0, 0, 0, 1, 0, 0, 0, 1, 0, 0, 0, 1, 0, 0, 0, 1, 0, 0, 0, 1, 0, 0, 0, 1, 0, 0, 0, 1, 0, 0, 0, 1, 0, 0, 0, 1, 0, 0, 0, 1, 0, 0, 0, 1, 0, 0, 0, 1, 0, 0, 0, 1, 0, 0, 0, 1, 0, 0, 0, 1, 0, 0, 0, 1, 0, 0, 0, 1, 0, 0, 0, 1, 0, 0, 0, 1, 0, 0, 0, 1, 0, 0, 0, 1, 0, 0, 0, 1, 0, 0, 0, 1, 0, 0, 0, 1, 0, 0, 0, 1, 0, 0, 0, 1, 0, 0, 0, 1, 0, 0, 0, 1, 0, 0, 0, 1, 0, 0, 0, 1, 0, 0, 0, 1, 0, 0, 0, 1, 0, 0, 0, 1, 0, 0, 0, 1, 0, 0, 0, 1, 0, 0, 0, 1, 0, 0, 0, 1, 0, 0, 0, 1, 0, 0, 0, 1, 0, 0, 0, 1, 0, 0, 0, 1, 0, 0, 0, 1, 0, 0, 0, 1, 0, 0, 0, 1, 0, 0, 0, 1, 0, 0, 0, 1, 0, 0, 0, 1, 0, 0, 0, 1, 0, 0, 0, 1, 0, 0, 0, 1, 0, 0, 0, 1, 0, 0, 0, 1, 0, 0, 0, 1, 0, 0, 0, 1, 0, 0, 0, 1, 0, 0, 0, 1, 0, 0, 0, 1, 0, 0, 0, 1, 0, 0, 0, 1, 0, 0, 0, 1, 0, 0, 0, 1, 0, 0, 0, 1, 0, 0, 0, 1, 0, 0, 0, 1, 0, 0, 0, 1, 0, 0, 0, 1, 0, 0, 0, 1, 0, 0, 0, 1, 0, 0, 0, 1, 0, 0, 0, 1, 0, 0, 0, 1, 0, 0, 0, 1, 0, 0, 0, 1, 0, 0, 0, 1, 0, 0, 0, 1, 0, 0, 0, 1, 0, 0, 0, 1, 0, 0, 0, 1, 0, 0, 0, 1, 0, 0, 0, 1, 0, 0, 0, 1, 0, 0, 0, 1, 0, 0, 0, 1, 0, 0, 0, 1, 0, 0, 0, 1, 0, 0, 0, 1, 0, 0, 0, 1, 0, 0, 0, 1, 0, 0, 0, 1, 0, 0, 0, 1, 0, 0, 0, 1, 0, 0, 0, 1, 0, 0, 0, 1, 0, 0, 0, 1, 0, 0, 0, 1, 0, 0, 0, 1, 0, 0, 0, 1, 0, 0, 0, 1, 0, 0, 0, 1, 0, 0, 0, 1, 0, 0, 0, 1, 0, 0, 0, 1, 0, 0, 0, 1, 0, 0, 0, 1, 0, 0, 0, 1, 0, 0, 0, 1, 0, 0, 0, 1, 0, 0, 0, 1, 0, 0, 0, 1, 0, 0, 0, 1, 0, 0, 0, 1, 0, 0, 0, 1, 0, 0, 0, 1, 0, 0, 0, 1, 0, 0, 0, 1, 0, 0, 0, 1, 0, 0, 0, 1, 0, 0, 0, 1, 0, 0, 0, 1, 0, 0, 0, 1, 0, 0, 0, 1, 0, 0, 0, 1, 0, 0, 0, 1, 0, 0, 0, 1, 0, 0, 0, 1, 0, 0, 0, 1, 0, 0, 0, 1, 0, 0, 0, 1, 0, 0, 0, 1, 0, 0, 0, 1, 0, 0, 0, 1, 0, 0, 0, 1, 0, 0, 0, 1, 0, 0, 0, 1, 0, 0, 0, 1, 0, 0, 0, 1, 0, 0, 0, 1, 0, 0, 0, 1, 0, 0, 0, 1, 0, 0, 0, 1, 0, 0, 0, 1, 0, 0, 0, 1, 0, 0, 0, 1, 0, 0, 0, 1, 0, 0, 0, 1, 0, 0, 0, 1, 0, 0, 0, 1, 0, 0, 0, 1, 0, 0, 0, 1, 0, 0, 0, 1, 0, 0, 0, 1, 0, 0, 0, 1, 0, 0, 0, 1, 0, 0, 0, 1, 0, 0, 0, 1, 0, 0, 0, 1, 0, 0, 0, 1, 0, 0, 0, 1, 0, 0, 0, 1, 0, 0, 0, 1, 0, 0, 0, 1, 0, 0, 0, 1, 0, 0, 0, 1, 0, 0, 0, 1, 0, 0, 0, 1, 0, 0, 0, 1, 0, 0, 0, 1, 0, 0, 0, 1, 0, 0, 0, 1, 0, 0, 0, 1, 0, 0, 0, 1, 0, 0, 0, 1, 0, 0, 0, 1, 0, 0, 0, 1, 0, 0, 0, 1, 0, 0, 0, 1, 0, 0, 0, 1, 0, 0, 0, 1, 0, 0, 0, 1, 0, 0, 0, 1, 0, 0, 0, 1, 0, 0, 0, 1, 0, 0, 0, 1, 0, 0, 0, 1, 0, 0, 0, 1, 0, 0, 0, 1, 0, 0, 0, 1, 0, 0, 0, 1, 0, 0, 0, 1, 0, 0, 0, 1, 0, 0, 0, 1, 0, 0, 0, 1, 0, 0, 0, 1, 0, 0, 0, 1, 0, 0, 0, 1, 0, 0, 0, 1, 0, 0, 0, 1, 0, 0, 0, 1, 0, 0, 0, 1, 0, 0, 0, 1, 0, 0, 0, 1, 0, 0, 0, 1, 0, 0, 0, 1, 0, 0, 0, 1, 0, 0, 0] (
                    elementSize = 4
                    interpolation = "vertex"
                )
                texCoord2f[] primvars:st = [(0.375, 0.57850695), (0.125, 0.57850695), (0.125, 0.5610375), (0.37565613, 0.5610375), (0.37565613, 0.5610375), (0.125, 0.5610375), (0.125, 0.5444441), (0.37759158, 0.5444441), (0.37759158, 0.5444441), (0.125, 0.5444441), (0.125, 0.52955866), (0.38070926, 0.52955866), (0.38070926, 0.52955866), (0.125, 0.52955866), (0.125, 0.5), (0.3848529, 0.5057093), (0.3848529, 0.5057093), (0.38977933, 0.24143612), (0.41944408, 0.24740848), (0.41944405, 0.50259155), (0.41944405, 0.50259155), (0.41944408, 0.24740848), (0.4360375, 0.2493439), (0.43603748, 0.5006561), (0.43603748, 0.5006561), (0.4360375, 0.2493439), (0.45350695, 0.25), (0.45350695, 0.5), (0.875, 0.57850695), (0.625, 0.57850695), (0.6243439, 0.5610375), (0.875, 0.5610375), (0.875, 0.5610375), (0.6243439, 0.5610375), (0.6224085, 0.5444441), (0.875, 0.5444441), (0.875, 0.5444441), (0.6224085, 0.5444441), (0.61929077, 0.5098529), (0.875, 0.5), (0.6164361, 0.23522067), (0.61929077, 0.5098529), (0.59544134, 0.5057093), (0.59544134, 0.24429075), (0.59544134, 0.24429075), (0.59544134, 0.5057093), (0.5805559, 0.50259155), (0.58055604, 0.24740848), (0.58055604, 0.24740848), (0.5805559, 0.50259155), (0.56396246, 0.5006561), (0.5639626, 0.2493439), (0.5639626, 0.2493439), (0.56396246, 0.5006561), (0.54649305, 0.5), (0.54649305, 0.25), (0.125, 0.67149305), (0.375, 0.67149305), (0.37565613, 0.68896246), (0.125, 0.6889625), (0.125, 0.6889625), (0.37565613, 0.68896246), (0.37759155, 0.7055559), (0.125, 0.705556), (0.125, 0.705556), (0.37759155, 0.7055559), (0.38070926, 0.72044134), (0.125, 0.72044134), (0.125, 0.72044134), (0.38070926, 0.72044134), (0.3848529, 0.74429077), (0.125, 0.75), (0.375, 1), (0.3848529, 0.74429077), (0.41944408, 0.7474085), (0.41944402, 1), (0.41944402, 1), (0.41944408, 0.7474085), (0.4360375, 0.7493439), (0.43603748, 1), (0.43603748, 1), (0.4360375, 0.7493439), (0.45350695, 0.75), (0.45350695, 1), (0.625, 0.67149305), (0.875, 0.67149305), (0.875, 0.68896246), (0.6243439, 0.68896246), (0.6243439, 0.68896246), (0.875, 0.68896246), (0.875, 0.705556), (0.6224085, 0.7055559), (0.6224085, 0.7055559), (0.875, 0.705556), (0.875, 0.75), (0.61929077, 0.7401471), (0.61929077, 0.7401471), (0.625, 1), (0.59544134, 1), (0.59544134, 0.74429077), (0.59544134, 0.74429077), (0.59544134, 1), (0.5805559, 1), (0.58055604, 0.7474085), (0.58055604, 0.7474085), (0.5805559, 1), (0.56396246, 1), (0.5639626, 0.7493439), (0.5639626, 0.7493439), (0.56396246, 1), (0.54649305, 1), (0.54649305, 0.75), (0.125, 0.57850695), (0.375, 0.57850695), (0.375, 0.67149305), (0.125, 0.67149305), (0.375, 0.07850695), (0.37696832, 0.061037507), (0.38277465, 0.04444405), (0.39212778, 0.029558662), (0.40455866, 0.017127743), (0.41944408, 0.007774627), (0.4360375, 0.001968333), (0.45350695, 0), (0.54649305, 0), (0.56396246, 0.001968333), (0.580556, 0.007774627), (0.59544134, 0.017127743), (0.6078723, 0.029558662), (0.61722535, 0.044444054), (0.6230316, 0.061037507), (0.625, 0.07850695), (0.625, 0.17149305), (0.6230317, 0.18896249), (0.6172254, 0.20555595), (0.6164361, 0.23522067), (0.59544134, 0.24429075), (0.58055604, 0.24740848), (0.5639626, 0.2493439), (0.54649305, 0.25), (0.45350695, 0.25), (0.4360375, 0.2493439), (0.41944408, 0.24740848), (0.38977933, 0.24143612), (0.39212775, 0.22044136), (0.38277462, 0.20555593), (0.37696832, 0.18896249), (0.375, 0.17149305), (0.45350695, 0.75), (0.54649305, 0.75), (0.54649305, 1), (0.45350695, 1), (0.625, 0.57850695), (0.875, 0.57850695), (0.875, 0.67149305), (0.625, 0.67149305), (0.45350695, 0.25), (0.54649305, 0.25), (0.54649305, 0.5), (0.45350695, 0.5), (0.375, 0.57850695), (0.37565613, 0.5610375), (0.37759158, 0.5444441), (0.38070926, 0.52955866), (0.3848529, 0.5057093), (0.41944405, 0.50259155), (0.43603748, 0.5006561), (0.45350695, 0.5), (0.54649305, 0.5), (0.56396246, 0.5006561), (0.5805559, 0.50259155), (0.59544134, 0.5057093), (0.61929077, 0.5098529), (0.6224085, 0.5444441), (0.6243439, 0.5610375), (0.625, 0.57850695), (0.625, 0.67149305), (0.6243439, 0.68896246), (0.6224085, 0.7055559), (0.61929077, 0.7401471), (0.59544134, 0.74429077), (0.58055604, 0.7474085), (0.5639626, 0.7493439), (0.54649305, 0.75), (0.45350695, 0.75), (0.4360375, 0.7493439), (0.41944408, 0.7474085), (0.3848529, 0.74429077), (0.38070926, 0.72044134), (0.37759155, 0.7055559), (0.37565613, 0.68896246), (0.375, 0.67149305), (0.375, 0.25), (0.625, 0.25), (0.625, 0.5), (0.375, 0.5), (0.375, 0.625), (0.625, 0.625), (0.625, 0.75), (0.375, 0.75), (0.375, 0.75), (0.625, 0.75), (0.625, 1), (0.375, 1), (0.125, 0.625), (0.375, 0.625), (0.375, 0.75), (0.125, 0.75), (0.625, 0.625), (0.87500006, 0.625), (0.875, 0.75), (0.625, 0.75), (0.125, 0.625), (0.125, 0.75), (0.125, 0.75), (0.125, 0.625), (0.87500006, 0.625), (0.875, 0.5), (0.875, 0.5), (0.875, 0.625), (0.375, 1), (0.625, 1), (0.625, 1), (0.375, 1), (0.625, 0.25), (0.375, 0.25), (0.375, 0.25), (0.625, 0.25), (0.375, 1), (0.625, 1), (0.625, 1), (0.375, 1), (0.375, 1), (0.625, 1), (0.625, 1), (0.375, 1), (0.375, 1), (0.625, 1), (0.625, 1), (0.375, 1), (0.375, 1), (0.625, 1), (0.625, 1), (0.375, 1), (0.375, 1), (0.625, 1), (0.625, 1), (0.375, 1), (0.375, 1), (0.625, 1), (0.625, 1), (0.375, 1), (0.375, 1), (0.625, 1), (0.625, 1), (0.375, 1), (0.375, 0), (0.625, 0), (0.625, 0.013200621), (0.375, 0.013200626), (0.375, 0.013200626), (0.625, 0.013200621), (0.625, 0.016407175), (0.375, 0.016407147), (0.375, 0.016407147), (0.625, 0.016407175), (0.625, 0.019848306), (0.375, 0.019848287), (0.375, 0.019848287), (0.625, 0.019848306), (0.625, 0.023480743), (0.375, 0.023480728), (0.375, 0.023480728), (0.625, 0.023480743), (0.625, 0.027258798), (0.375, 0.027258784), (0.375, 0.027258784), (0.625, 0.027258798), (0.625, 0.03113496), (0.375, 0.031134933), (0.375, 0.031134933), (0.625, 0.03113496), (0.625, 0.035060506), (0.375, 0.035060495), (0.625, 0.25), (0.375, 0.25), (0.375, 0.25), (0.625, 0.25), (0.625, 0.25), (0.375, 0.25), (0.375, 0.25), (0.625, 0.25), (0.625, 0.25), (0.375, 0.25), (0.375, 0.25), (0.625, 0.25), (0.625, 0.25), (0.375, 0.25), (0.375, 0.25), (0.625, 0.25), (0.625, 0.25), (0.375, 0.25), (0.375, 0.25), (0.625, 0.25), (0.625, 0.25), (0.375, 0.25), (0.375, 0.25), (0.625, 0.25), (0.625, 0.25), (0.375, 0.25), (0.375, 0.25), (0.625, 0.25), (0.625, 0.25), (0.375, 0.25), (0.375, 0.23679936), (0.625, 0.23679937), (0.625, 0.23679937), (0.375, 0.23679936), (0.375, 0.2335928), (0.625, 0.2335928), (0.625, 0.2335928), (0.375, 0.2335928), (0.375, 0.23015167), (0.625, 0.23015168), (0.625, 0.23015168), (0.375, 0.23015167), (0.375, 0.22651923), (0.625, 0.22651926), (0.625, 0.22651926), (0.375, 0.22651923), (0.375, 0.22274117), (0.625, 0.22274117), (0.625, 0.22274117), (0.375, 0.22274117), (0.37499997, 0.218865), (0.625, 0.21886502), (0.625, 0.21886502), (0.37499997, 0.218865), (0.375, 0.21493949), (0.625, 0.2149395), (0.625, 0.25), (0.375, 0.25), (0.375, 0.25), (0.625, 0.25), (0.375, 1), (0.625, 1), (0.625, 1), (0.375, 1), (0.875, 0.75), (0.87500006, 0.625), (0.875, 0.625), (0.875, 0.75), (0.125, 0.5), (0.125, 0.625), (0.125, 0.625), (0.125, 0.5), (0.625, 0.5), (0.875, 0.5), (0.87500006, 0.625), (0.625, 0.625), (0.125, 0.5), (0.375, 0.5), (0.375, 0.625), (0.125, 0.625), (0.375, 0.5), (0.625, 0.5), (0.625, 0.625), (0.375, 0.625), (0.625, 0.19962235), (0.375, 0.19962233), (0.375, 0.19741419), (0.625, 0.19741419), (0.625, 0.19741419), (0.375, 0.19741419), (0.375, 0.19505356), (0.625, 0.19505359), (0.625, 0.19505359), (0.375, 0.19505356), (0.375, 0.19263123), (0.625, 0.19263126), (0.625, 0.19263126), (0.375, 0.19263123), (0.375, 0.18891186), (0.625, 0.18891189), (0.625, 0.18891189), (0.375, 0.18891186), (0.375, 0.1877813), (0.625, 0.18778132), (0.625, 0.18778132), (0.375, 0.1877813), (0.375, 0.18704501), (0.625, 0.18704502), (0.625, 0.18704502), (0.375, 0.18704501), (0.37499997, 0.18632744), (0.625, 0.18632749), (0.625, 0.18632749), (0.37499997, 0.18632744), (0.375, 0.18565625), (0.625, 0.18565628), (0.375, 0.050377652), (0.625, 0.05037766), (0.625, 0.052585818), (0.375, 0.05258581), (0.375, 0.05258581), (0.625, 0.052585818), (0.625, 0.054946415), (0.375, 0.054946415), (0.375, 0.054946415), (0.625, 0.054946415), (0.625, 0.05736875), (0.375, 0.057368744), (0.375, 0.057368744), (0.625, 0.05736875), (0.625, 0.06108813), (0.375, 0.06108812), (0.375, 0.06108812), (0.625, 0.06108813), (0.625, 0.062218685), (0.375, 0.062218677), (0.375, 0.062218677), (0.625, 0.062218685), (0.625, 0.062954985), (0.375, 0.06295498), (0.375, 0.06295498), (0.625, 0.062954985), (0.625, 0.06367253), (0.375, 0.06367252), (0.375, 0.06367252), (0.625, 0.06367253), (0.625, 0.064343736), (0.375, 0.06434372), (0.375, 0.035060495), (0.625, 0.035060506), (0.625, 0.05037766), (0.375, 0.050377652), (0.375, 0.19962233), (0.625, 0.19962235), (0.625, 0.2149395), (0.375, 0.21493949), (0.375, 0.07262382), (0.625, 0.072623834), (0.625, 0.07319759), (0.375, 0.07319757), (0.375, 0.07319757), (0.625, 0.07319759), (0.625, 0.07381095), (0.375, 0.073810935), (0.375, 0.073810935), (0.625, 0.07381095), (0.625, 0.07444035), (0.375, 0.07444033), (0.375, 0.07444033), (0.625, 0.07444035), (0.625, 0.075406775), (0.375, 0.07540676), (0.375, 0.07540676), (0.625, 0.075406775), (0.625, 0.0796969), (0.375, 0.07969688), (0.375, 0.07969688), (0.625, 0.0796969), (0.62500006, 0.08249095), (0.375, 0.082490936), (0.375, 0.082490936), (0.62500006, 0.08249095), (0.625, 0.08521381), (0.375, 0.085213795), (0.375, 0.085213795), (0.625, 0.08521381), (0.625, 0.08776081), (0.375, 0.087760806), (0.625, 0.17737618), (0.375, 0.17737615), (0.375, 0.1768024), (0.62500006, 0.17680243), (0.62500006, 0.17680243), (0.375, 0.1768024), (0.375, 0.17618904), (0.625, 0.17618906), (0.625, 0.17618906), (0.375, 0.17618904), (0.375, 0.17555964), (0.625, 0.17555967), (0.625, 0.17555967), (0.375, 0.17555964), (0.375, 0.17459321), (0.625, 0.17459324), (0.625, 0.17459324), (0.375, 0.17459321), (0.375, 0.17030309), (0.625, 0.17030312), (0.625, 0.17030312), (0.375, 0.17030309), (0.375, 0.16750905), (0.625, 0.16750905), (0.625, 0.16750905), (0.375, 0.16750905), (0.37499997, 0.16478619), (0.625, 0.16478622), (0.625, 0.16478622), (0.37499997, 0.16478619), (0.375, 0.16223916), (0.625, 0.1622392), (0.125, 0.5), (0.125, 0.625), (0.125, 0.75), (0.125, 0.75), (0.125, 0.7497795), (0.12499999, 0.74912095), (0.125, 0.7480325), (0.125, 0.74652785), (0.125, 0.74462605), (0.125, 0.742351), (0.125, 0.739731), (0.12499999, 0.7367993), (0.125, 0.73359287), (0.125, 0.73015165), (0.125, 0.7265193), (0.125, 0.7227412), (0.125, 0.71886504), (0.125, 0.7149395), (0.125, 0.6996223), (0.124999985, 0.697422), (0.12500003, 0.6950906), (0.12499999, 0.69274354), (0.12500001, 0.69058996), (0.12500003, 0.6888784), (0.125, 0.6875204), (0.124999985, 0.6864445), (0.125, 0.6856562), (0.125, 0.6773761), (0.12499997, 0.6767325), (0.124999985, 0.6759139), (0.12500001, 0.67489535), (0.12499993, 0.6733295), (0.12499997, 0.670718), (0.12499997, 0.66772014), (0.12499997, 0.6648383), (0.125, 0.66223913), (0.125, 0.58776087), (0.124999985, 0.58516157), (0.12499995, 0.5822796), (0.124999985, 0.57928205), (0.12499999, 0.57667005), (0.125, 0.5751045), (0.12499997, 0.57408565), (0.12499999, 0.5732675), (0.125, 0.57262385), (0.125, 0.56434375), (0.124999985, 0.5635552), (0.124999985, 0.5624793), (0.12499996, 0.5611216), (0.12499998, 0.5594099), (0.12500001, 0.55725646), (0.125, 0.5549096), (0.12500003, 0.55257785), (0.125, 0.55037767), (0.125, 0.5350605), (0.125, 0.53113496), (0.125, 0.5272588), (0.12499999, 0.5234807), (0.125, 0.51984835), (0.125, 0.5164072), (0.12499999, 0.51320064), (0.125, 0.510269), (0.125, 0.5076491), (0.125, 0.50537395), (0.12499999, 0.5034721), (0.125, 0.50196755), (0.125, 0.50087905), (0.125, 0.5002205), (0.125, 0.5), (0.375, 0.087760806), (0.625, 0.08776081), (0.625, 0.1622392), (0.375, 0.16223916), (0.625, 0.072623834), (0.375, 0.07262382), (0.375, 0.06434372), (0.625, 0.064343736), (0.625, 0.18565628), (0.375, 0.18565625), (0.375, 0.17737615), (0.625, 0.17737618), (0.875, 0.75), (0.875, 0.625), (0.875, 0.5), (0.875, 0.5), (0.87499994, 0.5002205), (0.875, 0.50087905), (0.875, 0.50196755), (0.87500006, 0.5034721), (0.875, 0.50537395), (0.875, 0.5076491), (0.875, 0.51026905), (0.87499994, 0.51320064), (0.875, 0.5164072), (0.875, 0.51984835), (0.875, 0.5234808), (0.875, 0.5272588), (0.87499994, 0.53113496), (0.875, 0.5350605), (0.875, 0.55037767), (0.87499976, 0.5525778), (0.8750002, 0.5549096), (0.8749999, 0.5572564), (0.8750001, 0.55941015), (0.87500024, 0.5611217), (0.8750001, 0.5624793), (0.8749998, 0.5635552), (0.875, 0.56434375), (0.875, 0.57262385), (0.8749999, 0.57326746), (0.8749999, 0.5740857), (0.875, 0.5751044), (0.8749997, 0.5766701), (0.8749997, 0.5792818), (0.8749999, 0.5822796), (0.8749998, 0.58516127), (0.875, 0.5877608), (0.875, 0.6622392), (0.87499994, 0.6648385), (0.875, 0.6677204), (0.875, 0.67071795), (0.8749999, 0.67332965), (0.87500006, 0.6748954), (0.8749999, 0.67591417), (0.87500024, 0.67673266), (0.875, 0.6773762), (0.875, 0.6856563), (0.8749997, 0.6864447), (0.87499994, 0.6875207), (0.8749999, 0.6888783), (0.87499976, 0.69058996), (0.87500006, 0.69274384), (0.87500006, 0.69509053), (0.875, 0.6974223), (0.875, 0.6996224), (0.875, 0.71493953), (0.875, 0.71886504), (0.875, 0.7227412), (0.875, 0.7265192), (0.875, 0.73015165), (0.87500006, 0.73359287), (0.87499994, 0.7367993), (0.87500006, 0.7397311), (0.8750001, 0.742351), (0.875, 0.74462605), (0.875, 0.7465279), (0.875, 0.74803257), (0.875, 0.74912095), (0.8749999, 0.74977946), (0.875, 0.75)] (
                    interpolation = "faceVarying"
                )
                rel skel:skeleton = </roboticArm/Rig/Armature_render>
                matrix4d xformOp:transform = ( (0.8348838686943054, 0, 0, 0), (0, 0.4565824866294861, 0, 0), (0, 0, 0.8348838686943054, 0), (-1.1108174324035645, -3.2906733338222693e-8, 1.4974873065948486, 1) )
                uniform token[] xformOpOrder = ["xformOp:transform"]
            }

            def Mesh "handleL" (
                prepend apiSchemas = ["SkelBindingAPI"]
            )
            {
                int[] faceVertexCounts = [4, 4, 4, 4, 4, 4, 4, 4, 4, 4, 4, 4, 4, 4, 4, 4, 4, 4, 4, 4, 20, 4, 4, 20, 4, 4, 4, 4, 4, 4, 4, 4, 4, 4, 10, 4, 4, 10, 3, 3, 3, 3, 3, 3, 3, 3, 3, 3, 3, 3, 3, 3, 4, 4, 4, 4, 4, 4, 4, 5, 5, 4, 4, 5, 5]
                int[] faceVertexIndices = [3, 2, 5, 4, 2, 0, 7, 5, 1, 3, 4, 6, 0, 1, 6, 7, 35, 27, 34, 37, 37, 34, 33, 38, 38, 33, 32, 39, 39, 32, 31, 40, 40, 31, 30, 41, 41, 30, 29, 42, 42, 29, 28, 43, 43, 28, 26, 36, 17, 9, 16, 19, 19, 16, 15, 20, 20, 15, 14, 21, 21, 14, 13, 22, 22, 13, 12, 23, 23, 12, 11, 24, 24, 11, 10, 25, 25, 10, 8, 18, 2, 26, 28, 29, 30, 31, 32, 33, 34, 27, 8, 10, 11, 12, 13, 14, 15, 16, 9, 0, 27, 35, 18, 8, 9, 17, 1, 0, 35, 37, 38, 39, 40, 41, 42, 43, 36, 3, 1, 17, 19, 20, 21, 22, 23, 24, 25, 18, 2, 3, 36, 26, 50, 51, 45, 44, 4, 5, 46, 47, 47, 46, 51, 50, 59, 53, 58, 61, 61, 58, 57, 62, 62, 57, 56, 63, 63, 56, 55, 64, 64, 55, 54, 65, 65, 54, 52, 60, 49, 50, 44, 52, 54, 55, 56, 57, 58, 53, 60, 52, 44, 45, 48, 49, 53, 59, 51, 48, 59, 61, 62, 63, 64, 65, 60, 45, 66, 69, 68, 69, 70, 68, 70, 71, 68, 71, 72, 68, 72, 73, 68, 73, 74, 68, 74, 67, 68, 75, 78, 77, 78, 79, 77, 79, 80, 77, 80, 81, 77, 81, 82, 77, 82, 83, 77, 83, 76, 77, 75, 67, 74, 78, 78, 74, 73, 79, 79, 73, 72, 80, 80, 72, 71, 81, 81, 71, 70, 82, 82, 70, 69, 83, 83, 69, 66, 76, 5, 7, 66, 68, 46, 46, 68, 67, 48, 51, 7, 6, 76, 66, 67, 75, 49, 48, 6, 4, 47, 77, 76, 75, 77, 47, 50, 49]
                point3f[] points = [(-0.0144433975, -0.0144433305, -0.010815501), (-0.0144433975, -0.0144433305, 0.01081574), (-0.0144433975, 0.0144433305, -0.010815501), (-0.0144433975, 0.0144433305, 0.01081574), (-0.047418952, 0.007070735, 0.01081574), (-0.047418952, 0.007070735, -0.010815501), (-0.047418952, -0.0144433305, 0.01081574), (-0.047418952, -0.0144433305, -0.010815501), (0.014443159, -0.0045273043, -0.010815501), (0.004527134, -0.0144433305, -0.010815501), (0.0142526245, -0.006461825, -0.010815501), (0.013688345, -0.008322003, -0.010815501), (0.012772006, -0.010036353, -0.010815501), (0.011538822, -0.011538994, -0.010815501), (0.010036182, -0.012772178, -0.010815501), (0.008321831, -0.013688518, -0.010815501), (0.0064616534, -0.014252797, -0.010815501), (0.004527135, -0.0144433305, 0.01081574), (0.014443159, -0.0045273043, 0.01081574), (0.0064616553, -0.014252797, 0.01081574), (0.008321833, -0.013688518, 0.01081574), (0.0100361835, -0.012772178, 0.01081574), (0.011538822, -0.011538994, 0.01081574), (0.012772008, -0.010036353, 0.01081574), (0.013688346, -0.008322003, 0.01081574), (0.014252625, -0.006461825, 0.01081574), (0.004527135, 0.0144433305, -0.010815501), (0.014443159, 0.0045273043, -0.010815501), (0.0064616553, 0.014252797, -0.010815501), (0.008321833, 0.013688518, -0.010815501), (0.0100361835, 0.012772178, -0.010815501), (0.011538822, 0.011538994, -0.010815501), (0.012772008, 0.010036353, -0.010815501), (0.013688346, 0.008322003, -0.010815501), (0.014252625, 0.006461825, -0.010815501), (0.014443159, 0.0045273043, 0.01081574), (0.004527134, 0.0144433305, 0.01081574), (0.0142526245, 0.006461825, 0.01081574), (0.013688345, 0.008322003, 0.01081574), (0.012772006, 0.010036353, 0.01081574), (0.011538822, 0.011538994, 0.01081574), (0.010036182, 0.012772178, 0.01081574), (0.008321831, 0.013688518, 0.01081574), (0.0064616534, 0.014252797, 0.01081574), (-0.21445894, -0.048424546, 0.01081574), (-0.21445894, -0.048424546, -0.010815501), (-0.1144238, 0.03058947, -0.010815501), (-0.1144238, 0.03058947, 0.01081574), (-0.14211518, -0.037117906, -0.010815501), (-0.14211518, -0.037117906, 0.01081574), (-0.17654867, -0.03336053, 0.01081574), (-0.17654867, -0.03336053, -0.010815501), (-0.16400316, -0.048424546, 0.01081574), (-0.14734334, -0.041927304, 0.01081574), (-0.16127865, -0.048203155, 0.01081574), (-0.15825848, -0.04755408, 0.01081574), (-0.15514846, -0.04652155, 0.01081574), (-0.15216056, -0.045175925, 0.01081574), (-0.14949837, -0.043608915, 0.01081574), (-0.14734334, -0.041927304, -0.010815501), (-0.16400316, -0.048424546, -0.010815501), (-0.14949837, -0.043608915, -0.010815501), (-0.15216056, -0.045175925, -0.010815501), (-0.15514846, -0.04652155, -0.010815501), (-0.15825848, -0.04755408, -0.010815501), (-0.16127865, -0.048203155, -0.010815501), (-0.08530388, -0.004459488, -0.010815501), (-0.114474736, -0.01169138, -0.010815501), (-0.10918331, 0.015394604, -0.010815501), (-0.08930581, -0.0037789159, -0.010815501), (-0.09373922, -0.0037139934, -0.010815501), (-0.09838181, -0.0042679766, -0.010815501), (-0.10300077, -0.005413087, -0.010815501), (-0.10736449, -0.007091903, -0.010815501), (-0.11125416, -0.0092202425, -0.010815501), (-0.114474736, -0.011691382, 0.01081574), (-0.08530388, -0.0044594877, 0.01081574), (-0.10918331, 0.015394604, 0.01081574), (-0.11125416, -0.0092202425, 0.01081574), (-0.10736449, -0.007091902, 0.01081574), (-0.10300077, -0.005413086, 0.01081574), (-0.09838181, -0.0042679757, 0.01081574), (-0.09373922, -0.0037139924, 0.01081574), (-0.08930581, -0.003778915, 0.01081574)]
                matrix4d primvars:skel:geomBindTransform = ( (1, 0, 0, 0), (0, -1, 0, 0), (0, 0, 1, 0), (-1.2103700637817383, -0.05034394562244415, 1.4976130723953247, 1) )
                int[] primvars:skel:jointIndices = [5, 0, 0, 0, 5, 0, 0, 0, 5, 0, 0, 0, 5, 0, 0, 0, 5, 0, 0, 0, 5, 0, 0, 0, 5, 0, 0, 0, 5, 0, 0, 0, 5, 0, 0, 0, 5, 0, 0, 0, 5, 0, 0, 0, 5, 0, 0, 0, 5, 0, 0, 0, 5, 0, 0, 0, 5, 0, 0, 0, 5, 0, 0, 0, 5, 0, 0, 0, 5, 0, 0, 0, 5, 0, 0, 0, 5, 0, 0, 0, 5, 0, 0, 0, 5, 0, 0, 0, 5, 0, 0, 0, 5, 0, 0, 0, 5, 0, 0, 0, 5, 0, 0, 0, 5, 0, 0, 0, 5, 0, 0, 0, 5, 0, 0, 0, 5, 0, 0, 0, 5, 0, 0, 0, 5, 0, 0, 0, 5, 0, 0, 0, 5, 0, 0, 0, 5, 0, 0, 0, 5, 0, 0, 0, 5, 0, 0, 0, 5, 0, 0, 0, 5, 0, 0, 0, 5, 0, 0, 0, 5, 0, 0, 0, 5, 0, 0, 0, 5, 0, 0, 0, 5, 0, 0, 0, 5, 0, 0, 0, 5, 0, 0, 0, 5, 0, 0, 0, 5, 0, 0, 0, 5, 0, 0, 0, 5, 0, 0, 0, 5, 0, 0, 0, 5, 0, 0, 0, 5, 0, 0, 0, 5, 0, 0, 0, 5, 0, 0, 0, 5, 0, 0, 0, 5, 0, 0, 0, 5, 0, 0, 0, 5, 0, 0, 0, 5, 0, 0, 0, 5, 0, 0, 0, 5, 0, 0, 0, 5, 0, 0, 0, 5, 0, 0, 0, 5, 0, 0, 0, 5, 0, 0, 0, 5, 0, 0, 0, 5, 0, 0, 0, 5, 0, 0, 0, 5, 0, 0, 0, 5, 0, 0, 0, 5, 0, 0, 0, 5, 0, 0, 0, 5, 0, 0, 0, 5, 0, 0, 0, 5, 0, 0, 0, 5, 0, 0, 0, 5, 0, 0, 0, 5, 0, 0, 0, 5, 0, 0, 0, 5, 0, 0, 0, 5, 0, 0, 0, 5, 0, 0, 0, 5, 0, 0, 0] (
                    elementSize = 4
                    interpolation = "vertex"
                )
                float[] primvars:skel:jointWeights = [1, 0, 0, 0, 1, 0, 0, 0, 1, 0, 0, 0, 1, 0, 0, 0, 1, 0, 0, 0, 1, 0, 0, 0, 1, 0, 0, 0, 1, 0, 0, 0, 1, 0, 0, 0, 1, 0, 0, 0, 1, 0, 0, 0, 1, 0, 0, 0, 1, 0, 0, 0, 1, 0, 0, 0, 1, 0, 0, 0, 1, 0, 0, 0, 1, 0, 0, 0, 1, 0, 0, 0, 1, 0, 0, 0, 1, 0, 0, 0, 1, 0, 0, 0, 1, 0, 0, 0, 1, 0, 0, 0, 1, 0, 0, 0, 1, 0, 0, 0, 1, 0, 0, 0, 1, 0, 0, 0, 1, 0, 0, 0, 1, 0, 0, 0, 1, 0, 0, 0, 1, 0, 0, 0, 1, 0, 0, 0, 1, 0, 0, 0, 1, 0, 0, 0, 1, 0, 0, 0, 1, 0, 0, 0, 1, 0, 0, 0, 1, 0, 0, 0, 1, 0, 0, 0, 1, 0, 0, 0, 1, 0, 0, 0, 1, 0, 0, 0, 1, 0, 0, 0, 1, 0, 0, 0, 1, 0, 0, 0, 1, 0, 0, 0, 1, 0, 0, 0, 1, 0, 0, 0, 1, 0, 0, 0, 1, 0, 0, 0, 1, 0, 0, 0, 1, 0, 0, 0, 1, 0, 0, 0, 1, 0, 0, 0, 1, 0, 0, 0, 1, 0, 0, 0, 1, 0, 0, 0, 1, 0, 0, 0, 1, 0, 0, 0, 1, 0, 0, 0, 1, 0, 0, 0, 1, 0, 0, 0, 1, 0, 0, 0, 1, 0, 0, 0, 1, 0, 0, 0, 1, 0, 0, 0, 1, 0, 0, 0, 1, 0, 0, 0, 1, 0, 0, 0, 1, 0, 0, 0, 1, 0, 0, 0, 1, 0, 0, 0, 1, 0, 0, 0, 1, 0, 0, 0, 1, 0, 0, 0, 1, 0, 0, 0, 1, 0, 0, 0, 1, 0, 0, 0, 1, 0, 0, 0, 1, 0, 0, 0, 1, 0, 0, 0, 1, 0, 0, 0, 1, 0, 0, 0, 1, 0, 0, 0] (
                    elementSize = 4
                    interpolation = "vertex"
                )
                texCoord2f[] primvars:st = [(0.625, 0.25), (0.375, 0.25), (0.375, 0.25), (0.625, 0.25), (0.125, 0.5), (0.125, 0.75), (0.125, 0.75), (0.125, 0.5), (0.875, 0.75), (0.875, 0.5), (0.875, 0.5), (0.875, 0.75), (0.375, 1), (0.625, 1), (0.625, 1), (0.375, 1), (0.625, 0.5858184), (0.375, 0.5858184), (0.3744504, 0.56907606), (0.6255497, 0.56907606), (0.6255497, 0.56907606), (0.3744504, 0.56907606), (0.3728225, 0.5529771), (0.62717754, 0.5529771), (0.62717754, 0.5529771), (0.3728225, 0.5529771), (0.370179, 0.53814024), (0.62982106, 0.53814024), (0.62982106, 0.53814024), (0.370179, 0.53814024), (0.36662143, 0.50837857), (0.6333786, 0.5083785), (0.6333786, 0.5083785), (0.36662143, 0.50837857), (0.36228657, 0.47939414), (0.6377135, 0.47939414), (0.6377135, 0.47939414), (0.36228657, 0.47939414), (0.3573409, 0.4668593), (0.6426591, 0.46685934), (0.6426591, 0.46685934), (0.3573409, 0.4668593), (0.3519746, 0.45449883), (0.64802545, 0.45449877), (0.64802545, 0.45449877), (0.3519746, 0.45449883), (0.3463938, 0.4427876), (0.6536063, 0.44278753), (0.6536063, 0.8072125), (0.3463938, 0.80721253), (0.35197458, 0.79550123), (0.64802545, 0.79550123), (0.64802545, 0.79550123), (0.35197458, 0.79550123), (0.3573409, 0.7831408), (0.6426591, 0.78314066), (0.6426591, 0.78314066), (0.3573409, 0.7831408), (0.36228654, 0.7706059), (0.63771343, 0.7706059), (0.63771343, 0.7706059), (0.36228654, 0.7706059), (0.36662143, 0.7416215), (0.63337857, 0.74162143), (0.63337857, 0.74162143), (0.36662143, 0.7416215), (0.370179, 0.7118598), (0.62982106, 0.7118597), (0.62982106, 0.7118597), (0.370179, 0.7118598), (0.37282246, 0.6970229), (0.62717754, 0.6970229), (0.62717754, 0.6970229), (0.37282246, 0.6970229), (0.37445033, 0.68092394), (0.6255497, 0.68092394), (0.6255497, 0.68092394), (0.37445033, 0.68092394), (0.375, 0.66418165), (0.625, 0.6641816), (0.125, 0.5), (0.3463938, 0.4427876), (0.3519746, 0.45449883), (0.3573409, 0.4668593), (0.36228657, 0.47939414), (0.36662143, 0.50837857), (0.370179, 0.53814024), (0.3728225, 0.5529771), (0.3744504, 0.56907606), (0.375, 0.5858184), (0.375, 0.66418165), (0.37445033, 0.68092394), (0.37282246, 0.6970229), (0.370179, 0.7118598), (0.36662143, 0.7416215), (0.36228654, 0.7706059), (0.3573409, 0.7831408), (0.35197458, 0.79550123), (0.3463938, 0.80721253), (0.125, 0.75), (0.375, 0.5858184), (0.625, 0.5858184), (0.625, 0.6641816), (0.375, 0.66418165), (0.3463938, 0.80721253), (0.6536063, 0.8072125), (0.625, 1), (0.375, 1), (0.625, 0.5858184), (0.6255497, 0.56907606), (0.62717754, 0.5529771), (0.62982106, 0.53814024), (0.6333786, 0.5083785), (0.6377135, 0.47939414), (0.6426591, 0.46685934), (0.64802545, 0.45449877), (0.6536063, 0.44278753), (0.875, 0.5), (0.875, 0.75), (0.6536063, 0.8072125), (0.64802545, 0.79550123), (0.6426591, 0.78314066), (0.63771343, 0.7706059), (0.63337857, 0.74162143), (0.62982106, 0.7118597), (0.62717754, 0.6970229), (0.6255497, 0.68092394), (0.625, 0.6641816), (0.375, 0.25), (0.625, 0.25), (0.6536063, 0.44278753), (0.3463938, 0.4427876), (0.625, 0.25), (0.375, 0.25), (0.375, 0.25), (0.625, 0.25), (0.625, 0.25), (0.375, 0.25), (0.375, 0.25), (0.625, 0.25), (0.625, 0.25), (0.375, 0.25), (0.375, 0.25), (0.625, 0.25), (0.375, 1), (0.625, 1), (0.625, 1), (0.375, 1), (0.375, 1), (0.625, 1), (0.625, 1), (0.375, 1), (0.375, 1), (0.625, 1), (0.625, 1), (0.375, 1), (0.375, 0), (0.625, 0), (0.625, 0.016036656), (0.375, 0.016036645), (0.375, 0.016036645), (0.625, 0.016036656), (0.625, 0.028609658), (0.375, 0.028609648), (0.375, 0.028609648), (0.625, 0.028609658), (0.625, 0.039951846), (0.375, 0.039951846), (0.875, 0.7499838), (0.875, 0.5000117), (0.875, 0.5), (0.875, 0.7100482), (0.87500006, 0.7195999), (0.875, 0.72735286), (0.8749999, 0.7342806), (0.875, 0.7422979), (0.875, 0.7480061), (0.875, 0.7499907), (0.375, 0.039951846), (0.625, 0.039951846), (0.625, 0.25), (0.375, 0.25), (0.375, 1), (0.625, 1), (0.625, 1), (0.375, 1), (0.125, 0.50001174), (0.125, 0.7499838), (0.125, 0.7499907), (0.12499999, 0.7480061), (0.125, 0.7422979), (0.125, 0.73428065), (0.125, 0.7273529), (0.125, 0.7195999), (0.125, 0.7100482), (0.125, 0.5), (0.125, 0.75), (0.12500001, 0.83094317), (0.125, 0.6619035), (0.12500001, 0.83094317), (0.124999985, 0.807747), (0.125, 0.6619035), (0.124999985, 0.807747), (0.125, 0.74999994), (0.125, 0.6619035), (0.125, 0.74999994), (0.125, 0.74999875), (0.125, 0.6619035), (0.125, 0.74999875), (0.125, 0.7499974), (0.125, 0.6619035), (0.125, 0.7499974), (0.125, 0.7499961), (0.125, 0.6619035), (0.125, 0.7499961), (0.125, 0.74999493), (0.125, 0.6619035), (0.87500006, 0.749995), (0.87500006, 0.752335), (0.875, 0.6619035), (0.87500006, 0.752335), (0.8750001, 0.75913906), (0.87500006, 0.6619035), (0.8750001, 0.75913906), (0.87500006, 0.7499987), (0.87500006, 0.6619035), (0.87500006, 0.7499987), (0.875, 0.75), (0.87500006, 0.6619035), (0.875, 0.75), (0.87500006, 0.75000006), (0.87500006, 0.6619035), (0.87500006, 0.75000006), (0.87500006, 0.75000006), (0.87500006, 0.6619035), (0.87500006, 0.75000006), (0.87500006, 0.75000006), (0.87500006, 0.6619035), (0.625, 1), (0.375, 1), (0.375, 1), (0.625, 1), (0.625, 1), (0.375, 1), (0.375, 1), (0.625, 1), (0.625, 1), (0.375, 1), (0.375, 1), (0.625, 1), (0.625, 1), (0.375, 1), (0.375, 1), (0.625, 1), (0.625, 1), (0.375, 1), (0.375, 1), (0.625, 1), (0.625, 1), (0.375, 1), (0.37500003, 1), (0.625, 1), (0.625, 1), (0.37500003, 1), (0.375, 1), (0.625, 1), (0.125, 0.5), (0.125, 0.75), (0.125, 0.75), (0.125, 0.6619035), (0.125, 0.5), (0.125, 0.5), (0.125, 0.6619035), (0.125, 0.74999493), (0.125, 0.7499838), (0.125, 0.50001174), (0.375, 1), (0.625, 1), (0.625, 1), (0.375, 1), (0.375, 1), (0.625, 1), (0.625, 1), (0.375, 1), (0.875, 0.75), (0.875, 0.5), (0.875, 0.5), (0.875, 0.6619035), (0.875, 0.75000006), (0.87500006, 0.749995), (0.875, 0.6619035), (0.875, 0.5), (0.875, 0.5000117), (0.875, 0.7499838)] (
                    interpolation = "faceVarying"
                )
                rel skel:skeleton = </roboticArm/Rig/Armature_render>
                matrix4d xformOp:transform = ( (1, 0, 0, 0), (0, -1, 0, 0), (0, 0, 1, 0), (-1.2103700637817383, -0.05034394562244415, 1.4976130723953247, 1) )
                uniform token[] xformOpOrder = ["xformOp:transform"]
            }

            def Mesh "handleR" (
                prepend apiSchemas = ["SkelBindingAPI"]
            )
            {
                int[] faceVertexCounts = [4, 4, 4, 4, 4, 4, 4, 4, 4, 4, 4, 4, 4, 4, 4, 4, 4, 4, 4, 4, 20, 4, 4, 20, 4, 4, 4, 4, 4, 4, 4, 4, 4, 4, 10, 4, 4, 10, 3, 3, 3, 3, 3, 3, 3, 3, 3, 3, 3, 3, 3, 3, 4, 4, 4, 4, 4, 4, 4, 5, 5, 4, 4, 5, 5]
                int[] faceVertexIndices = [3, 2, 5, 4, 2, 0, 7, 5, 1, 3, 4, 6, 0, 1, 6, 7, 35, 27, 34, 37, 37, 34, 33, 38, 38, 33, 32, 39, 39, 32, 31, 40, 40, 31, 30, 41, 41, 30, 29, 42, 42, 29, 28, 43, 43, 28, 26, 36, 17, 9, 16, 19, 19, 16, 15, 20, 20, 15, 14, 21, 21, 14, 13, 22, 22, 13, 12, 23, 23, 12, 11, 24, 24, 11, 10, 25, 25, 10, 8, 18, 2, 26, 28, 29, 30, 31, 32, 33, 34, 27, 8, 10, 11, 12, 13, 14, 15, 16, 9, 0, 27, 35, 18, 8, 9, 17, 1, 0, 35, 37, 38, 39, 40, 41, 42, 43, 36, 3, 1, 17, 19, 20, 21, 22, 23, 24, 25, 18, 2, 3, 36, 26, 50, 51, 45, 44, 4, 5, 46, 47, 47, 46, 51, 50, 59, 53, 58, 61, 61, 58, 57, 62, 62, 57, 56, 63, 63, 56, 55, 64, 64, 55, 54, 65, 65, 54, 52, 60, 49, 50, 44, 52, 54, 55, 56, 57, 58, 53, 60, 52, 44, 45, 48, 49, 53, 59, 51, 48, 59, 61, 62, 63, 64, 65, 60, 45, 66, 69, 68, 69, 70, 68, 70, 71, 68, 71, 72, 68, 72, 73, 68, 73, 74, 68, 74, 67, 68, 75, 78, 77, 78, 79, 77, 79, 80, 77, 80, 81, 77, 81, 82, 77, 82, 83, 77, 83, 76, 77, 75, 67, 74, 78, 78, 74, 73, 79, 79, 73, 72, 80, 80, 72, 71, 81, 81, 71, 70, 82, 82, 70, 69, 83, 83, 69, 66, 76, 5, 7, 66, 68, 46, 46, 68, 67, 48, 51, 7, 6, 76, 66, 67, 75, 49, 48, 6, 4, 47, 77, 76, 75, 77, 47, 50, 49]
                point3f[] points = [(-0.0144433975, -0.0144433305, -0.010815501), (-0.0144433975, -0.0144433305, 0.01081574), (-0.0144433975, 0.0144433305, -0.010815501), (-0.0144433975, 0.0144433305, 0.01081574), (-0.047418952, 0.007070735, 0.01081574), (-0.047418952, 0.007070735, -0.010815501), (-0.047418952, -0.0144433305, 0.01081574), (-0.047418952, -0.0144433305, -0.010815501), (0.014443159, -0.0045273043, -0.010815501), (0.004527134, -0.0144433305, -0.010815501), (0.0142526245, -0.006461825, -0.010815501), (0.013688345, -0.008322003, -0.010815501), (0.012772006, -0.010036353, -0.010815501), (0.011538822, -0.011538994, -0.010815501), (0.010036182, -0.012772178, -0.010815501), (0.008321831, -0.013688518, -0.010815501), (0.0064616534, -0.014252797, -0.010815501), (0.004527135, -0.0144433305, 0.01081574), (0.014443159, -0.0045273043, 0.01081574), (0.0064616553, -0.014252797, 0.01081574), (0.008321833, -0.013688518, 0.01081574), (0.0100361835, -0.012772178, 0.01081574), (0.011538822, -0.011538994, 0.01081574), (0.012772008, -0.010036353, 0.01081574), (0.013688346, -0.008322003, 0.01081574), (0.014252625, -0.006461825, 0.01081574), (0.004527135, 0.0144433305, -0.010815501), (0.014443159, 0.0045273043, -0.010815501), (0.0064616553, 0.014252797, -0.010815501), (0.008321833, 0.013688518, -0.010815501), (0.0100361835, 0.012772178, -0.010815501), (0.011538822, 0.011538994, -0.010815501), (0.012772008, 0.010036353, -0.010815501), (0.013688346, 0.008322003, -0.010815501), (0.014252625, 0.006461825, -0.010815501), (0.014443159, 0.0045273043, 0.01081574), (0.004527134, 0.0144433305, 0.01081574), (0.0142526245, 0.006461825, 0.01081574), (0.013688345, 0.008322003, 0.01081574), (0.012772006, 0.010036353, 0.01081574), (0.011538822, 0.011538994, 0.01081574), (0.010036182, 0.012772178, 0.01081574), (0.008321831, 0.013688518, 0.01081574), (0.0064616534, 0.014252797, 0.01081574), (-0.21445894, -0.048424546, 0.01081574), (-0.21445894, -0.048424546, -0.010815501), (-0.1144238, 0.03058947, -0.010815501), (-0.1144238, 0.03058947, 0.01081574), (-0.14211518, -0.037117906, -0.010815501), (-0.14211518, -0.037117906, 0.01081574), (-0.17654867, -0.03336053, 0.01081574), (-0.17654867, -0.03336053, -0.010815501), (-0.16400316, -0.048424546, 0.01081574), (-0.14734334, -0.041927304, 0.01081574), (-0.16127865, -0.048203155, 0.01081574), (-0.15825848, -0.04755408, 0.01081574), (-0.15514846, -0.04652155, 0.01081574), (-0.15216056, -0.045175925, 0.01081574), (-0.14949837, -0.043608915, 0.01081574), (-0.14734334, -0.041927304, -0.010815501), (-0.16400316, -0.048424546, -0.010815501), (-0.14949837, -0.043608915, -0.010815501), (-0.15216056, -0.045175925, -0.010815501), (-0.15514846, -0.04652155, -0.010815501), (-0.15825848, -0.04755408, -0.010815501), (-0.16127865, -0.048203155, -0.010815501), (-0.08530388, -0.004459488, -0.010815501), (-0.114474736, -0.01169138, -0.010815501), (-0.10918331, 0.015394604, -0.010815501), (-0.08930581, -0.0037789159, -0.010815501), (-0.09373922, -0.0037139934, -0.010815501), (-0.09838181, -0.0042679766, -0.010815501), (-0.10300077, -0.005413087, -0.010815501), (-0.10736449, -0.007091903, -0.010815501), (-0.11125416, -0.0092202425, -0.010815501), (-0.114474736, -0.011691382, 0.01081574), (-0.08530388, -0.0044594877, 0.01081574), (-0.10918331, 0.015394604, 0.01081574), (-0.11125416, -0.0092202425, 0.01081574), (-0.10736449, -0.007091902, 0.01081574), (-0.10300077, -0.005413086, 0.01081574), (-0.09838181, -0.0042679757, 0.01081574), (-0.09373922, -0.0037139924, 0.01081574), (-0.08930581, -0.003778915, 0.01081574)]
                matrix4d primvars:skel:geomBindTransform = ( (1, 0, 0, 0), (0, 1, 0, 0), (0, 0, 1, 0), (-1.2103700637817383, 0.050343893468379974, 1.4976130723953247, 1) )
                int[] primvars:skel:jointIndices = [4, 0, 0, 0, 4, 0, 0, 0, 4, 0, 0, 0, 4, 0, 0, 0, 4, 0, 0, 0, 4, 0, 0, 0, 4, 0, 0, 0, 4, 0, 0, 0, 4, 0, 0, 0, 4, 0, 0, 0, 4, 0, 0, 0, 4, 0, 0, 0, 4, 0, 0, 0, 4, 0, 0, 0, 4, 0, 0, 0, 4, 0, 0, 0, 4, 0, 0, 0, 4, 0, 0, 0, 4, 0, 0, 0, 4, 0, 0, 0, 4, 0, 0, 0, 4, 0, 0, 0, 4, 0, 0, 0, 4, 0, 0, 0, 4, 0, 0, 0, 4, 0, 0, 0, 4, 0, 0, 0, 4, 0, 0, 0, 4, 0, 0, 0, 4, 0, 0, 0, 4, 0, 0, 0, 4, 0, 0, 0, 4, 0, 0, 0, 4, 0, 0, 0, 4, 0, 0, 0, 4, 0, 0, 0, 4, 0, 0, 0, 4, 0, 0, 0, 4, 0, 0, 0, 4, 0, 0, 0, 4, 0, 0, 0, 4, 0, 0, 0, 4, 0, 0, 0, 4, 0, 0, 0, 4, 0, 0, 0, 4, 0, 0, 0, 4, 0, 0, 0, 4, 0, 0, 0, 4, 0, 0, 0, 4, 0, 0, 0, 4, 0, 0, 0, 4, 0, 0, 0, 4, 0, 0, 0, 4, 0, 0, 0, 4, 0, 0, 0, 4, 0, 0, 0, 4, 0, 0, 0, 4, 0, 0, 0, 4, 0, 0, 0, 4, 0, 0, 0, 4, 0, 0, 0, 4, 0, 0, 0, 4, 0, 0, 0, 4, 0, 0, 0, 4, 0, 0, 0, 4, 0, 0, 0, 4, 0, 0, 0, 4, 0, 0, 0, 4, 0, 0, 0, 4, 0, 0, 0, 4, 0, 0, 0, 4, 0, 0, 0, 4, 0, 0, 0, 4, 0, 0, 0, 4, 0, 0, 0, 4, 0, 0, 0, 4, 0, 0, 0, 4, 0, 0, 0, 4, 0, 0, 0, 4, 0, 0, 0, 4, 0, 0, 0, 4, 0, 0, 0, 4, 0, 0, 0, 4, 0, 0, 0] (
                    elementSize = 4
                    interpolation = "vertex"
                )
                float[] primvars:skel:jointWeights = [1, 0, 0, 0, 1, 0, 0, 0, 1, 0, 0, 0, 1, 0, 0, 0, 1, 0, 0, 0, 1, 0, 0, 0, 1, 0, 0, 0, 1, 0, 0, 0, 1, 0, 0, 0, 1, 0, 0, 0, 1, 0, 0, 0, 1, 0, 0, 0, 1, 0, 0, 0, 1, 0, 0, 0, 1, 0, 0, 0, 1, 0, 0, 0, 1, 0, 0, 0, 1, 0, 0, 0, 1, 0, 0, 0, 1, 0, 0, 0, 1, 0, 0, 0, 1, 0, 0, 0, 1, 0, 0, 0, 1, 0, 0, 0, 1, 0, 0, 0, 1, 0, 0, 0, 1, 0, 0, 0, 1, 0, 0, 0, 1, 0, 0, 0, 1, 0, 0, 0, 1, 0, 0, 0, 1, 0, 0, 0, 1, 0, 0, 0, 1, 0, 0, 0, 1, 0, 0, 0, 1, 0, 0, 0, 1, 0, 0, 0, 1, 0, 0, 0, 1, 0, 0, 0, 1, 0, 0, 0, 1, 0, 0, 0, 1, 0, 0, 0, 1, 0, 0, 0, 1, 0, 0, 0, 1, 0, 0, 0, 1, 0, 0, 0, 1, 0, 0, 0, 1, 0, 0, 0, 1, 0, 0, 0, 1, 0, 0, 0, 1, 0, 0, 0, 1, 0, 0, 0, 1, 0, 0, 0, 1, 0, 0, 0, 1, 0, 0, 0, 1, 0, 0, 0, 1, 0, 0, 0, 1, 0, 0, 0, 1, 0, 0, 0, 1, 0, 0, 0, 1, 0, 0, 0, 1, 0, 0, 0, 1, 0, 0, 0, 1, 0, 0, 0, 1, 0, 0, 0, 1, 0, 0, 0, 1, 0, 0, 0, 1, 0, 0, 0, 1, 0, 0, 0, 1, 0, 0, 0, 1, 0, 0, 0, 1, 0, 0, 0, 1, 0, 0, 0, 1, 0, 0, 0, 1, 0, 0, 0, 1, 0, 0, 0, 1, 0, 0, 0, 1, 0, 0, 0, 1, 0, 0, 0, 1, 0, 0, 0, 1, 0, 0, 0, 1, 0, 0, 0, 1, 0, 0, 0, 1, 0, 0, 0] (
                    elementSize = 4
                    interpolation = "vertex"
                )
                texCoord2f[] primvars:st = [(0.625, 0.25), (0.375, 0.25), (0.375, 0.25), (0.625, 0.25), (0.125, 0.5), (0.125, 0.75), (0.125, 0.75), (0.125, 0.5), (0.875, 0.75), (0.875, 0.5), (0.875, 0.5), (0.875, 0.75), (0.375, 1), (0.625, 1), (0.625, 1), (0.375, 1), (0.625, 0.5858184), (0.375, 0.5858184), (0.3744504, 0.56907606), (0.6255497, 0.56907606), (0.6255497, 0.56907606), (0.3744504, 0.56907606), (0.3728225, 0.5529771), (0.62717754, 0.5529771), (0.62717754, 0.5529771), (0.3728225, 0.5529771), (0.370179, 0.53814024), (0.62982106, 0.53814024), (0.62982106, 0.53814024), (0.370179, 0.53814024), (0.36662143, 0.50837857), (0.6333786, 0.5083785), (0.6333786, 0.5083785), (0.36662143, 0.50837857), (0.36228657, 0.47939414), (0.6377135, 0.47939414), (0.6377135, 0.47939414), (0.36228657, 0.47939414), (0.3573409, 0.4668593), (0.6426591, 0.46685934), (0.6426591, 0.46685934), (0.3573409, 0.4668593), (0.3519746, 0.45449883), (0.64802545, 0.45449877), (0.64802545, 0.45449877), (0.3519746, 0.45449883), (0.3463938, 0.4427876), (0.6536063, 0.44278753), (0.6536063, 0.8072125), (0.3463938, 0.80721253), (0.35197458, 0.79550123), (0.64802545, 0.79550123), (0.64802545, 0.79550123), (0.35197458, 0.79550123), (0.3573409, 0.7831408), (0.6426591, 0.78314066), (0.6426591, 0.78314066), (0.3573409, 0.7831408), (0.36228654, 0.7706059), (0.63771343, 0.7706059), (0.63771343, 0.7706059), (0.36228654, 0.7706059), (0.36662143, 0.7416215), (0.63337857, 0.74162143), (0.63337857, 0.74162143), (0.36662143, 0.7416215), (0.370179, 0.7118598), (0.62982106, 0.7118597), (0.62982106, 0.7118597), (0.370179, 0.7118598), (0.37282246, 0.6970229), (0.62717754, 0.6970229), (0.62717754, 0.6970229), (0.37282246, 0.6970229), (0.37445033, 0.68092394), (0.6255497, 0.68092394), (0.6255497, 0.68092394), (0.37445033, 0.68092394), (0.375, 0.66418165), (0.625, 0.6641816), (0.125, 0.5), (0.3463938, 0.4427876), (0.3519746, 0.45449883), (0.3573409, 0.4668593), (0.36228657, 0.47939414), (0.36662143, 0.50837857), (0.370179, 0.53814024), (0.3728225, 0.5529771), (0.3744504, 0.56907606), (0.375, 0.5858184), (0.375, 0.66418165), (0.37445033, 0.68092394), (0.37282246, 0.6970229), (0.370179, 0.7118598), (0.36662143, 0.7416215), (0.36228654, 0.7706059), (0.3573409, 0.7831408), (0.35197458, 0.79550123), (0.3463938, 0.80721253), (0.125, 0.75), (0.375, 0.5858184), (0.625, 0.5858184), (0.625, 0.6641816), (0.375, 0.66418165), (0.3463938, 0.80721253), (0.6536063, 0.8072125), (0.625, 1), (0.375, 1), (0.625, 0.5858184), (0.6255497, 0.56907606), (0.62717754, 0.5529771), (0.62982106, 0.53814024), (0.6333786, 0.5083785), (0.6377135, 0.47939414), (0.6426591, 0.46685934), (0.64802545, 0.45449877), (0.6536063, 0.44278753), (0.875, 0.5), (0.875, 0.75), (0.6536063, 0.8072125), (0.64802545, 0.79550123), (0.6426591, 0.78314066), (0.63771343, 0.7706059), (0.63337857, 0.74162143), (0.62982106, 0.7118597), (0.62717754, 0.6970229), (0.6255497, 0.68092394), (0.625, 0.6641816), (0.375, 0.25), (0.625, 0.25), (0.6536063, 0.44278753), (0.3463938, 0.4427876), (0.625, 0.25), (0.375, 0.25), (0.375, 0.25), (0.625, 0.25), (0.625, 0.25), (0.375, 0.25), (0.375, 0.25), (0.625, 0.25), (0.625, 0.25), (0.375, 0.25), (0.375, 0.25), (0.625, 0.25), (0.375, 1), (0.625, 1), (0.625, 1), (0.375, 1), (0.375, 1), (0.625, 1), (0.625, 1), (0.375, 1), (0.375, 1), (0.625, 1), (0.625, 1), (0.375, 1), (0.375, 0), (0.625, 0), (0.625, 0.016036656), (0.375, 0.016036645), (0.375, 0.016036645), (0.625, 0.016036656), (0.625, 0.028609658), (0.375, 0.028609648), (0.375, 0.028609648), (0.625, 0.028609658), (0.625, 0.039951846), (0.375, 0.039951846), (0.875, 0.7499838), (0.875, 0.5000117), (0.875, 0.5), (0.875, 0.7100482), (0.87500006, 0.7195999), (0.875, 0.72735286), (0.8749999, 0.7342806), (0.875, 0.7422979), (0.875, 0.7480061), (0.875, 0.7499907), (0.375, 0.039951846), (0.625, 0.039951846), (0.625, 0.25), (0.375, 0.25), (0.375, 1), (0.625, 1), (0.625, 1), (0.375, 1), (0.125, 0.50001174), (0.125, 0.7499838), (0.125, 0.7499907), (0.12499999, 0.7480061), (0.125, 0.7422979), (0.125, 0.73428065), (0.125, 0.7273529), (0.125, 0.7195999), (0.125, 0.7100482), (0.125, 0.5), (0.125, 0.75), (0.12500001, 0.83094317), (0.125, 0.6619035), (0.12500001, 0.83094317), (0.124999985, 0.807747), (0.125, 0.6619035), (0.124999985, 0.807747), (0.125, 0.74999994), (0.125, 0.6619035), (0.125, 0.74999994), (0.125, 0.74999875), (0.125, 0.6619035), (0.125, 0.74999875), (0.125, 0.7499974), (0.125, 0.6619035), (0.125, 0.7499974), (0.125, 0.7499961), (0.125, 0.6619035), (0.125, 0.7499961), (0.125, 0.74999493), (0.125, 0.6619035), (0.87500006, 0.749995), (0.87500006, 0.752335), (0.875, 0.6619035), (0.87500006, 0.752335), (0.8750001, 0.75913906), (0.87500006, 0.6619035), (0.8750001, 0.75913906), (0.87500006, 0.7499987), (0.87500006, 0.6619035), (0.87500006, 0.7499987), (0.875, 0.75), (0.87500006, 0.6619035), (0.875, 0.75), (0.87500006, 0.75000006), (0.87500006, 0.6619035), (0.87500006, 0.75000006), (0.87500006, 0.75000006), (0.87500006, 0.6619035), (0.87500006, 0.75000006), (0.87500006, 0.75000006), (0.87500006, 0.6619035), (0.625, 1), (0.375, 1), (0.375, 1), (0.625, 1), (0.625, 1), (0.375, 1), (0.375, 1), (0.625, 1), (0.625, 1), (0.375, 1), (0.375, 1), (0.625, 1), (0.625, 1), (0.375, 1), (0.375, 1), (0.625, 1), (0.625, 1), (0.375, 1), (0.375, 1), (0.625, 1), (0.625, 1), (0.375, 1), (0.37500003, 1), (0.625, 1), (0.625, 1), (0.37500003, 1), (0.375, 1), (0.625, 1), (0.125, 0.5), (0.125, 0.75), (0.125, 0.75), (0.125, 0.6619035), (0.125, 0.5), (0.125, 0.5), (0.125, 0.6619035), (0.125, 0.74999493), (0.125, 0.7499838), (0.125, 0.50001174), (0.375, 1), (0.625, 1), (0.625, 1), (0.375, 1), (0.375, 1), (0.625, 1), (0.625, 1), (0.375, 1), (0.875, 0.75), (0.875, 0.5), (0.875, 0.5), (0.875, 0.6619035), (0.875, 0.75000006), (0.87500006, 0.749995), (0.875, 0.6619035), (0.875, 0.5), (0.875, 0.5000117), (0.875, 0.7499838)] (
                    interpolation = "faceVarying"
                )
                rel skel:skeleton = </roboticArm/Rig/Armature_render>
                matrix4d xformOp:transform = ( (1, 0, 0, 0), (0, 1, 0, 0), (0, 0, 1, 0), (-1.2103700637817383, 0.050343893468379974, 1.4976130723953247, 1) )
                uniform token[] xformOpOrder = ["xformOp:transform"]
            }
        }
    }
}

